<svg xmlns="http://www.w3.org/2000/svg" xmlns:xlink="http://www.w3.org/1999/xlink" width="3150" zoomAndPan="magnify" viewBox="0 0 2362.5 3299.99998" height="4400" preserveAspectRatio="xMidYMid meet" version="1.2"><defs><clipPath id="276f057bcd"><path d="M 0 0.347656 L 2362 0.347656 L 2362 3299.648438 L 0 3299.648438 Z M 0 0.347656 "/></clipPath><clipPath id="1cb5320d05"><path d="M 0 0.347656 L 2361.964844 0.347656 L 2361.964844 3299.601562 L 0 3299.601562 Z M 0 0.347656 "/></clipPath><clipPath id="943eaa4035"><path d="M 56.117188 45.851562 L 2305.882812 45.851562 L 2305.882812 3254 L 56.117188 3254 Z M 56.117188 45.851562 "/></clipPath></defs><g id="356e6a4122"><g clip-rule="nonzero" clip-path="url(#276f057bcd)"><path style=" stroke:none;fill-rule:nonzero;fill:#ffffff;fill-opacity:1;" d="M 0 0.347656 L 2362 0.347656 L 2362 3299.652344 L 0 3299.652344 Z M 0 0.347656 "/></g><g clip-rule="nonzero" clip-path="url(#1cb5320d05)"><path style=" stroke:none;fill-rule:nonzero;fill:#0f0f0f;fill-opacity:1;" d="M 0 0.347656 L 2361.964844 0.347656 L 2361.964844 3299.601562 L 0 3299.601562 Z M 0 0.347656 "/></g><g clip-rule="nonzero" clip-path="url(#943eaa4035)"><path style=" stroke:none;fill-rule:nonzero;fill:#ffffff;fill-opacity:1;" d="M 56.117188 45.851562 L 2305.882812 45.851562 L 2305.882812 3253.523438 L 56.117188 3253.523438 Z M 56.117188 45.851562 "/></g></g></svg>