<svg xmlns="http://www.w3.org/2000/svg" xmlns:xlink="http://www.w3.org/1999/xlink" width="3150" zoomAndPan="magnify" viewBox="0 0 2362.5 3299.999941" height="4400" preserveAspectRatio="xMidYMid meet" version="1.0"><defs><g/><clipPath id="20023e5873"><path d="M 0 0.347656 L 2362 0.347656 L 2362 3299.648438 L 0 3299.648438 Z M 0 0.347656 " clip-rule="nonzero"/></clipPath><clipPath id="f0a67dc984"><path d="M 136.871094 131.574219 L 2225.164062 131.574219 L 2225.164062 3167 L 136.871094 3167 Z M 136.871094 131.574219 " clip-rule="nonzero"/></clipPath><clipPath id="316ea43053"><path d="M 249.347656 131.574219 L 2112.6875 131.574219 C 2174.804688 131.574219 2225.164062 181.929688 2225.164062 244.050781 L 2225.164062 3055.902344 C 2225.164062 3118.023438 2174.804688 3168.378906 2112.6875 3168.378906 L 249.347656 3168.378906 C 187.230469 3168.378906 136.871094 3118.023438 136.871094 3055.902344 L 136.871094 244.050781 C 136.871094 181.929688 187.230469 131.574219 249.347656 131.574219 Z M 249.347656 131.574219 " clip-rule="nonzero"/></clipPath></defs><g clip-path="url(#20023e5873)"><path fill="#ffffff" d="M 0 0.347656 L 2362 0.347656 L 2362 3299.652344 L 0 3299.652344 Z M 0 0.347656 " fill-opacity="1" fill-rule="nonzero"/><path fill="#d80400" d="M 0 0.347656 L 2362 0.347656 L 2362 3299.652344 L 0 3299.652344 Z M 0 0.347656 " fill-opacity="1" fill-rule="nonzero"/></g><g clip-path="url(#f0a67dc984)"><g clip-path="url(#316ea43053)"><path fill="#ffffff" d="M 136.871094 131.574219 L 2225.164062 131.574219 L 2225.164062 3166.121094 L 136.871094 3166.121094 Z M 136.871094 131.574219 " fill-opacity="1" fill-rule="nonzero"/></g></g><g fill="#000000" fill-opacity="1"><g transform="translate(198.456168, 443.530134)"><g><path d="M 102.625 25.0625 C 100.8125 25.644531 97.660156 26.253906 93.171875 26.890625 C 88.691406 27.535156 84.425781 27.859375 80.375 27.859375 C 59.082031 27.859375 46.78125 19.050781 43.46875 1.4375 C 32.101562 -0.269531 23.164062 -5.738281 16.65625 -14.96875 C 10.144531 -24.195312 6.890625 -37.671875 6.890625 -55.390625 C 6.890625 -73.859375 10.742188 -88.097656 18.453125 -98.109375 C 26.160156 -108.117188 38.257812 -113.125 54.75 -113.125 C 71.132812 -113.125 83.15625 -108.09375 90.8125 -98.03125 C 98.476562 -87.96875 102.3125 -73.753906 102.3125 -55.390625 C 102.3125 -22.785156 90.890625 -3.945312 68.046875 1.125 C 68.578125 4 69.722656 6.085938 71.484375 7.390625 C 73.242188 8.703125 76.421875 9.359375 81.015625 9.359375 C 83.421875 9.359375 86.207031 9.101562 89.375 8.59375 C 92.550781 8.09375 95.234375 7.523438 97.421875 6.890625 Z M 79.015625 -55.390625 C 79.015625 -68.523438 77.160156 -78.09375 73.453125 -84.09375 C 69.742188 -90.101562 63.507812 -93.109375 54.75 -93.109375 C 45.675781 -93.109375 39.3125 -90.101562 35.65625 -84.09375 C 32.007812 -78.09375 30.1875 -68.523438 30.1875 -55.390625 C 30.1875 -42.265625 32.039062 -32.695312 35.75 -26.6875 C 39.457031 -20.6875 45.789062 -17.6875 54.75 -17.6875 C 63.71875 -17.6875 70.003906 -20.726562 73.609375 -26.8125 C 77.210938 -32.894531 79.015625 -42.421875 79.015625 -55.390625 Z M 79.015625 -55.390625 "/></g></g></g><g fill="#000000" fill-opacity="1"><g transform="translate(307.654412, 443.530134)"><g><path d="M 65.078125 0 L 65.078125 -10.8125 C 61.453125 -6.914062 57.007812 -3.722656 51.75 -1.234375 C 46.5 1.242188 41.441406 2.484375 36.578125 2.484375 C 27.078125 2.484375 20.429688 -0.144531 16.640625 -5.40625 C 12.859375 -10.664062 10.96875 -18.148438 10.96875 -27.859375 L 10.96875 -83.984375 L 31.625 -83.984375 L 31.625 -37.703125 C 31.625 -31.773438 31.96875 -27.238281 32.65625 -24.09375 C 33.351562 -20.945312 34.488281 -18.769531 36.0625 -17.5625 C 37.632812 -16.363281 39.941406 -15.765625 42.984375 -15.765625 C 49.128906 -15.765625 56.492188 -19.796875 65.078125 -27.859375 L 65.078125 -83.984375 L 85.734375 -83.984375 L 85.734375 0 Z M 65.078125 0 "/></g></g></g><g fill="#000000" fill-opacity="1"><g transform="translate(405.084212, 443.530134)"><g><path d="M 33.46875 -106.875 C 33.46875 -102.976562 32.503906 -100.253906 30.578125 -98.703125 C 28.660156 -97.160156 25.726562 -96.390625 21.78125 -96.390625 C 17.394531 -96.390625 14.414062 -97.296875 12.84375 -99.109375 C 11.269531 -100.921875 10.484375 -103.507812 10.484375 -106.875 C 10.484375 -110.613281 11.335938 -113.296875 13.046875 -114.921875 C 14.753906 -116.546875 17.664062 -117.359375 21.78125 -117.359375 C 25.9375 -117.359375 28.921875 -116.570312 30.734375 -115 C 32.554688 -113.425781 33.46875 -110.71875 33.46875 -106.875 Z M 11.609375 0 L 11.609375 -83.984375 L 32.265625 -83.984375 L 32.265625 0 Z M 11.609375 0 "/></g></g></g><g fill="#000000" fill-opacity="1"><g transform="translate(449.035693, 443.530134)"><g/></g></g><g fill="#000000" fill-opacity="1"><g transform="translate(488.423917, 443.530134)"><g><path d="M 81.015625 -12.015625 C 77.816406 -7.265625 73.597656 -3.660156 68.359375 -1.203125 C 63.128906 1.253906 56.515625 2.484375 48.515625 2.484375 C 34.953125 2.484375 24.703125 -1.207031 17.765625 -8.59375 C 10.828125 -15.988281 7.359375 -26.945312 7.359375 -41.46875 C 7.359375 -55.613281 10.71875 -66.632812 17.4375 -74.53125 C 24.164062 -82.425781 34.257812 -86.375 47.71875 -86.375 C 54.914062 -86.375 61.328125 -85.195312 66.953125 -82.84375 C 72.585938 -80.5 76.875 -76.875 79.8125 -71.96875 L 64.4375 -61 C 62.570312 -63.507812 60.382812 -65.363281 57.875 -66.5625 C 55.375 -67.757812 52.144531 -68.359375 48.1875 -68.359375 C 41.144531 -68.359375 36.128906 -66.195312 33.140625 -61.875 C 30.148438 -57.550781 28.65625 -50.851562 28.65625 -41.78125 C 28.65625 -32.707031 30.1875 -26.078125 33.25 -21.890625 C 36.320312 -17.703125 41.570312 -15.609375 49 -15.609375 C 52.195312 -15.609375 55.128906 -16.0625 57.796875 -16.96875 C 60.460938 -17.875 63 -19.875 65.40625 -22.96875 Z M 81.015625 -12.015625 "/></g></g></g><g fill="#000000" fill-opacity="1"><g transform="translate(573.204676, 443.530134)"><g><path d="M 62.28125 -63.796875 C 60.144531 -64.867188 57.316406 -65.40625 53.796875 -65.40625 C 49.953125 -65.40625 46.304688 -64.484375 42.859375 -62.640625 C 39.421875 -60.796875 35.890625 -58.113281 32.265625 -54.59375 L 32.265625 0 L 11.609375 0 L 11.609375 -83.984375 L 32.265625 -83.984375 L 32.265625 -71.96875 C 35.785156 -75.8125 39.570312 -78.988281 43.625 -81.5 C 47.6875 -84.007812 52.222656 -85.265625 57.234375 -85.265625 C 61.503906 -85.265625 64.546875 -84.703125 66.359375 -83.578125 Z M 62.28125 -63.796875 "/></g></g></g><g fill="#000000" fill-opacity="1"><g transform="translate(640.452862, 443.530134)"><g><path d="M 28.65625 -36.578125 C 29.03125 -29.109375 30.84375 -23.742188 34.09375 -20.484375 C 37.351562 -17.234375 42.476562 -15.609375 49.46875 -15.609375 C 53.53125 -15.609375 57.09375 -16.113281 60.15625 -17.125 C 63.226562 -18.144531 65.910156 -20.09375 68.203125 -22.96875 L 83.578125 -12.015625 C 80.210938 -7.148438 75.847656 -3.515625 70.484375 -1.109375 C 65.117188 1.285156 57.796875 2.484375 48.515625 2.484375 C 34.691406 2.484375 24.375 -1.144531 17.5625 -8.40625 C 10.757812 -15.664062 7.359375 -26.632812 7.359375 -41.3125 C 7.359375 -71.351562 20.8125 -86.375 47.71875 -86.375 C 59.664062 -86.375 68.773438 -83 75.046875 -76.25 C 81.316406 -69.5 84.453125 -59.664062 84.453125 -46.75 L 84.453125 -36.578125 Z M 63.96875 -50.828125 C 63.96875 -63.585938 58.390625 -69.96875 47.234375 -69.96875 C 43.546875 -69.96875 40.523438 -69.335938 38.171875 -68.078125 C 35.828125 -66.828125 33.945312 -64.960938 32.53125 -62.484375 C 31.125 -60.003906 30.019531 -56.117188 29.21875 -50.828125 Z M 63.96875 -50.828125 "/></g></g></g><g fill="#000000" fill-opacity="1"><g transform="translate(731.95844, 443.530134)"><g><path d="M 65.078125 0 L 65.078125 -10.8125 C 61.453125 -6.914062 57.007812 -3.722656 51.75 -1.234375 C 46.5 1.242188 41.441406 2.484375 36.578125 2.484375 C 27.078125 2.484375 20.429688 -0.144531 16.640625 -5.40625 C 12.859375 -10.664062 10.96875 -18.148438 10.96875 -27.859375 L 10.96875 -83.984375 L 31.625 -83.984375 L 31.625 -37.703125 C 31.625 -31.773438 31.96875 -27.238281 32.65625 -24.09375 C 33.351562 -20.945312 34.488281 -18.769531 36.0625 -17.5625 C 37.632812 -16.363281 39.941406 -15.765625 42.984375 -15.765625 C 49.128906 -15.765625 56.492188 -19.796875 65.078125 -27.859375 L 65.078125 -83.984375 L 85.734375 -83.984375 L 85.734375 0 Z M 65.078125 0 "/></g></g></g><g fill="#000000" fill-opacity="1"><g transform="translate(829.38824, 443.530134)"><g><path d="M 75.734375 -23.9375 C 75.734375 -18.382812 74.332031 -13.632812 71.53125 -9.6875 C 68.726562 -5.738281 64.75 -2.722656 59.59375 -0.640625 C 54.445312 1.441406 48.566406 2.484375 41.953125 2.484375 C 24.390625 2.484375 12.429688 -2.398438 6.078125 -12.171875 L 21.453125 -22.96875 C 23.960938 -19.5625 26.859375 -17.28125 30.140625 -16.125 C 33.421875 -14.976562 36.929688 -14.40625 40.671875 -14.40625 C 50.484375 -14.40625 55.390625 -17.257812 55.390625 -22.96875 C 55.390625 -25.476562 54.003906 -27.414062 51.234375 -28.78125 C 48.460938 -30.144531 44.113281 -31.546875 38.1875 -32.984375 C 27.03125 -35.441406 19.179688 -38.910156 14.640625 -43.390625 C 10.109375 -47.867188 7.84375 -53.6875 7.84375 -60.84375 C 7.84375 -68.257812 10.679688 -74.367188 16.359375 -79.171875 C 22.046875 -83.972656 30.414062 -86.375 41.46875 -86.375 C 48.988281 -86.375 55.617188 -85.171875 61.359375 -82.765625 C 67.097656 -80.367188 71.515625 -76.769531 74.609375 -71.96875 L 59.15625 -61 C 55.476562 -66.65625 49.472656 -69.484375 41.140625 -69.484375 C 36.878906 -69.484375 33.648438 -68.75 31.453125 -67.28125 C 29.265625 -65.8125 28.171875 -63.929688 28.171875 -61.640625 C 28.171875 -59.453125 29.160156 -57.703125 31.140625 -56.390625 C 33.117188 -55.085938 37.015625 -53.71875 42.828125 -52.28125 C 52.378906 -49.925781 59.195312 -47.585938 63.28125 -45.265625 C 67.363281 -42.941406 70.457031 -40.0625 72.5625 -36.625 C 74.675781 -33.1875 75.734375 -28.957031 75.734375 -23.9375 Z M 75.734375 -23.9375 "/></g></g></g><g fill="#000000" fill-opacity="1"><g transform="translate(911.527118, 443.530134)"><g/></g></g><g fill="#000000" fill-opacity="1"><g transform="translate(950.915341, 443.530134)"><g><path d="M 65.078125 31.625 L 65.078125 -6.71875 C 57.554688 -0.582031 49.207031 2.484375 40.03125 2.484375 C 29.457031 2.484375 21.367188 -1.25 15.765625 -8.71875 C 10.160156 -16.195312 7.359375 -27.0625 7.359375 -41.3125 C 7.359375 -55.507812 10.398438 -66.566406 16.484375 -74.484375 C 22.578125 -82.410156 31.222656 -86.375 42.421875 -86.375 C 47.492188 -86.375 52.242188 -85.304688 56.671875 -83.171875 C 61.109375 -81.035156 64.632812 -78.660156 67.25 -76.046875 L 69.96875 -83.984375 L 85.734375 -83.984375 L 85.734375 31.625 Z M 65.078125 -60.6875 C 62.578125 -62.976562 59.710938 -64.800781 56.484375 -66.15625 C 53.253906 -67.519531 50.117188 -68.203125 47.078125 -68.203125 C 41.523438 -68.203125 37.066406 -65.8125 33.703125 -61.03125 C 30.335938 -56.257812 28.65625 -49.789062 28.65625 -41.625 C 28.65625 -33.457031 29.988281 -27.101562 32.65625 -22.5625 C 35.332031 -18.03125 39.628906 -15.765625 45.546875 -15.765625 C 48.960938 -15.765625 52.445312 -16.550781 56 -18.125 C 59.550781 -19.707031 62.578125 -21.644531 65.078125 -23.9375 Z M 65.078125 -60.6875 "/></g></g></g><g fill="#000000" fill-opacity="1"><g transform="translate(1048.345141, 443.530134)"><g><path d="M 65.078125 0 L 65.078125 -10.8125 C 61.453125 -6.914062 57.007812 -3.722656 51.75 -1.234375 C 46.5 1.242188 41.441406 2.484375 36.578125 2.484375 C 27.078125 2.484375 20.429688 -0.144531 16.640625 -5.40625 C 12.859375 -10.664062 10.96875 -18.148438 10.96875 -27.859375 L 10.96875 -83.984375 L 31.625 -83.984375 L 31.625 -37.703125 C 31.625 -31.773438 31.96875 -27.238281 32.65625 -24.09375 C 33.351562 -20.945312 34.488281 -18.769531 36.0625 -17.5625 C 37.632812 -16.363281 39.941406 -15.765625 42.984375 -15.765625 C 49.128906 -15.765625 56.492188 -19.796875 65.078125 -27.859375 L 65.078125 -83.984375 L 85.734375 -83.984375 L 85.734375 0 Z M 65.078125 0 "/></g></g></g><g fill="#000000" fill-opacity="1"><g transform="translate(1145.774987, 443.530134)"><g><path d="M 28.65625 -36.578125 C 29.03125 -29.109375 30.84375 -23.742188 34.09375 -20.484375 C 37.351562 -17.234375 42.476562 -15.609375 49.46875 -15.609375 C 53.53125 -15.609375 57.09375 -16.113281 60.15625 -17.125 C 63.226562 -18.144531 65.910156 -20.09375 68.203125 -22.96875 L 83.578125 -12.015625 C 80.210938 -7.148438 75.847656 -3.515625 70.484375 -1.109375 C 65.117188 1.285156 57.796875 2.484375 48.515625 2.484375 C 34.691406 2.484375 24.375 -1.144531 17.5625 -8.40625 C 10.757812 -15.664062 7.359375 -26.632812 7.359375 -41.3125 C 7.359375 -71.351562 20.8125 -86.375 47.71875 -86.375 C 59.664062 -86.375 68.773438 -83 75.046875 -76.25 C 81.316406 -69.5 84.453125 -59.664062 84.453125 -46.75 L 84.453125 -36.578125 Z M 63.96875 -50.828125 C 63.96875 -63.585938 58.390625 -69.96875 47.234375 -69.96875 C 43.546875 -69.96875 40.523438 -69.335938 38.171875 -68.078125 C 35.828125 -66.828125 33.945312 -64.960938 32.53125 -62.484375 C 31.125 -60.003906 30.019531 -56.117188 29.21875 -50.828125 Z M 63.96875 -50.828125 "/></g></g></g><g fill="#000000" fill-opacity="1"><g transform="translate(1237.280519, 443.530134)"><g/></g></g><g fill="#000000" fill-opacity="1"><g transform="translate(1276.668788, 443.530134)"><g><path d="M 89.984375 -42.59375 C 89.984375 -28.65625 87.0625 -17.65625 81.21875 -9.59375 C 75.375 -1.539062 67.035156 2.484375 56.203125 2.484375 C 51.929688 2.484375 47.269531 1.507812 42.21875 -0.4375 C 37.175781 -2.382812 33.164062 -4.851562 30.1875 -7.84375 L 27.375 0 L 11.609375 0 L 11.609375 -119.203125 L 32.265625 -119.203125 L 32.265625 -77.25 C 39.835938 -83.332031 48.21875 -86.375 57.40625 -86.375 C 68.664062 -86.375 76.910156 -82.488281 82.140625 -74.71875 C 87.367188 -66.957031 89.984375 -56.25 89.984375 -42.59375 Z M 68.6875 -42.265625 C 68.6875 -50.910156 67.320312 -57.394531 64.59375 -61.71875 C 61.875 -66.039062 57.5 -68.203125 51.46875 -68.203125 C 48.113281 -68.203125 44.710938 -67.414062 41.265625 -65.84375 C 37.828125 -64.269531 34.828125 -62.335938 32.265625 -60.046875 L 32.265625 -23.296875 C 34.554688 -21.316406 37.34375 -19.566406 40.625 -18.046875 C 43.90625 -16.523438 47.09375 -15.765625 50.1875 -15.765625 C 56.113281 -15.765625 60.675781 -18.019531 63.875 -22.53125 C 67.082031 -27.039062 68.6875 -33.617188 68.6875 -42.265625 Z M 68.6875 -42.265625 "/></g></g></g><g fill="#000000" fill-opacity="1"><g transform="translate(1374.098634, 443.530134)"><g><path d="M 28.65625 -36.578125 C 29.03125 -29.109375 30.84375 -23.742188 34.09375 -20.484375 C 37.351562 -17.234375 42.476562 -15.609375 49.46875 -15.609375 C 53.53125 -15.609375 57.09375 -16.113281 60.15625 -17.125 C 63.226562 -18.144531 65.910156 -20.09375 68.203125 -22.96875 L 83.578125 -12.015625 C 80.210938 -7.148438 75.847656 -3.515625 70.484375 -1.109375 C 65.117188 1.285156 57.796875 2.484375 48.515625 2.484375 C 34.691406 2.484375 24.375 -1.144531 17.5625 -8.40625 C 10.757812 -15.664062 7.359375 -26.632812 7.359375 -41.3125 C 7.359375 -71.351562 20.8125 -86.375 47.71875 -86.375 C 59.664062 -86.375 68.773438 -83 75.046875 -76.25 C 81.316406 -69.5 84.453125 -59.664062 84.453125 -46.75 L 84.453125 -36.578125 Z M 63.96875 -50.828125 C 63.96875 -63.585938 58.390625 -69.96875 47.234375 -69.96875 C 43.546875 -69.96875 40.523438 -69.335938 38.171875 -68.078125 C 35.828125 -66.828125 33.945312 -64.960938 32.53125 -62.484375 C 31.125 -60.003906 30.019531 -56.117188 29.21875 -50.828125 Z M 63.96875 -50.828125 "/></g></g></g><g fill="#000000" fill-opacity="1"><g transform="translate(1465.604166, 443.530134)"><g><path d="M 65.078125 0 L 65.078125 -10.8125 C 61.453125 -6.914062 57.007812 -3.722656 51.75 -1.234375 C 46.5 1.242188 41.441406 2.484375 36.578125 2.484375 C 27.078125 2.484375 20.429688 -0.144531 16.640625 -5.40625 C 12.859375 -10.664062 10.96875 -18.148438 10.96875 -27.859375 L 10.96875 -83.984375 L 31.625 -83.984375 L 31.625 -37.703125 C 31.625 -31.773438 31.96875 -27.238281 32.65625 -24.09375 C 33.351562 -20.945312 34.488281 -18.769531 36.0625 -17.5625 C 37.632812 -16.363281 39.941406 -15.765625 42.984375 -15.765625 C 49.128906 -15.765625 56.492188 -19.796875 65.078125 -27.859375 L 65.078125 -83.984375 L 85.734375 -83.984375 L 85.734375 0 Z M 65.078125 0 "/></g></g></g><g fill="#000000" fill-opacity="1"><g transform="translate(1563.034012, 443.530134)"><g><path d="M 62.28125 -63.796875 C 60.144531 -64.867188 57.316406 -65.40625 53.796875 -65.40625 C 49.953125 -65.40625 46.304688 -64.484375 42.859375 -62.640625 C 39.421875 -60.796875 35.890625 -58.113281 32.265625 -54.59375 L 32.265625 0 L 11.609375 0 L 11.609375 -83.984375 L 32.265625 -83.984375 L 32.265625 -71.96875 C 35.785156 -75.8125 39.570312 -78.988281 43.625 -81.5 C 47.6875 -84.007812 52.222656 -85.265625 57.234375 -85.265625 C 61.503906 -85.265625 64.546875 -84.703125 66.359375 -83.578125 Z M 62.28125 -63.796875 "/></g></g></g><g fill="#000000" fill-opacity="1"><g transform="translate(1630.282198, 443.530134)"><g><path d="M 61.15625 0 L 61.15625 -8.71875 C 52.988281 -1.25 44.238281 2.484375 34.90625 2.484375 C 25.613281 2.484375 18.59375 0.0390625 13.84375 -4.84375 C 9.09375 -9.726562 6.71875 -15.984375 6.71875 -23.609375 C 6.71875 -29.585938 7.929688 -34.523438 10.359375 -38.421875 C 12.796875 -42.316406 16.398438 -45.375 21.171875 -47.59375 C 25.953125 -49.8125 32.820312 -51.375 41.78125 -52.28125 L 59.484375 -53.953125 L 59.484375 -57.71875 C 59.484375 -62.414062 58.066406 -65.628906 55.234375 -67.359375 C 52.410156 -69.097656 48.273438 -69.96875 42.828125 -69.96875 C 38.347656 -69.96875 34.492188 -69.21875 31.265625 -67.71875 C 28.035156 -66.226562 25.644531 -64.097656 24.09375 -61.328125 L 8 -71.65625 C 10.832031 -76.40625 15.265625 -80.046875 21.296875 -82.578125 C 27.328125 -85.109375 34.613281 -86.375 43.15625 -86.375 C 56.226562 -86.375 65.660156 -84.09375 71.453125 -79.53125 C 77.242188 -74.96875 80.140625 -67.484375 80.140625 -57.078125 L 80.140625 0 Z M 59.484375 -38.984375 L 49 -38.03125 C 41.570312 -37.382812 36.21875 -35.96875 32.9375 -33.78125 C 29.65625 -31.59375 28.015625 -28.3125 28.015625 -23.9375 C 28.015625 -20.09375 29.082031 -17.460938 31.21875 -16.046875 C 33.351562 -14.628906 36.179688 -13.921875 39.703125 -13.921875 C 42.210938 -13.921875 45.269531 -14.707031 48.875 -16.28125 C 52.476562 -17.863281 56.015625 -20.09375 59.484375 -22.96875 Z M 40.5 -96.703125 L 16.5625 -125.609375 L 41.78125 -125.609375 L 56.828125 -96.703125 Z M 40.5 -96.703125 "/></g></g></g><g fill="#000000" fill-opacity="1"><g transform="translate(1721.467546, 443.530134)"><g/></g></g><g fill="#000000" fill-opacity="1"><g transform="translate(1760.855724, 443.530134)"><g><path d="M 111.671875 0 L 111.671875 -49.46875 C 111.671875 -54.4375 111.378906 -58.304688 110.796875 -61.078125 C 110.210938 -63.859375 109.316406 -65.738281 108.109375 -66.71875 C 106.910156 -67.707031 104.925781 -68.203125 102.15625 -68.203125 C 99 -68.203125 95.660156 -67.023438 92.140625 -64.671875 C 88.617188 -62.328125 85.335938 -59.445312 82.296875 -56.03125 L 82.296875 0 L 61.640625 0 L 61.640625 -49.46875 C 61.640625 -54.914062 61.398438 -58.851562 60.921875 -61.28125 C 60.441406 -63.707031 59.585938 -65.46875 58.359375 -66.5625 C 57.128906 -67.65625 55.046875 -68.203125 52.109375 -68.203125 C 49.546875 -68.203125 46.582031 -67.226562 43.21875 -65.28125 C 39.863281 -63.332031 36.210938 -60.25 32.265625 -56.03125 L 32.265625 0 L 11.609375 0 L 11.609375 -83.984375 L 32.265625 -83.984375 L 32.265625 -73.09375 C 36.109375 -77.25 40.132812 -80.5 44.34375 -82.84375 C 48.5625 -85.195312 53.234375 -86.375 58.359375 -86.375 C 65.347656 -86.375 70.507812 -85.171875 73.84375 -82.765625 C 77.1875 -80.367188 79.472656 -76.820312 80.703125 -72.125 C 85.503906 -76.925781 90 -80.5 94.1875 -82.84375 C 98.375 -85.195312 103.269531 -86.375 108.875 -86.375 C 117.039062 -86.375 122.988281 -84.050781 126.71875 -79.40625 C 130.457031 -74.769531 132.328125 -66.976562 132.328125 -56.03125 L 132.328125 0 Z M 111.671875 0 "/></g></g></g><g fill="#000000" fill-opacity="1"><g transform="translate(1904.158339, 443.530134)"><g><path d="M 28.65625 -36.578125 C 29.03125 -29.109375 30.84375 -23.742188 34.09375 -20.484375 C 37.351562 -17.234375 42.476562 -15.609375 49.46875 -15.609375 C 53.53125 -15.609375 57.09375 -16.113281 60.15625 -17.125 C 63.226562 -18.144531 65.910156 -20.09375 68.203125 -22.96875 L 83.578125 -12.015625 C 80.210938 -7.148438 75.847656 -3.515625 70.484375 -1.109375 C 65.117188 1.285156 57.796875 2.484375 48.515625 2.484375 C 34.691406 2.484375 24.375 -1.144531 17.5625 -8.40625 C 10.757812 -15.664062 7.359375 -26.632812 7.359375 -41.3125 C 7.359375 -71.351562 20.8125 -86.375 47.71875 -86.375 C 59.664062 -86.375 68.773438 -83 75.046875 -76.25 C 81.316406 -69.5 84.453125 -59.664062 84.453125 -46.75 L 84.453125 -36.578125 Z M 63.96875 -50.828125 C 63.96875 -63.585938 58.390625 -69.96875 47.234375 -69.96875 C 43.546875 -69.96875 40.523438 -69.335938 38.171875 -68.078125 C 35.828125 -66.828125 33.945312 -64.960938 32.53125 -62.484375 C 31.125 -60.003906 30.019531 -56.117188 29.21875 -50.828125 Z M 48.984375 -96.703125 L 32.578125 -96.703125 L 47.703125 -125.609375 L 72.921875 -125.609375 Z M 48.984375 -96.703125 "/></g></g></g><g fill="#000000" fill-opacity="1"><g transform="translate(1995.663871, 443.530134)"><g><path d="M 75.734375 -23.9375 C 75.734375 -18.382812 74.332031 -13.632812 71.53125 -9.6875 C 68.726562 -5.738281 64.75 -2.722656 59.59375 -0.640625 C 54.445312 1.441406 48.566406 2.484375 41.953125 2.484375 C 24.390625 2.484375 12.429688 -2.398438 6.078125 -12.171875 L 21.453125 -22.96875 C 23.960938 -19.5625 26.859375 -17.28125 30.140625 -16.125 C 33.421875 -14.976562 36.929688 -14.40625 40.671875 -14.40625 C 50.484375 -14.40625 55.390625 -17.257812 55.390625 -22.96875 C 55.390625 -25.476562 54.003906 -27.414062 51.234375 -28.78125 C 48.460938 -30.144531 44.113281 -31.546875 38.1875 -32.984375 C 27.03125 -35.441406 19.179688 -38.910156 14.640625 -43.390625 C 10.109375 -47.867188 7.84375 -53.6875 7.84375 -60.84375 C 7.84375 -68.257812 10.679688 -74.367188 16.359375 -79.171875 C 22.046875 -83.972656 30.414062 -86.375 41.46875 -86.375 C 48.988281 -86.375 55.617188 -85.171875 61.359375 -82.765625 C 67.097656 -80.367188 71.515625 -76.769531 74.609375 -71.96875 L 59.15625 -61 C 55.476562 -66.65625 49.472656 -69.484375 41.140625 -69.484375 C 36.878906 -69.484375 33.648438 -68.75 31.453125 -67.28125 C 29.265625 -65.8125 28.171875 -63.929688 28.171875 -61.640625 C 28.171875 -59.453125 29.160156 -57.703125 31.140625 -56.390625 C 33.117188 -55.085938 37.015625 -53.71875 42.828125 -52.28125 C 52.378906 -49.925781 59.195312 -47.585938 63.28125 -45.265625 C 67.363281 -42.941406 70.457031 -40.0625 72.5625 -36.625 C 74.675781 -33.1875 75.734375 -28.957031 75.734375 -23.9375 Z M 75.734375 -23.9375 "/></g></g></g><g fill="#000000" fill-opacity="1"><g transform="translate(2077.802795, 443.530134)"><g><path d="M 26.578125 -31.9375 L 26.578125 -56.03125 C 35.273438 -59.664062 41.546875 -62.65625 45.390625 -65 C 49.234375 -67.351562 52.085938 -69.835938 53.953125 -72.453125 C 55.828125 -75.066406 56.765625 -78.082031 56.765625 -81.5 C 56.765625 -89.664062 51.503906 -93.75 40.984375 -93.75 C 36.179688 -93.75 32.328125 -92.800781 29.421875 -90.90625 C 26.515625 -89.007812 23.859375 -86.085938 21.453125 -82.140625 L 2.796875 -93.265625 C 6.484375 -99.828125 11.394531 -104.773438 17.53125 -108.109375 C 23.664062 -111.453125 31.429688 -113.125 40.828125 -113.125 C 53.523438 -113.125 63.222656 -110.492188 69.921875 -105.234375 C 76.617188 -99.972656 79.96875 -92.59375 79.96875 -83.09375 C 79.96875 -77.8125 78.882812 -73.113281 76.71875 -69 C 74.5625 -64.894531 71.507812 -61.160156 67.5625 -57.796875 C 63.613281 -54.429688 57.210938 -50.585938 48.359375 -46.265625 L 48.359375 -31.9375 Z M 50.828125 -11.125 C 50.828125 -6.539062 49.785156 -3.351562 47.703125 -1.5625 C 45.628906 0.226562 42.296875 1.125 37.703125 1.125 C 32.691406 1.125 29.273438 0.125 27.453125 -1.875 C 25.640625 -3.882812 24.734375 -6.96875 24.734375 -11.125 C 24.734375 -15.5 25.691406 -18.644531 27.609375 -20.5625 C 29.535156 -22.488281 32.898438 -23.453125 37.703125 -23.453125 C 42.617188 -23.453125 46.035156 -22.488281 47.953125 -20.5625 C 49.867188 -18.644531 50.828125 -15.5 50.828125 -11.125 Z M 50.828125 -11.125 "/></g></g></g><g fill="#000000" fill-opacity="1"><g transform="translate(514.695862, 1728.559824)"><g><path d="M 102.625 25.0625 C 100.8125 25.644531 97.660156 26.253906 93.171875 26.890625 C 88.691406 27.535156 84.425781 27.859375 80.375 27.859375 C 59.082031 27.859375 46.78125 19.050781 43.46875 1.4375 C 32.101562 -0.269531 23.164062 -5.738281 16.65625 -14.96875 C 10.144531 -24.195312 6.890625 -37.671875 6.890625 -55.390625 C 6.890625 -73.859375 10.742188 -88.097656 18.453125 -98.109375 C 26.160156 -108.117188 38.257812 -113.125 54.75 -113.125 C 71.132812 -113.125 83.15625 -108.09375 90.8125 -98.03125 C 98.476562 -87.96875 102.3125 -73.753906 102.3125 -55.390625 C 102.3125 -22.785156 90.890625 -3.945312 68.046875 1.125 C 68.578125 4 69.722656 6.085938 71.484375 7.390625 C 73.242188 8.703125 76.421875 9.359375 81.015625 9.359375 C 83.421875 9.359375 86.207031 9.101562 89.375 8.59375 C 92.550781 8.09375 95.234375 7.523438 97.421875 6.890625 Z M 79.015625 -55.390625 C 79.015625 -68.523438 77.160156 -78.09375 73.453125 -84.09375 C 69.742188 -90.101562 63.507812 -93.109375 54.75 -93.109375 C 45.675781 -93.109375 39.3125 -90.101562 35.65625 -84.09375 C 32.007812 -78.09375 30.1875 -68.523438 30.1875 -55.390625 C 30.1875 -42.265625 32.039062 -32.695312 35.75 -26.6875 C 39.457031 -20.6875 45.789062 -17.6875 54.75 -17.6875 C 63.71875 -17.6875 70.003906 -20.726562 73.609375 -26.8125 C 77.210938 -32.894531 79.015625 -42.421875 79.015625 -55.390625 Z M 79.015625 -55.390625 "/></g></g></g><g fill="#000000" fill-opacity="1"><g transform="translate(623.894106, 1728.559824)"><g><path d="M 65.078125 0 L 65.078125 -10.8125 C 61.453125 -6.914062 57.007812 -3.722656 51.75 -1.234375 C 46.5 1.242188 41.441406 2.484375 36.578125 2.484375 C 27.078125 2.484375 20.429688 -0.144531 16.640625 -5.40625 C 12.859375 -10.664062 10.96875 -18.148438 10.96875 -27.859375 L 10.96875 -83.984375 L 31.625 -83.984375 L 31.625 -37.703125 C 31.625 -31.773438 31.96875 -27.238281 32.65625 -24.09375 C 33.351562 -20.945312 34.488281 -18.769531 36.0625 -17.5625 C 37.632812 -16.363281 39.941406 -15.765625 42.984375 -15.765625 C 49.128906 -15.765625 56.492188 -19.796875 65.078125 -27.859375 L 65.078125 -83.984375 L 85.734375 -83.984375 L 85.734375 0 Z M 65.078125 0 "/></g></g></g><g fill="#000000" fill-opacity="1"><g transform="translate(721.323906, 1728.559824)"><g><path d="M 61.15625 0 L 61.15625 -8.71875 C 52.988281 -1.25 44.238281 2.484375 34.90625 2.484375 C 25.613281 2.484375 18.59375 0.0390625 13.84375 -4.84375 C 9.09375 -9.726562 6.71875 -15.984375 6.71875 -23.609375 C 6.71875 -29.585938 7.929688 -34.523438 10.359375 -38.421875 C 12.796875 -42.316406 16.398438 -45.375 21.171875 -47.59375 C 25.953125 -49.8125 32.820312 -51.375 41.78125 -52.28125 L 59.484375 -53.953125 L 59.484375 -57.71875 C 59.484375 -62.414062 58.066406 -65.628906 55.234375 -67.359375 C 52.410156 -69.097656 48.273438 -69.96875 42.828125 -69.96875 C 38.347656 -69.96875 34.492188 -69.21875 31.265625 -67.71875 C 28.035156 -66.226562 25.644531 -64.097656 24.09375 -61.328125 L 8 -71.65625 C 10.832031 -76.40625 15.265625 -80.046875 21.296875 -82.578125 C 27.328125 -85.109375 34.613281 -86.375 43.15625 -86.375 C 56.226562 -86.375 65.660156 -84.09375 71.453125 -79.53125 C 77.242188 -74.96875 80.140625 -67.484375 80.140625 -57.078125 L 80.140625 0 Z M 59.484375 -38.984375 L 49 -38.03125 C 41.570312 -37.382812 36.21875 -35.96875 32.9375 -33.78125 C 29.65625 -31.59375 28.015625 -28.3125 28.015625 -23.9375 C 28.015625 -20.09375 29.082031 -17.460938 31.21875 -16.046875 C 33.351562 -14.628906 36.179688 -13.921875 39.703125 -13.921875 C 42.210938 -13.921875 45.269531 -14.707031 48.875 -16.28125 C 52.476562 -17.863281 56.015625 -20.09375 59.484375 -22.96875 Z M 59.484375 -38.984375 "/></g></g></g><g fill="#000000" fill-opacity="1"><g transform="translate(812.509254, 1728.559824)"><g><path d="M 65.71875 0 L 65.71875 -46.265625 C 65.71875 -55.023438 64.929688 -60.867188 63.359375 -63.796875 C 61.785156 -66.734375 58.8125 -68.203125 54.4375 -68.203125 C 48.300781 -68.203125 40.910156 -64.144531 32.265625 -56.03125 L 32.265625 0 L 11.609375 0 L 11.609375 -83.984375 L 32.265625 -83.984375 L 32.265625 -73.09375 C 36.640625 -77.46875 41.304688 -80.773438 46.265625 -83.015625 C 51.234375 -85.253906 56.09375 -86.375 60.84375 -86.375 C 69.4375 -86.375 75.835938 -84.023438 80.046875 -79.328125 C 84.265625 -74.640625 86.375 -66.875 86.375 -56.03125 L 86.375 0 Z M 65.71875 0 "/></g></g></g><g fill="#000000" fill-opacity="1"><g transform="translate(909.939054, 1728.559824)"><g><path d="M 58.046875 0 C 52.492188 1.65625 46.648438 2.484375 40.515625 2.484375 C 30.796875 2.484375 23.800781 0.296875 19.53125 -4.078125 C 15.257812 -8.453125 13.125 -15.550781 13.125 -25.375 L 13.125 -67.5625 L 2.484375 -67.5625 L 2.484375 -83.984375 L 13.125 -83.984375 L 13.125 -107.359375 L 33.78125 -107.359375 L 33.78125 -83.984375 L 53.3125 -83.984375 L 53.3125 -67.5625 L 33.78125 -67.5625 L 33.78125 -28.015625 C 33.78125 -22.785156 34.59375 -19.234375 36.21875 -17.359375 C 37.851562 -15.492188 40.164062 -14.5625 43.15625 -14.5625 C 46.9375 -14.5625 50.695312 -15.335938 54.4375 -16.890625 Z M 58.046875 0 "/></g></g></g><g fill="#000000" fill-opacity="1"><g transform="translate(969.101457, 1728.559824)"><g/></g></g><g fill="#000000" fill-opacity="1"><g transform="translate(1008.489681, 1728.559824)"><g><path d="M 65.71875 0 L 65.71875 -46.265625 C 65.71875 -55.128906 64.890625 -61 63.234375 -63.875 C 61.585938 -66.757812 58.65625 -68.203125 54.4375 -68.203125 C 48.300781 -68.203125 40.910156 -64.144531 32.265625 -56.03125 L 32.265625 0 L 11.609375 0 L 11.609375 -119.203125 L 32.265625 -119.203125 L 32.265625 -73.09375 C 36.640625 -77.46875 41.304688 -80.773438 46.265625 -83.015625 C 51.234375 -85.253906 56.09375 -86.375 60.84375 -86.375 C 70.238281 -86.375 76.84375 -83.734375 80.65625 -78.453125 C 84.46875 -73.171875 86.375 -65.695312 86.375 -56.03125 L 86.375 0 Z M 65.71875 0 "/></g></g></g><g fill="#000000" fill-opacity="1"><g transform="translate(1105.919481, 1728.559824)"><g><path d="M 61.15625 0 L 61.15625 -8.71875 C 52.988281 -1.25 44.238281 2.484375 34.90625 2.484375 C 25.613281 2.484375 18.59375 0.0390625 13.84375 -4.84375 C 9.09375 -9.726562 6.71875 -15.984375 6.71875 -23.609375 C 6.71875 -29.585938 7.929688 -34.523438 10.359375 -38.421875 C 12.796875 -42.316406 16.398438 -45.375 21.171875 -47.59375 C 25.953125 -49.8125 32.820312 -51.375 41.78125 -52.28125 L 59.484375 -53.953125 L 59.484375 -57.71875 C 59.484375 -62.414062 58.066406 -65.628906 55.234375 -67.359375 C 52.410156 -69.097656 48.273438 -69.96875 42.828125 -69.96875 C 38.347656 -69.96875 34.492188 -69.21875 31.265625 -67.71875 C 28.035156 -66.226562 25.644531 -64.097656 24.09375 -61.328125 L 8 -71.65625 C 10.832031 -76.40625 15.265625 -80.046875 21.296875 -82.578125 C 27.328125 -85.109375 34.613281 -86.375 43.15625 -86.375 C 56.226562 -86.375 65.660156 -84.09375 71.453125 -79.53125 C 77.242188 -74.96875 80.140625 -67.484375 80.140625 -57.078125 L 80.140625 0 Z M 59.484375 -38.984375 L 49 -38.03125 C 41.570312 -37.382812 36.21875 -35.96875 32.9375 -33.78125 C 29.65625 -31.59375 28.015625 -28.3125 28.015625 -23.9375 C 28.015625 -20.09375 29.082031 -17.460938 31.21875 -16.046875 C 33.351562 -14.628906 36.179688 -13.921875 39.703125 -13.921875 C 42.210938 -13.921875 45.269531 -14.707031 48.875 -16.28125 C 52.476562 -17.863281 56.015625 -20.09375 59.484375 -22.96875 Z M 59.484375 -38.984375 "/></g></g></g><g fill="#000000" fill-opacity="1"><g transform="translate(1197.104829, 1728.559824)"><g><path d="M 75.734375 -23.9375 C 75.734375 -18.382812 74.332031 -13.632812 71.53125 -9.6875 C 68.726562 -5.738281 64.75 -2.722656 59.59375 -0.640625 C 54.445312 1.441406 48.566406 2.484375 41.953125 2.484375 C 24.390625 2.484375 12.429688 -2.398438 6.078125 -12.171875 L 21.453125 -22.96875 C 23.960938 -19.5625 26.859375 -17.28125 30.140625 -16.125 C 33.421875 -14.976562 36.929688 -14.40625 40.671875 -14.40625 C 50.484375 -14.40625 55.390625 -17.257812 55.390625 -22.96875 C 55.390625 -25.476562 54.003906 -27.414062 51.234375 -28.78125 C 48.460938 -30.144531 44.113281 -31.546875 38.1875 -32.984375 C 27.03125 -35.441406 19.179688 -38.910156 14.640625 -43.390625 C 10.109375 -47.867188 7.84375 -53.6875 7.84375 -60.84375 C 7.84375 -68.257812 10.679688 -74.367188 16.359375 -79.171875 C 22.046875 -83.972656 30.414062 -86.375 41.46875 -86.375 C 48.988281 -86.375 55.617188 -85.171875 61.359375 -82.765625 C 67.097656 -80.367188 71.515625 -76.769531 74.609375 -71.96875 L 59.15625 -61 C 55.476562 -66.65625 49.472656 -69.484375 41.140625 -69.484375 C 36.878906 -69.484375 33.648438 -68.75 31.453125 -67.28125 C 29.265625 -65.8125 28.171875 -63.929688 28.171875 -61.640625 C 28.171875 -59.453125 29.160156 -57.703125 31.140625 -56.390625 C 33.117188 -55.085938 37.015625 -53.71875 42.828125 -52.28125 C 52.378906 -49.925781 59.195312 -47.585938 63.28125 -45.265625 C 67.363281 -42.941406 70.457031 -40.0625 72.5625 -36.625 C 74.675781 -33.1875 75.734375 -28.957031 75.734375 -23.9375 Z M 75.734375 -23.9375 "/></g></g></g><g fill="#000000" fill-opacity="1"><g transform="translate(1279.243707, 1728.559824)"><g/></g></g><g fill="#000000" fill-opacity="1"><g transform="translate(1318.631885, 1728.559824)"><g><path d="M 89.984375 -42.59375 C 89.984375 -28.65625 87.0625 -17.65625 81.21875 -9.59375 C 75.375 -1.539062 67.035156 2.484375 56.203125 2.484375 C 51.929688 2.484375 47.269531 1.507812 42.21875 -0.4375 C 37.175781 -2.382812 33.164062 -4.851562 30.1875 -7.84375 L 27.375 0 L 11.609375 0 L 11.609375 -119.203125 L 32.265625 -119.203125 L 32.265625 -77.25 C 39.835938 -83.332031 48.21875 -86.375 57.40625 -86.375 C 68.664062 -86.375 76.910156 -82.488281 82.140625 -74.71875 C 87.367188 -66.957031 89.984375 -56.25 89.984375 -42.59375 Z M 68.6875 -42.265625 C 68.6875 -50.910156 67.320312 -57.394531 64.59375 -61.71875 C 61.875 -66.039062 57.5 -68.203125 51.46875 -68.203125 C 48.113281 -68.203125 44.710938 -67.414062 41.265625 -65.84375 C 37.828125 -64.269531 34.828125 -62.335938 32.265625 -60.046875 L 32.265625 -23.296875 C 34.554688 -21.316406 37.34375 -19.566406 40.625 -18.046875 C 43.90625 -16.523438 47.09375 -15.765625 50.1875 -15.765625 C 56.113281 -15.765625 60.675781 -18.019531 63.875 -22.53125 C 67.082031 -27.039062 68.6875 -33.617188 68.6875 -42.265625 Z M 68.6875 -42.265625 "/></g></g></g><g fill="#000000" fill-opacity="1"><g transform="translate(1416.06173, 1728.559824)"><g><path d="M 28.65625 -36.578125 C 29.03125 -29.109375 30.84375 -23.742188 34.09375 -20.484375 C 37.351562 -17.234375 42.476562 -15.609375 49.46875 -15.609375 C 53.53125 -15.609375 57.09375 -16.113281 60.15625 -17.125 C 63.226562 -18.144531 65.910156 -20.09375 68.203125 -22.96875 L 83.578125 -12.015625 C 80.210938 -7.148438 75.847656 -3.515625 70.484375 -1.109375 C 65.117188 1.285156 57.796875 2.484375 48.515625 2.484375 C 34.691406 2.484375 24.375 -1.144531 17.5625 -8.40625 C 10.757812 -15.664062 7.359375 -26.632812 7.359375 -41.3125 C 7.359375 -71.351562 20.8125 -86.375 47.71875 -86.375 C 59.664062 -86.375 68.773438 -83 75.046875 -76.25 C 81.316406 -69.5 84.453125 -59.664062 84.453125 -46.75 L 84.453125 -36.578125 Z M 63.96875 -50.828125 C 63.96875 -63.585938 58.390625 -69.96875 47.234375 -69.96875 C 43.546875 -69.96875 40.523438 -69.335938 38.171875 -68.078125 C 35.828125 -66.828125 33.945312 -64.960938 32.53125 -62.484375 C 31.125 -60.003906 30.019531 -56.117188 29.21875 -50.828125 Z M 63.96875 -50.828125 "/></g></g></g><g fill="#000000" fill-opacity="1"><g transform="translate(1507.567263, 1728.559824)"><g><path d="M 85.734375 -1.59375 C 85.734375 9.601562 82.289062 17.9375 75.40625 23.40625 C 68.519531 28.882812 57.472656 31.625 42.265625 31.625 C 29.722656 31.625 18.753906 29.222656 9.359375 24.421875 L 15.453125 7.53125 C 24.148438 11.582031 33.085938 13.609375 42.265625 13.609375 C 50.804688 13.609375 56.742188 12.378906 60.078125 9.921875 C 63.410156 7.472656 65.078125 3.335938 65.078125 -2.484375 L 65.078125 -9.359375 C 58.253906 -3.117188 50.007812 0 40.34375 0 C 30.101562 0 22.046875 -3.679688 16.171875 -11.046875 C 10.296875 -18.410156 7.359375 -29.003906 7.359375 -42.828125 C 7.359375 -51.472656 8.734375 -59.09375 11.484375 -65.6875 C 14.234375 -72.28125 18.265625 -77.375 23.578125 -80.96875 C 28.890625 -84.570312 35.304688 -86.375 42.828125 -86.375 C 47.253906 -86.375 51.679688 -85.398438 56.109375 -83.453125 C 60.546875 -81.503906 64.257812 -79.035156 67.25 -76.046875 L 69.96875 -83.984375 L 85.734375 -83.984375 Z M 65.078125 -60.6875 C 59.421875 -65.695312 53.257812 -68.203125 46.59375 -68.203125 C 41.570312 -68.203125 37.328125 -65.90625 33.859375 -61.3125 C 30.390625 -56.726562 28.65625 -50.675781 28.65625 -43.15625 C 28.65625 -34.613281 30.1875 -28.3125 33.25 -24.25 C 36.320312 -20.195312 40.316406 -18.171875 45.234375 -18.171875 C 52.066406 -18.171875 58.679688 -20.921875 65.078125 -26.421875 Z M 65.078125 -60.6875 "/></g></g></g><g fill="#000000" fill-opacity="1"><g transform="translate(1604.997108, 1728.559824)"><g><path d="M 65.078125 0 L 65.078125 -10.8125 C 61.453125 -6.914062 57.007812 -3.722656 51.75 -1.234375 C 46.5 1.242188 41.441406 2.484375 36.578125 2.484375 C 27.078125 2.484375 20.429688 -0.144531 16.640625 -5.40625 C 12.859375 -10.664062 10.96875 -18.148438 10.96875 -27.859375 L 10.96875 -83.984375 L 31.625 -83.984375 L 31.625 -37.703125 C 31.625 -31.773438 31.96875 -27.238281 32.65625 -24.09375 C 33.351562 -20.945312 34.488281 -18.769531 36.0625 -17.5625 C 37.632812 -16.363281 39.941406 -15.765625 42.984375 -15.765625 C 49.128906 -15.765625 56.492188 -19.796875 65.078125 -27.859375 L 65.078125 -83.984375 L 85.734375 -83.984375 L 85.734375 0 Z M 65.078125 0 "/></g></g></g><g fill="#000000" fill-opacity="1"><g transform="translate(1702.426954, 1728.559824)"><g><path d="M 58.046875 0 C 52.492188 1.65625 46.648438 2.484375 40.515625 2.484375 C 30.796875 2.484375 23.800781 0.296875 19.53125 -4.078125 C 15.257812 -8.453125 13.125 -15.550781 13.125 -25.375 L 13.125 -67.5625 L 2.484375 -67.5625 L 2.484375 -83.984375 L 13.125 -83.984375 L 13.125 -107.359375 L 33.78125 -107.359375 L 33.78125 -83.984375 L 53.3125 -83.984375 L 53.3125 -67.5625 L 33.78125 -67.5625 L 33.78125 -28.015625 C 33.78125 -22.785156 34.59375 -19.234375 36.21875 -17.359375 C 37.851562 -15.492188 40.164062 -14.5625 43.15625 -14.5625 C 46.9375 -14.5625 50.695312 -15.335938 54.4375 -16.890625 Z M 58.046875 0 "/></g></g></g><g fill="#000000" fill-opacity="1"><g transform="translate(1761.589357, 1728.559824)"><g><path d="M 26.578125 -31.9375 L 26.578125 -56.03125 C 35.273438 -59.664062 41.546875 -62.65625 45.390625 -65 C 49.234375 -67.351562 52.085938 -69.835938 53.953125 -72.453125 C 55.828125 -75.066406 56.765625 -78.082031 56.765625 -81.5 C 56.765625 -89.664062 51.503906 -93.75 40.984375 -93.75 C 36.179688 -93.75 32.328125 -92.800781 29.421875 -90.90625 C 26.515625 -89.007812 23.859375 -86.085938 21.453125 -82.140625 L 2.796875 -93.265625 C 6.484375 -99.828125 11.394531 -104.773438 17.53125 -108.109375 C 23.664062 -111.453125 31.429688 -113.125 40.828125 -113.125 C 53.523438 -113.125 63.222656 -110.492188 69.921875 -105.234375 C 76.617188 -99.972656 79.96875 -92.59375 79.96875 -83.09375 C 79.96875 -77.8125 78.882812 -73.113281 76.71875 -69 C 74.5625 -64.894531 71.507812 -61.160156 67.5625 -57.796875 C 63.613281 -54.429688 57.210938 -50.585938 48.359375 -46.265625 L 48.359375 -31.9375 Z M 50.828125 -11.125 C 50.828125 -6.539062 49.785156 -3.351562 47.703125 -1.5625 C 45.628906 0.226562 42.296875 1.125 37.703125 1.125 C 32.691406 1.125 29.273438 0.125 27.453125 -1.875 C 25.640625 -3.882812 24.734375 -6.96875 24.734375 -11.125 C 24.734375 -15.5 25.691406 -18.644531 27.609375 -20.5625 C 29.535156 -22.488281 32.898438 -23.453125 37.703125 -23.453125 C 42.617188 -23.453125 46.035156 -22.488281 47.953125 -20.5625 C 49.867188 -18.644531 50.828125 -15.5 50.828125 -11.125 Z M 50.828125 -11.125 "/></g></g></g></svg>