<svg xmlns="http://www.w3.org/2000/svg" xmlns:xlink="http://www.w3.org/1999/xlink" width="3150" zoomAndPan="magnify" viewBox="0 0 2362.5 3299.999941" height="4400" preserveAspectRatio="xMidYMid meet" version="1.0"><defs><clipPath id="4958c0d2d7"><path d="M 0 0.347656 L 2362 0.347656 L 2362 3299.648438 L 0 3299.648438 Z M 0 0.347656 " clip-rule="nonzero"/></clipPath><clipPath id="d01910e3cd"><path d="M 136.871094 131.574219 L 2225.164062 131.574219 L 2225.164062 3167 L 136.871094 3167 Z M 136.871094 131.574219 " clip-rule="nonzero"/></clipPath><clipPath id="44a95e2dd4"><path d="M 249.347656 131.574219 L 2112.6875 131.574219 C 2174.804688 131.574219 2225.164062 181.929688 2225.164062 244.050781 L 2225.164062 3055.902344 C 2225.164062 3118.023438 2174.804688 3168.378906 2112.6875 3168.378906 L 249.347656 3168.378906 C 187.230469 3168.378906 136.871094 3118.023438 136.871094 3055.902344 L 136.871094 244.050781 C 136.871094 181.929688 187.230469 131.574219 249.347656 131.574219 Z M 249.347656 131.574219 " clip-rule="nonzero"/></clipPath><clipPath id="3176ae289b"><path d="M 248 236.550781 L 454 236.550781 L 454 613 L 248 613 Z M 248 236.550781 " clip-rule="nonzero"/></clipPath><clipPath id="98ed638e68"><path d="M 457 236.550781 L 663 236.550781 L 663 613 L 457 613 Z M 457 236.550781 " clip-rule="nonzero"/></clipPath></defs><g clip-path="url(#4958c0d2d7)"><path fill="#ffffff" d="M 0 0.347656 L 2362 0.347656 L 2362 3299.652344 L 0 3299.652344 Z M 0 0.347656 " fill-opacity="1" fill-rule="nonzero"/><path fill="#d80400" d="M 0 0.347656 L 2362 0.347656 L 2362 3299.652344 L 0 3299.652344 Z M 0 0.347656 " fill-opacity="1" fill-rule="nonzero"/></g><g clip-path="url(#d01910e3cd)"><g clip-path="url(#44a95e2dd4)"><path fill="#ffffff" d="M 136.871094 131.574219 L 2225.164062 131.574219 L 2225.164062 3166.121094 L 136.871094 3166.121094 Z M 136.871094 131.574219 " fill-opacity="1" fill-rule="nonzero"/></g></g><path fill="#ff0b06" d="M 315.449219 601.652344 C 317.070312 607.648438 321.171875 617.414062 331.363281 623.710938 C 347.136719 635.386719 365.601562 625.730469 365.785156 625.632812 C 366.359375 625.3125 367.046875 625.320312 367.621094 625.625 C 372.855469 628.425781 382.539062 632.484375 394.671875 632.484375 C 397.585938 632.484375 400.640625 632.25 403.816406 631.707031 C 417.0625 629.445312 428.703125 622.449219 438.410156 610.914062 C 452.546875 594.15625 454.011719 574.296875 453.285156 562.386719 C 448.507812 575.03125 439.179688 594.042969 423.464844 605.261719 C 419.566406 608.050781 413.15625 611.785156 404.726562 613.753906 C 400.503906 614.75 387.734375 617.6875 379.402344 610.785156 C 378.59375 610.105469 378.46875 608.890625 379.136719 608.066406 C 381.492188 605.140625 385.433594 598.996094 385.328125 590.738281 C 385.28125 586.886719 384.300781 582.902344 382.578125 579.511719 C 380.414062 575.28125 377.433594 572.382812 374.753906 570.453125 C 374.316406 574.347656 373.304688 578.125 371.738281 581.699219 C 370.304688 584.988281 368.429688 588.066406 366.148438 590.84375 C 365.761719 591.324219 365.175781 591.523438 364.554688 591.558594 C 357.941406 591.246094 351.414062 589.371094 345.679688 586.148438 C 340.015625 582.953125 335.90625 578.941406 333.003906 575.214844 C 333.246094 580.789062 334.386719 586.21875 336.410156 591.414062 C 338.375 596.496094 341.15625 601.21875 344.664062 605.457031 C 345.121094 605.996094 345.234375 606.75 344.976562 607.402344 C 344.726562 608.0625 344.125 608.527344 343.425781 608.625 C 338.945312 609.226562 334.472656 609.066406 330.113281 608.140625 C 324.019531 606.847656 319.128906 604.28125 315.453125 601.652344 Z M 315.449219 601.652344 " fill-opacity="1" fill-rule="nonzero"/><path fill="#ff0b06" d="M 487.253906 605.261719 C 471.511719 594.011719 462.199219 575.015625 457.4375 562.378906 C 456.699219 574.273438 458.144531 594.121094 472.308594 610.914062 C 482.039062 622.449219 493.683594 629.445312 506.914062 631.707031 C 523.28125 634.496094 536.609375 629.101562 543.105469 625.625 C 543.683594 625.320312 544.367188 625.3125 544.945312 625.632812 C 545.125 625.722656 563.566406 635.386719 579.238281 623.800781 C 589.582031 617.398438 593.691406 607.707031 595.308594 601.628906 C 591.617188 604.265625 586.710938 606.847656 580.621094 608.140625 C 576.257812 609.066406 571.777344 609.226562 567.304688 608.625 C 566.605469 608.527344 566.003906 608.066406 565.753906 607.402344 C 565.496094 606.75 565.609375 606 566.066406 605.457031 C 569.558594 601.226562 572.339844 596.503906 574.316406 591.414062 C 576.3125 586.289062 577.457031 580.78125 577.710938 575.230469 C 574.808594 578.953125 570.707031 582.964844 565.046875 586.152344 C 559.3125 589.378906 552.78125 591.246094 546.175781 591.558594 C 545.605469 591.53125 544.976562 591.324219 544.578125 590.847656 C 542.300781 588.066406 540.425781 584.988281 538.988281 581.703125 C 537.425781 578.125 536.414062 574.347656 535.972656 570.445312 C 533.285156 572.375 530.308594 575.277344 528.144531 579.515625 C 527.148438 581.472656 525.46875 585.53125 525.402344 590.742188 C 525.289062 598.988281 529.238281 605.132812 531.589844 608.066406 C 532.261719 608.894531 532.136719 610.109375 531.324219 610.785156 C 527.148438 614.25 521.871094 615.234375 517.113281 615.234375 C 512.359375 615.234375 508.113281 614.246094 506.015625 613.761719 C 499.347656 612.199219 492.871094 609.265625 487.253906 605.261719 Z M 487.253906 605.261719 " fill-opacity="1" fill-rule="nonzero"/><g clip-path="url(#3176ae289b)"><path fill="#ff0b06" d="M 268.160156 578.691406 C 270.023438 581.34375 271.964844 583.804688 273.949219 586.015625 C 284.4375 597.765625 299.984375 607.652344 315.75 612.699219 C 311.792969 605.554688 310.773438 598.875 310.574219 596.9375 C 310.5 596.128906 310.925781 595.355469 311.652344 594.992188 C 312.375 594.648438 313.253906 594.769531 313.839844 595.320312 C 317.226562 598.5 322.929688 602.648438 330.914062 604.34375 C 333.710938 604.933594 336.558594 605.152344 339.441406 605.070312 C 336.699219 601.273438 334.46875 597.171875 332.773438 592.828125 C 329.8125 585.203125 328.613281 577.121094 329.21875 568.8125 C 329.28125 567.953125 329.898438 567.238281 330.730469 567.050781 C 331.566406 566.859375 332.433594 567.246094 332.851562 567.992188 C 335.289062 572.3125 339.824219 578.390625 347.59375 582.765625 C 352.507812 585.527344 358.074219 587.199219 363.757812 587.617188 C 365.535156 585.316406 367.015625 582.808594 368.171875 580.152344 C 369.976562 576.011719 370.964844 571.589844 371.101562 567.011719 C 371.125 566.335938 371.496094 565.71875 372.082031 565.386719 C 372.683594 565.042969 373.390625 565.042969 373.988281 565.371094 C 376.226562 566.609375 378.96875 568.625 381.550781 571.433594 C 382.214844 568.167969 382.71875 564.9375 382.882812 561.867188 C 383.355469 552.988281 381.699219 545.644531 380.808594 541.695312 C 376.707031 523.40625 367.84375 511.175781 363.578125 505.300781 L 362.519531 503.828125 C 342.515625 475.570312 349.3125 430.917969 351.878906 417.910156 C 357.160156 391.105469 371.421875 377.722656 387.925781 362.234375 C 404.015625 347.136719 422.242188 330.03125 437.515625 296.148438 C 451.179688 265.8125 454.558594 240.347656 452.519531 236.480469 C 450.976562 237.417969 447.429688 242.300781 443.988281 247.03125 C 436.195312 257.75 424.425781 273.949219 405.0625 292.34375 C 382.203125 314.066406 372.265625 319.847656 355.792969 329.425781 C 348.972656 333.390625 341.242188 337.878906 330.917969 344.425781 C 296.679688 366.132812 271.515625 400.882812 258.15625 444.914062 C 250.546875 470 236.289062 533.246094 268.167969 578.695312 Z M 339.210938 502.621094 C 339.964844 501.988281 341.054688 501.957031 342.023438 502.128906 C 345.191406 502.6875 347.765625 504.957031 349.957031 507.316406 C 357.792969 515.75 365.65625 528.316406 368.601562 540.324219 C 369.105469 542.363281 369.460938 544.386719 369.65625 546.371094 C 370.007812 550.019531 369.425781 553.882812 367.308594 556.875 C 365.90625 558.855469 363.289062 560.449219 361.109375 559.378906 C 360.132812 558.898438 359.453125 557.976562 358.890625 557.042969 C 356.546875 553.167969 355.539062 548.664062 354.304688 544.308594 C 352.226562 536.953125 349.414062 529.808594 345.921875 523.011719 C 343.191406 517.695312 340.015625 512.507812 338.589844 506.707031 C 338.242188 505.292969 338.097656 503.558594 339.210938 502.621094 Z M 339.210938 502.621094 " fill-opacity="1" fill-rule="nonzero"/></g><g clip-path="url(#98ed638e68)"><path fill="#ff0b06" d="M 473.210938 296.148438 C 488.484375 330.03125 506.714844 347.132812 522.792969 362.226562 C 539.304688 377.722656 553.5625 391.101562 558.84375 417.890625 C 561.410156 430.925781 568.214844 475.578125 548.207031 503.824219 L 547.167969 505.269531 C 542.898438 511.148438 534.027344 523.375 529.910156 541.695312 C 529.023438 545.644531 527.367188 552.988281 527.84375 561.867188 C 528.007812 564.933594 528.515625 568.164062 529.175781 571.425781 C 531.757812 568.617188 534.5 566.605469 536.738281 565.371094 C 537.339844 565.042969 538.046875 565.042969 538.644531 565.386719 C 539.230469 565.71875 539.601562 566.335938 539.625 567.011719 C 539.761719 571.589844 540.75 576.011719 542.558594 580.152344 C 543.710938 582.808594 545.191406 585.316406 546.96875 587.617188 C 552.644531 587.199219 558.210938 585.527344 563.140625 582.765625 C 570.894531 578.390625 575.429688 572.320312 577.871094 567.992188 C 578.289062 567.261719 579.113281 566.882812 579.988281 567.050781 C 580.824219 567.238281 581.4375 567.953125 581.5 568.804688 C 582.109375 576.976562 580.878906 585.277344 577.945312 592.828125 C 576.25 597.179688 574.019531 601.28125 571.285156 605.070312 C 574.164062 605.15625 577.011719 604.933594 579.8125 604.34375 C 587.773438 602.648438 593.492188 598.5 596.886719 595.320312 C 597.472656 594.769531 598.363281 594.636719 599.082031 595 C 599.8125 595.355469 600.238281 596.132812 600.152344 596.945312 C 599.949219 598.886719 598.902344 605.5625 594.929688 612.714844 C 610.707031 607.675781 626.273438 597.777344 636.777344 586.015625 C 638.769531 583.789062 640.710938 581.328125 642.558594 578.691406 C 674.441406 533.234375 660.179688 469.988281 652.566406 444.910156 C 639.214844 400.886719 614.058594 366.136719 579.8125 344.421875 C 569.488281 337.875 561.757812 333.386719 554.9375 329.421875 C 538.464844 319.84375 528.527344 314.0625 505.667969 292.339844 C 486.316406 273.953125 474.542969 257.753906 466.746094 247.035156 C 463.300781 242.304688 459.746094 237.410156 458.203125 236.476562 C 456.167969 240.34375 459.554688 265.820312 473.210938 296.144531 Z M 605.160156 580.183594 C 607.210938 574.886719 610.910156 570.433594 614.289062 565.871094 C 619.992188 558.167969 624.929688 549.898438 629 541.222656 C 632.183594 534.4375 634.902344 527.308594 639.566406 521.445312 C 640.699219 520.019531 642.316406 518.546875 644.097656 518.933594 C 645.300781 519.195312 646.167969 520.253906 646.742188 521.347656 C 648.617188 524.917969 648.335938 529.21875 647.671875 533.199219 C 645.304688 547.441406 638.859375 564.878906 629.199219 577.007812 C 627.558594 579.066406 625.824219 580.976562 624.003906 582.6875 C 620.652344 585.835938 616.371094 588.222656 611.777344 588.410156 C 608.734375 588.535156 605.148438 587.160156 604.539062 584.175781 C 604.269531 582.835938 604.664062 581.457031 605.15625 580.183594 Z M 605.160156 580.183594 " fill-opacity="1" fill-rule="nonzero"/></g><path fill="#ff0b06" d="M 2046.261719 2697.792969 C 2044.644531 2691.800781 2040.539062 2682.03125 2030.347656 2675.734375 C 2014.574219 2664.0625 1996.109375 2673.714844 1995.925781 2673.8125 C 1995.351562 2674.132812 1994.664062 2674.125 1994.089844 2673.820312 C 1988.855469 2671.019531 1979.171875 2666.964844 1967.042969 2666.964844 C 1964.125 2666.964844 1961.070312 2667.199219 1957.894531 2667.738281 C 1944.648438 2670 1933.007812 2676.996094 1923.300781 2688.535156 C 1909.164062 2705.289062 1907.699219 2725.152344 1908.429688 2737.058594 C 1913.203125 2724.414062 1922.53125 2705.402344 1938.246094 2694.183594 C 1942.144531 2691.398438 1948.554688 2687.660156 1956.984375 2685.695312 C 1961.207031 2684.699219 1973.976562 2681.757812 1982.308594 2688.664062 C 1983.121094 2689.339844 1983.242188 2690.554688 1982.574219 2691.382812 C 1980.21875 2694.304688 1976.277344 2700.449219 1976.382812 2708.707031 C 1976.429688 2712.558594 1977.410156 2716.546875 1979.132812 2719.933594 C 1981.300781 2724.164062 1984.277344 2727.066406 1986.957031 2728.996094 C 1987.398438 2725.097656 1988.40625 2721.324219 1989.972656 2717.746094 C 1991.40625 2714.457031 1993.28125 2711.382812 1995.5625 2708.601562 C 1995.949219 2708.121094 1996.535156 2707.925781 1997.15625 2707.886719 C 2003.773438 2708.199219 2010.296875 2710.074219 2016.03125 2713.296875 C 2021.699219 2716.496094 2025.804688 2720.503906 2028.707031 2724.234375 C 2028.464844 2718.65625 2027.324219 2713.226562 2025.304688 2708.03125 C 2023.335938 2702.949219 2020.554688 2698.226562 2017.046875 2693.988281 C 2016.589844 2693.449219 2016.476562 2692.699219 2016.734375 2692.042969 C 2016.984375 2691.382812 2017.585938 2690.921875 2018.285156 2690.820312 C 2022.765625 2690.222656 2027.238281 2690.382812 2031.601562 2691.308594 C 2037.691406 2692.597656 2042.582031 2695.164062 2046.257812 2697.792969 Z M 2046.261719 2697.792969 " fill-opacity="1" fill-rule="nonzero"/><path fill="#ff0b06" d="M 1874.457031 2694.183594 C 1890.199219 2705.433594 1899.511719 2724.429688 1904.273438 2737.066406 C 1905.011719 2725.175781 1903.570312 2705.328125 1889.402344 2688.535156 C 1879.671875 2676.996094 1868.03125 2670 1854.796875 2667.738281 C 1838.429688 2664.949219 1825.101562 2670.34375 1818.605469 2673.820312 C 1818.027344 2674.125 1817.34375 2674.132812 1816.769531 2673.8125 C 1816.585938 2673.722656 1798.144531 2664.0625 1782.476562 2675.644531 C 1772.128906 2682.046875 1768.019531 2691.738281 1766.402344 2697.816406 C 1770.09375 2695.179688 1775 2692.597656 1781.09375 2691.304688 C 1785.453125 2690.378906 1789.933594 2690.21875 1794.40625 2690.820312 C 1795.105469 2690.917969 1795.707031 2691.382812 1795.957031 2692.042969 C 1796.214844 2692.695312 1796.101562 2693.449219 1795.644531 2693.988281 C 1792.152344 2698.21875 1789.371094 2702.941406 1787.398438 2708.03125 C 1785.398438 2713.15625 1784.253906 2718.664062 1784 2724.214844 C 1786.902344 2720.492188 1791.003906 2716.484375 1796.664062 2713.292969 C 1802.398438 2710.066406 1808.929688 2708.199219 1815.539062 2707.886719 C 1816.105469 2707.917969 1816.738281 2708.121094 1817.132812 2708.601562 C 1819.410156 2711.378906 1821.285156 2714.457031 1822.722656 2717.746094 C 1824.289062 2721.324219 1825.296875 2725.097656 1825.738281 2729 C 1828.425781 2727.070312 1831.402344 2724.171875 1833.566406 2719.933594 C 1834.5625 2717.972656 1836.242188 2713.917969 1836.308594 2708.707031 C 1836.421875 2700.457031 1832.472656 2694.3125 1830.121094 2691.378906 C 1829.453125 2690.554688 1829.574219 2689.339844 1830.386719 2688.660156 C 1834.5625 2685.199219 1839.84375 2684.210938 1844.597656 2684.210938 C 1849.351562 2684.210938 1853.597656 2685.199219 1855.695312 2685.683594 C 1862.363281 2687.25 1868.839844 2690.179688 1874.457031 2694.183594 Z M 1874.457031 2694.183594 " fill-opacity="1" fill-rule="nonzero"/><path fill="#ff0b06" d="M 2093.550781 2720.753906 C 2091.6875 2718.101562 2089.746094 2715.640625 2087.761719 2713.429688 C 2077.273438 2701.679688 2061.726562 2691.792969 2045.960938 2686.746094 C 2049.917969 2693.890625 2050.941406 2700.570312 2051.136719 2702.511719 C 2051.214844 2703.316406 2050.789062 2704.089844 2050.058594 2704.453125 C 2049.335938 2704.796875 2048.457031 2704.675781 2047.871094 2704.128906 C 2044.484375 2700.945312 2038.78125 2696.796875 2030.796875 2695.105469 C 2028.003906 2694.511719 2025.152344 2694.292969 2022.269531 2694.375 C 2025.011719 2698.171875 2027.242188 2702.273438 2028.9375 2706.617188 C 2031.898438 2714.242188 2033.097656 2722.324219 2032.492188 2730.632812 C 2032.429688 2731.492188 2031.816406 2732.207031 2030.980469 2732.394531 C 2030.144531 2732.585938 2029.277344 2732.199219 2028.859375 2731.457031 C 2026.421875 2727.132812 2021.890625 2721.058594 2014.117188 2716.683594 C 2009.203125 2713.917969 2003.636719 2712.246094 1997.953125 2711.828125 C 1996.175781 2714.128906 1994.695312 2716.636719 1993.542969 2719.296875 C 1991.734375 2723.433594 1990.746094 2727.855469 1990.609375 2732.433594 C 1990.585938 2733.113281 1990.214844 2733.726562 1989.628906 2734.0625 C 1989.027344 2734.402344 1988.324219 2734.402344 1987.722656 2734.078125 C 1985.484375 2732.835938 1982.742188 2730.820312 1980.160156 2728.011719 C 1979.496094 2731.28125 1978.992188 2734.511719 1978.828125 2737.578125 C 1978.355469 2746.457031 1980.011719 2753.800781 1980.902344 2757.75 C 1985.003906 2776.042969 1993.867188 2788.269531 1998.132812 2794.148438 L 1999.191406 2795.621094 C 2019.195312 2823.875 2012.398438 2868.527344 2009.832031 2881.539062 C 2004.550781 2908.339844 1990.289062 2921.722656 1973.785156 2937.210938 C 1957.699219 2952.308594 1939.46875 2969.414062 1924.195312 3003.296875 C 1910.53125 3033.632812 1907.152344 3059.097656 1909.191406 3062.964844 C 1910.734375 3062.03125 1914.28125 3057.148438 1917.722656 3052.414062 C 1925.515625 3041.699219 1937.289062 3025.496094 1956.648438 3007.101562 C 1979.507812 2985.378906 1989.445312 2979.597656 2005.917969 2970.023438 C 2012.738281 2966.054688 2020.46875 2961.566406 2030.792969 2955.019531 C 2065.03125 2933.3125 2090.195312 2898.5625 2103.554688 2854.535156 C 2111.164062 2829.445312 2125.421875 2766.199219 2093.542969 2720.75 Z M 2022.5 2796.828125 C 2021.746094 2797.457031 2020.65625 2797.488281 2019.6875 2797.320312 C 2016.519531 2796.761719 2013.945312 2794.488281 2011.757812 2792.132812 C 2003.917969 2783.699219 1996.054688 2771.132812 1993.109375 2759.125 C 1992.609375 2757.085938 1992.25 2755.058594 1992.058594 2753.074219 C 1991.703125 2749.429688 1992.285156 2745.5625 1994.402344 2742.570312 C 1995.804688 2740.589844 1998.425781 2738.996094 2000.601562 2740.066406 C 2001.578125 2740.550781 2002.257812 2741.472656 2002.820312 2742.402344 C 2005.164062 2746.277344 2006.171875 2750.785156 2007.40625 2755.140625 C 2009.488281 2762.492188 2012.300781 2769.636719 2015.789062 2776.433594 C 2018.519531 2781.75 2021.695312 2786.9375 2023.121094 2792.742188 C 2023.46875 2794.152344 2023.613281 2795.890625 2022.5 2796.824219 Z M 2022.5 2796.828125 " fill-opacity="1" fill-rule="nonzero"/><path fill="#ff0b06" d="M 1888.5 3003.296875 C 1873.226562 2969.417969 1854.996094 2952.3125 1838.917969 2937.21875 C 1822.40625 2921.726562 1808.148438 2908.34375 1802.871094 2881.554688 C 1800.300781 2868.519531 1793.496094 2823.867188 1813.503906 2795.621094 L 1814.542969 2794.179688 C 1818.8125 2788.300781 1827.683594 2776.070312 1831.800781 2757.75 C 1832.6875 2753.800781 1834.34375 2746.457031 1833.867188 2737.578125 C 1833.703125 2734.511719 1833.195312 2731.285156 1832.535156 2728.019531 C 1829.953125 2730.828125 1827.210938 2732.839844 1824.972656 2734.078125 C 1824.371094 2734.402344 1823.667969 2734.402344 1823.066406 2734.0625 C 1822.480469 2733.726562 1822.109375 2733.113281 1822.085938 2732.433594 C 1821.949219 2727.855469 1820.960938 2723.433594 1819.152344 2719.296875 C 1818 2716.636719 1816.519531 2714.132812 1814.742188 2711.828125 C 1809.066406 2712.246094 1803.5 2713.917969 1798.570312 2716.683594 C 1790.816406 2721.058594 1786.28125 2727.125 1783.84375 2731.457031 C 1783.421875 2732.183594 1782.597656 2732.5625 1781.722656 2732.394531 C 1780.886719 2732.207031 1780.273438 2731.492188 1780.210938 2730.640625 C 1779.601562 2722.46875 1780.832031 2714.167969 1783.765625 2706.617188 C 1785.460938 2702.265625 1787.691406 2698.164062 1790.425781 2694.375 C 1787.546875 2694.289062 1784.699219 2694.511719 1781.898438 2695.105469 C 1773.9375 2696.796875 1768.21875 2700.945312 1764.824219 2704.128906 C 1764.238281 2704.675781 1763.351562 2704.8125 1762.628906 2704.445312 C 1761.898438 2704.089844 1761.472656 2703.316406 1761.558594 2702.503906 C 1761.761719 2700.5625 1762.808594 2693.882812 1766.78125 2686.730469 C 1751.003906 2691.773438 1735.4375 2701.667969 1724.933594 2713.429688 C 1722.945312 2715.65625 1721 2718.117188 1719.152344 2720.753906 C 1687.269531 2766.210938 1701.535156 2829.457031 1709.144531 2854.535156 C 1722.496094 2898.558594 1747.652344 2933.308594 1781.898438 2955.023438 C 1792.222656 2961.570312 1799.953125 2966.058594 1806.773438 2970.023438 C 1823.246094 2979.601562 1833.183594 2985.382812 1856.042969 3007.105469 C 1875.398438 3025.492188 1887.171875 3041.695312 1894.964844 3052.410156 C 1898.410156 3057.144531 1901.964844 3062.035156 1903.507812 3062.96875 C 1905.542969 3059.101562 1902.15625 3033.628906 1888.5 3003.300781 Z M 1756.550781 2719.265625 C 1754.503906 2724.558594 1750.800781 2729.015625 1747.421875 2733.578125 C 1741.71875 2741.277344 1736.78125 2749.550781 1732.710938 2758.222656 C 1729.527344 2765.007812 1726.8125 2772.136719 1722.144531 2778 C 1721.011719 2779.429688 1719.394531 2780.902344 1717.613281 2780.511719 C 1716.410156 2780.25 1715.542969 2779.191406 1714.96875 2778.101562 C 1713.09375 2774.527344 1713.378906 2770.230469 1714.039062 2766.25 C 1716.40625 2752.007812 1722.851562 2734.566406 1732.511719 2722.4375 C 1734.152344 2720.378906 1735.886719 2718.46875 1737.707031 2716.757812 C 1741.058594 2713.609375 1745.339844 2711.226562 1749.933594 2711.035156 C 1752.976562 2710.910156 1756.5625 2712.285156 1757.171875 2715.273438 C 1757.445312 2716.609375 1757.046875 2717.992188 1756.554688 2719.261719 Z M 1756.550781 2719.265625 " fill-opacity="1" fill-rule="nonzero"/></svg>