<svg xmlns="http://www.w3.org/2000/svg" xmlns:xlink="http://www.w3.org/1999/xlink" width="3150" zoomAndPan="magnify" viewBox="0 0 2362.5 3299.999941" height="4400" preserveAspectRatio="xMidYMid meet" version="1.0"><defs><clipPath id="7fc0f02945"><path d="M 0 0.347656 L 2362 0.347656 L 2362 3299.648438 L 0 3299.648438 Z M 0 0.347656 " clip-rule="nonzero"/></clipPath><clipPath id="2ca7365da5"><path d="M 136.871094 131.574219 L 2225.164062 131.574219 L 2225.164062 3167 L 136.871094 3167 Z M 136.871094 131.574219 " clip-rule="nonzero"/></clipPath><clipPath id="c51987dc6f"><path d="M 249.347656 131.574219 L 2112.6875 131.574219 C 2174.804688 131.574219 2225.164062 181.929688 2225.164062 244.050781 L 2225.164062 3055.902344 C 2225.164062 3118.023438 2174.804688 3168.378906 2112.6875 3168.378906 L 249.347656 3168.378906 C 187.230469 3168.378906 136.871094 3118.023438 136.871094 3055.902344 L 136.871094 244.050781 C 136.871094 181.929688 187.230469 131.574219 249.347656 131.574219 Z M 249.347656 131.574219 " clip-rule="nonzero"/></clipPath><clipPath id="fd4f4ef579"><path d="M 1672 2713.53125 L 1933.78125 2713.53125 L 1933.78125 3013.46875 L 1672 3013.46875 Z M 1672 2713.53125 " clip-rule="nonzero"/></clipPath><clipPath id="e8c5ca41d5"><path d="M 1836 2807 L 1933.78125 2807 L 1933.78125 3005 L 1836 3005 Z M 1836 2807 " clip-rule="nonzero"/></clipPath><clipPath id="f18ee9b375"><path d="M 2037 2669.453125 L 2112.835938 2669.453125 L 2112.835938 2828 L 2037 2828 Z M 2037 2669.453125 " clip-rule="nonzero"/></clipPath><clipPath id="bccfce48b0"><path d="M 1626 2781 L 2112.835938 2781 L 2112.835938 3059 L 1626 3059 Z M 1626 2781 " clip-rule="nonzero"/></clipPath><clipPath id="310ec1301e"><path d="M 427.964844 285.902344 L 689 285.902344 L 689 585.839844 L 427.964844 585.839844 Z M 427.964844 285.902344 " clip-rule="nonzero"/></clipPath><clipPath id="b86cb2d26e"><path d="M 427.964844 295 L 525 295 L 525 492 L 427.964844 492 Z M 427.964844 295 " clip-rule="nonzero"/></clipPath><clipPath id="f039710b8c"><path d="M 249.089844 472 L 325 472 L 325 630 L 249.089844 630 Z M 249.089844 472 " clip-rule="nonzero"/></clipPath><clipPath id="79ce6ec8e2"><path d="M 249.089844 241 L 736 241 L 736 519 L 249.089844 519 Z M 249.089844 241 " clip-rule="nonzero"/></clipPath></defs><g clip-path="url(#7fc0f02945)"><path fill="#ffffff" d="M 0 0.347656 L 2362 0.347656 L 2362 3299.652344 L 0 3299.652344 Z M 0 0.347656 " fill-opacity="1" fill-rule="nonzero"/><path fill="#d80400" d="M 0 0.347656 L 2362 0.347656 L 2362 3299.652344 L 0 3299.652344 Z M 0 0.347656 " fill-opacity="1" fill-rule="nonzero"/></g><g clip-path="url(#2ca7365da5)"><g clip-path="url(#c51987dc6f)"><path fill="#ffffff" d="M 136.871094 131.574219 L 2225.164062 131.574219 L 2225.164062 3166.121094 L 136.871094 3166.121094 Z M 136.871094 131.574219 " fill-opacity="1" fill-rule="nonzero"/></g></g><g clip-path="url(#fd4f4ef579)"><path fill="#ff0b06" d="M 1919.121094 2766.222656 L 1817.054688 2717.746094 C 1811.179688 2714.957031 1804.886719 2713.53125 1798.382812 2713.53125 C 1787.429688 2713.53125 1776.921875 2717.628906 1768.875 2725.050781 L 1689.878906 2797.75 C 1677.855469 2808.824219 1671.53125 2825.183594 1672.988281 2841.449219 L 1680.734375 2927.988281 C 1682.070312 2942.890625 1690.800781 2955.921875 1704.097656 2962.808594 L 1802.273438 3013.605469 C 1808.746094 3016.957031 1816.015625 3018.738281 1823.289062 3018.738281 C 1836.117188 3018.738281 1848.433594 3013.308594 1857.105469 3003.867188 L 1921.464844 2933.507812 C 1930.191406 2923.980469 1935.566406 2911.628906 1936.605469 2898.777344 L 1943.878906 2809.121094 C 1945.304688 2791.160156 1935.359375 2773.941406 1919.121094 2766.222656 Z M 1919.121094 2766.222656 " fill-opacity="1" fill-rule="nonzero"/></g><path fill="#ffffff" d="M 1695.964844 2827.972656 L 1808.921875 2885.683594 C 1823.527344 2893.136719 1841.339844 2889.898438 1852.355469 2877.757812 L 1925.472656 2797.1875 C 1932.417969 2789.527344 1929.984375 2777.296875 1920.605469 2772.933594 L 1812.574219 2722.40625 C 1799.570312 2716.320312 1784.191406 2718.695312 1773.625 2728.402344 L 1692.550781 2802.886719 C 1684.652344 2810.160156 1686.40625 2823.074219 1695.964844 2827.972656 Z M 1695.964844 2827.972656 " fill-opacity="1" fill-rule="nonzero"/><g clip-path="url(#e8c5ca41d5)"><path fill="#ffffff" d="M 1925.292969 2810.21875 L 1852.355469 2891.144531 C 1843.746094 2900.703125 1838.816406 2913.054688 1838.550781 2925.9375 L 1836.976562 2995.316406 C 1836.796875 3003.273438 1846.566406 3007.191406 1851.9375 3001.3125 L 1916.566406 2930.6875 C 1924.613281 2921.902344 1929.539062 2910.710938 1930.546875 2898.835938 L 1937.734375 2815.621094 C 1938.328125 2808.796875 1929.894531 2805.113281 1925.292969 2810.21875 Z M 1925.292969 2810.21875 " fill-opacity="1" fill-rule="nonzero"/></g><path fill="#ffffff" d="M 1808.386719 2895.570312 L 1696.824219 2836.96875 C 1688.511719 2832.605469 1678.6875 2839.136719 1679.457031 2848.484375 L 1686.109375 2927.75 C 1687.148438 2940.128906 1694.480469 2951.113281 1705.523438 2956.78125 L 1807.617188 3009.359375 C 1816.90625 3014.136719 1827.980469 3007.519531 1828.128906 2997.066406 L 1829.257812 2930.835938 C 1829.523438 2916.082031 1821.449219 2902.425781 1808.386719 2895.570312 Z M 1808.386719 2895.570312 " fill-opacity="1" fill-rule="nonzero"/><path fill="#ff0b06" d="M 1753.792969 2808.972656 C 1753.289062 2818.265625 1743.195312 2825.332031 1731.203125 2824.707031 C 1719.210938 2824.054688 1709.917969 2816.039062 1710.390625 2806.71875 C 1710.511719 2804.640625 1711.105469 2802.648438 1712.113281 2800.839844 C 1715.527344 2794.632812 1723.691406 2790.507812 1732.984375 2791.011719 C 1741.652344 2791.457031 1748.925781 2795.792969 1752.101562 2801.671875 C 1753.289062 2803.925781 1753.914062 2806.390625 1753.792969 2808.972656 Z M 1753.792969 2808.972656 " fill-opacity="1" fill-rule="nonzero"/><path fill="#ff0b06" d="M 1801.054688 2831.800781 C 1800.550781 2841.539062 1789.953125 2848.902344 1777.425781 2848.25 C 1764.867188 2847.59375 1755.101562 2839.164062 1755.632812 2829.398438 C 1755.753906 2827.320312 1756.316406 2825.359375 1757.238281 2823.578125 C 1760.742188 2816.898438 1769.378906 2812.445312 1779.265625 2812.953125 C 1788.46875 2813.457031 1796.214844 2818.144531 1799.421875 2824.46875 C 1800.609375 2826.753906 1801.203125 2829.21875 1801.054688 2831.800781 Z M 1801.054688 2831.800781 " fill-opacity="1" fill-rule="nonzero"/><path fill="#ff0b06" d="M 1850.097656 2855.90625 C 1849.59375 2865.4375 1838.609375 2872.5625 1825.546875 2871.878906 C 1812.484375 2871.195312 1802.300781 2862.945312 1802.808594 2853.445312 C 1802.925781 2851.367188 1803.550781 2849.347656 1804.589844 2847.566406 C 1808.238281 2841.183594 1817.175781 2836.9375 1827.359375 2837.472656 C 1836.886719 2837.976562 1844.902344 2842.519531 1848.316406 2848.632812 C 1849.59375 2850.859375 1850.246094 2853.324219 1850.097656 2855.90625 Z M 1850.097656 2855.90625 " fill-opacity="1" fill-rule="nonzero"/><path fill="#ff0b06" d="M 1815.453125 2750.875 C 1815.007812 2759.605469 1805.507812 2766.195312 1794.285156 2765.601562 C 1783.066406 2765.007812 1774.335938 2757.464844 1774.78125 2748.738281 C 1774.902344 2746.601562 1775.554688 2744.613281 1776.59375 2742.832031 C 1779.949219 2737.21875 1787.429688 2733.570312 1795.949219 2733.984375 C 1803.847656 2734.398438 1810.527344 2738.289062 1813.640625 2743.574219 C 1814.917969 2745.828125 1815.570312 2748.292969 1815.453125 2750.875 Z M 1815.453125 2750.875 " fill-opacity="1" fill-rule="nonzero"/><path fill="#ff0b06" d="M 1859.804688 2772.28125 C 1859.332031 2781.425781 1849.386719 2788.3125 1837.628906 2787.6875 C 1825.84375 2787.0625 1816.699219 2779.167969 1817.203125 2770.023438 C 1817.324219 2767.917969 1817.917969 2765.925781 1818.925781 2764.144531 C 1822.339844 2758.121094 1830.296875 2754.140625 1839.351562 2754.617188 C 1847.8125 2755.0625 1854.90625 2759.277344 1858.054688 2764.976562 C 1859.300781 2767.234375 1859.925781 2769.699219 1859.804688 2772.28125 Z M 1859.804688 2772.28125 " fill-opacity="1" fill-rule="nonzero"/><path fill="#ff0b06" d="M 1905.761719 2794.871094 C 1905.285156 2803.777344 1894.984375 2810.488281 1882.753906 2809.863281 C 1870.492188 2809.210938 1860.964844 2801.460938 1861.4375 2792.554688 C 1861.558594 2790.417969 1862.210938 2788.429688 1863.339844 2786.617188 C 1866.929688 2780.859375 1875.125 2777.089844 1884.445312 2777.566406 C 1893.171875 2778.011719 1900.535156 2782.078125 1903.859375 2787.597656 C 1905.226562 2789.855469 1905.910156 2792.320312 1905.761719 2794.871094 Z M 1905.761719 2794.871094 " fill-opacity="1" fill-rule="nonzero"/><path fill="#ff0b06" d="M 1728.027344 2898.449219 C 1722.773438 2902.722656 1711.816406 2897.914062 1703.476562 2887.730469 C 1695.164062 2877.550781 1692.667969 2865.824219 1697.921875 2861.546875 C 1698.488281 2861.101562 1699.050781 2860.746094 1699.734375 2860.507812 C 1705.40625 2858.34375 1714.992188 2863.152344 1722.445312 2872.292969 C 1726.957031 2877.847656 1729.777344 2883.84375 1730.550781 2888.859375 C 1731.203125 2892.988281 1730.429688 2896.488281 1728.027344 2898.449219 Z M 1728.027344 2898.449219 " fill-opacity="1" fill-rule="nonzero"/><path fill="#ff0b06" d="M 1805.835938 2986.441406 C 1800.730469 2990.625 1789.980469 2985.933594 1781.878906 2975.960938 C 1773.773438 2966.015625 1771.339844 2954.558594 1776.445312 2950.402344 C 1777.007812 2949.957031 1777.632812 2949.570312 1778.316406 2949.332031 C 1783.867188 2947.3125 1793.160156 2952.003906 1800.371094 2960.851562 C 1804.738281 2966.195312 1807.4375 2971.953125 1808.238281 2976.792969 C 1808.953125 2981.007812 1808.210938 2984.511719 1805.835938 2986.441406 Z M 1805.835938 2986.441406 " fill-opacity="1" fill-rule="nonzero"/><path fill="#ff0b06" d="M 1920.988281 2860.804688 C 1915.261719 2873.007812 1906.949219 2881.171875 1902.40625 2879.035156 C 1899.941406 2877.875 1899.109375 2873.957031 1899.734375 2868.671875 C 1900.296875 2864.160156 1901.902344 2858.699219 1904.542969 2853.085938 C 1910.273438 2840.886719 1918.585938 2832.722656 1923.128906 2834.859375 C 1923.484375 2835.039062 1923.78125 2835.246094 1924.078125 2835.511719 C 1927.492188 2838.777344 1926.273438 2849.523438 1920.988281 2860.804688 Z M 1920.988281 2860.804688 " fill-opacity="1" fill-rule="nonzero"/><path fill="#ff0b06" d="M 1868.265625 2963.375 C 1863.21875 2974.089844 1855.917969 2981.304688 1851.910156 2979.433594 C 1849.621094 2978.367188 1848.941406 2974.507812 1849.710938 2969.398438 C 1850.277344 2965.628906 1851.640625 2961.148438 1853.808594 2956.574219 C 1858.855469 2945.828125 1866.160156 2938.644531 1870.164062 2940.515625 C 1870.34375 2940.605469 1870.523438 2940.691406 1870.671875 2940.8125 C 1874.085938 2943.335938 1873.074219 2953.132812 1868.265625 2963.375 Z M 1868.265625 2963.375 " fill-opacity="1" fill-rule="nonzero"/><path fill="#ff0b06" d="M 1917.785156 2909.375 C 1912.738281 2920.121094 1905.402344 2927.304688 1901.425781 2925.433594 C 1899.140625 2924.367188 1898.457031 2920.507812 1899.199219 2915.398438 C 1899.761719 2911.628906 1901.1875 2907.148438 1903.324219 2902.574219 C 1908.371094 2891.828125 1915.675781 2884.644531 1919.683594 2886.515625 C 1919.863281 2886.605469 1920.039062 2886.691406 1920.1875 2886.8125 C 1923.601562 2889.335938 1922.59375 2899.132812 1917.785156 2909.375 Z M 1917.785156 2909.375 " fill-opacity="1" fill-rule="nonzero"/><path fill="#ff0b06" d="M 1873.460938 2916.5 C 1867.820312 2928.492188 1859.628906 2936.507812 1855.175781 2934.429688 C 1852.738281 2933.300781 1851.9375 2929.382812 1852.589844 2924.097656 C 1853.15625 2919.703125 1854.730469 2914.359375 1857.3125 2908.929688 C 1862.921875 2896.933594 1871.117188 2888.890625 1875.570312 2890.96875 C 1875.894531 2891.117188 1876.164062 2891.324219 1876.429688 2891.5625 C 1879.875 2894.707031 1878.6875 2905.335938 1873.460938 2916.5 Z M 1873.460938 2916.5 " fill-opacity="1" fill-rule="nonzero"/><g clip-path="url(#f18ee9b375)"><path fill="#ff0b06" d="M 2121.972656 2796.859375 C 2125.328125 2772.601562 2103.699219 2758.167969 2103.480469 2758.015625 C 2102.753906 2757.542969 2102.335938 2756.707031 2102.390625 2755.824219 C 2102.402344 2755.570312 2104.003906 2729.996094 2100.222656 2712.394531 C 2097.738281 2700.878906 2093.746094 2689.707031 2088.34375 2679.164062 C 2085.53125 2673.660156 2079.785156 2670.105469 2073.359375 2669.886719 C 2059.917969 2669.414062 2051.125 2672.816406 2047.21875 2674.804688 C 2071.890625 2702.964844 2078.808594 2749.164062 2079.09375 2751.164062 C 2079.207031 2751.941406 2078.941406 2752.71875 2078.382812 2753.257812 C 2077.824219 2753.808594 2077.046875 2754.0625 2076.269531 2753.902344 C 2071.652344 2753.085938 2062.554688 2752.441406 2053.585938 2757.484375 C 2047.898438 2760.6875 2044.480469 2764.953125 2042.941406 2767.210938 C 2039.597656 2772.109375 2038.203125 2777.105469 2037.691406 2781.210938 C 2042.214844 2779.363281 2046.945312 2778.214844 2051.8125 2777.777344 C 2056.242188 2777.390625 2060.742188 2777.589844 2065.167969 2778.421875 C 2065.929688 2778.5625 2066.574219 2779.058594 2066.90625 2779.75 C 2070.523438 2787.191406 2072.382812 2795.457031 2072.28125 2803.644531 C 2072.175781 2811.761719 2070.242188 2818.648438 2067.902344 2824.054688 C 2073.84375 2820.453125 2079.179688 2815.902344 2083.597656 2810.660156 C 2087.984375 2805.457031 2091.492188 2799.589844 2094.03125 2793.222656 C 2094.363281 2792.40625 2095.105469 2791.828125 2095.976562 2791.714844 C 2096.082031 2791.707031 2096.183594 2791.695312 2096.289062 2791.695312 C 2097.058594 2791.695312 2097.777344 2792.058594 2098.242188 2792.683594 C 2101.578125 2797.214844 2104.078125 2802.207031 2105.679688 2807.542969 C 2107.917969 2815.023438 2108.023438 2821.933594 2107.339844 2827.542969 C 2113.027344 2822.167969 2121.167969 2811.921875 2121.972656 2796.863281 Z M 2121.972656 2796.859375 " fill-opacity="1" fill-rule="nonzero"/></g><g clip-path="url(#bccfce48b0)"><path fill="#ff0b06" d="M 2120.710938 2818.136719 C 2115.066406 2828.238281 2107.28125 2834.140625 2105.089844 2835.640625 C 2104.675781 2835.925781 2104.199219 2836.070312 2103.71875 2836.070312 C 2103.234375 2836.070312 2102.742188 2835.925781 2102.324219 2835.632812 C 2101.488281 2835.042969 2101.109375 2834.011719 2101.367188 2833.027344 C 2102.824219 2827.421875 2103.964844 2818.695312 2101.035156 2808.941406 C 2100 2805.507812 2098.5625 2802.242188 2096.730469 2799.160156 C 2094.21875 2804.429688 2091.0625 2809.328125 2087.308594 2813.785156 C 2080.804688 2821.5 2072.4375 2827.820312 2063.128906 2832.050781 C 2062.164062 2832.503906 2060.996094 2832.25 2060.296875 2831.445312 C 2059.59375 2830.636719 2059.5 2829.460938 2060.066406 2828.554688 C 2063.347656 2823.3125 2067.28125 2814.714844 2067.421875 2803.585938 C 2067.507812 2796.546875 2066.011719 2789.457031 2063.0625 2782.992188 C 2059.46875 2782.414062 2055.832031 2782.292969 2052.25 2782.613281 C 2046.621094 2783.117188 2041.1875 2784.679688 2036.109375 2787.257812 C 2035.347656 2787.648438 2034.476562 2787.601562 2033.730469 2787.164062 C 2033.019531 2786.71875 2032.570312 2785.929688 2032.582031 2785.078125 C 2032.585938 2783.859375 2032.671875 2782.472656 2032.835938 2781.003906 C 2029.800781 2782.058594 2026.796875 2783.289062 2023.851562 2784.699219 C 2016.132812 2788.40625 2009.332031 2793.078125 2003.054688 2798.976562 L 2003.054688 2798.984375 C 1993.652344 2807.828125 1985.605469 2818.464844 1977.824219 2828.738281 C 1959.664062 2852.746094 1940.878906 2877.558594 1904.328125 2878.972656 C 1896.6875 2879.210938 1889.011719 2878.460938 1881.589844 2877.683594 C 1871.410156 2876.613281 1861.816406 2875.609375 1852.21875 2877.144531 C 1824.664062 2881.53125 1805.554688 2904.382812 1785.175781 2931.570312 C 1765.460938 2957.84375 1743.074219 2982.484375 1713.039062 2984.808594 C 1688.621094 2986.742188 1666.355469 2972.4375 1652.015625 2960.144531 L 1650.859375 2959.148438 C 1647.078125 2955.878906 1643.511719 2952.800781 1639.199219 2951.3125 C 1637.542969 2950.742188 1635.988281 2950.460938 1634.566406 2950.460938 C 1632.117188 2950.460938 1630.0625 2951.285156 1628.554688 2952.90625 C 1625.890625 2955.777344 1625.484375 2960.679688 1627.511719 2965.398438 C 1642.402344 3000.042969 1668.078125 3029.09375 1697.964844 3045.121094 C 1729.992188 3062.304688 1768.671875 3063.101562 1796.492188 3047.160156 C 1809.144531 3039.910156 1819.847656 3029.644531 1830.195312 3019.71875 C 1837.457031 3012.75 1844.960938 3005.546875 1853.171875 2999.332031 C 1877.796875 2980.714844 1902.589844 2980.089844 1932.277344 2984.933594 C 2004.769531 2996.789062 2084.300781 2949.058594 2113.285156 2876.367188 C 2117.320312 2866.246094 2125.773438 2840.933594 2120.703125 2818.144531 Z M 2042.042969 2806.71875 C 2038.910156 2811.421875 2034.363281 2814.953125 2030.097656 2818.660156 C 2022.902344 2824.917969 2016.328125 2831.890625 2010.507812 2839.445312 C 2005.957031 2845.351562 2001.785156 2851.695312 1995.996094 2856.390625 C 1994.582031 2857.535156 1992.699219 2858.617188 1991.050781 2857.855469 C 1989.9375 2857.34375 1989.324219 2856.128906 1989.003906 2854.945312 C 1987.949219 2851.070312 1989.144531 2846.957031 1990.644531 2843.230469 C 1996.003906 2829.898438 2006.011719 2814.34375 2018.003906 2804.632812 C 2020.039062 2802.984375 2022.132812 2801.503906 2024.273438 2800.230469 C 2028.203125 2797.890625 2032.875 2796.496094 2037.378906 2797.296875 C 2040.363281 2797.832031 2043.554688 2799.9375 2043.5 2802.96875 C 2043.476562 2804.328125 2042.796875 2805.582031 2042.042969 2806.714844 Z M 2042.042969 2806.71875 " fill-opacity="1" fill-rule="nonzero"/></g><g clip-path="url(#310ec1301e)"><path fill="#ff0b06" d="M 442.628906 533.144531 L 544.691406 581.621094 C 550.570312 584.414062 556.863281 585.839844 563.363281 585.839844 C 574.320312 585.839844 584.828125 581.742188 592.871094 574.320312 L 671.867188 501.617188 C 683.890625 490.542969 690.214844 474.1875 688.761719 457.917969 L 681.011719 371.382812 C 679.675781 356.480469 670.949219 343.445312 657.648438 336.558594 L 559.476562 285.765625 C 553.003906 282.410156 545.730469 280.628906 538.457031 280.628906 C 525.632812 280.628906 513.3125 286.0625 504.644531 295.503906 L 440.28125 365.859375 C 431.554688 375.390625 426.183594 387.738281 425.144531 400.59375 L 417.871094 490.246094 C 416.445312 508.207031 426.390625 525.425781 442.628906 533.144531 Z M 442.628906 533.144531 " fill-opacity="1" fill-rule="nonzero"/></g><path fill="#ffffff" d="M 665.78125 471.394531 L 552.824219 413.683594 C 538.21875 406.234375 520.40625 409.46875 509.394531 421.613281 L 436.273438 502.179688 C 429.328125 509.839844 431.761719 522.070312 441.144531 526.433594 L 549.175781 576.960938 C 562.175781 583.046875 577.554688 580.671875 588.121094 570.964844 L 669.195312 496.480469 C 677.09375 489.207031 675.34375 476.292969 665.78125 471.394531 Z M 665.78125 471.394531 " fill-opacity="1" fill-rule="nonzero"/><g clip-path="url(#b86cb2d26e)"><path fill="#ffffff" d="M 436.453125 489.148438 L 509.394531 408.222656 C 518.003906 398.664062 522.929688 386.3125 523.199219 373.429688 L 524.769531 304.050781 C 524.949219 296.097656 515.183594 292.175781 509.808594 298.054688 L 445.179688 368.679688 C 437.136719 377.46875 432.207031 388.660156 431.199219 400.535156 L 424.015625 483.746094 C 423.421875 490.574219 431.851562 494.253906 436.453125 489.148438 Z M 436.453125 489.148438 " fill-opacity="1" fill-rule="nonzero"/></g><path fill="#ffffff" d="M 553.359375 403.800781 L 664.921875 462.402344 C 673.234375 466.765625 683.0625 460.234375 682.289062 450.882812 L 675.640625 371.621094 C 674.601562 359.238281 667.265625 348.253906 656.222656 342.585938 L 554.132812 290.011719 C 544.839844 285.230469 533.765625 291.851562 533.617188 302.300781 L 532.488281 368.53125 C 532.222656 383.285156 540.296875 396.941406 553.359375 403.800781 Z M 553.359375 403.800781 " fill-opacity="1" fill-rule="nonzero"/><path fill="#ff0b06" d="M 607.953125 490.394531 C 608.457031 481.105469 618.550781 474.039062 630.546875 474.660156 C 642.539062 475.316406 651.832031 483.332031 651.355469 492.652344 C 651.238281 494.730469 650.644531 496.71875 649.632812 498.53125 C 646.21875 504.734375 638.054688 508.859375 628.765625 508.355469 C 620.09375 507.910156 612.820312 503.578125 609.644531 497.699219 C 608.457031 495.441406 607.835938 492.976562 607.953125 490.394531 Z M 607.953125 490.394531 " fill-opacity="1" fill-rule="nonzero"/><path fill="#ff0b06" d="M 560.691406 467.566406 C 561.195312 457.828125 571.796875 450.46875 584.324219 451.121094 C 596.878906 451.773438 606.648438 460.203125 606.113281 469.972656 C 605.996094 472.050781 605.429688 474.007812 604.511719 475.789062 C 601.007812 482.46875 592.367188 486.921875 582.480469 486.417969 C 573.28125 485.914062 565.53125 481.222656 562.324219 474.898438 C 561.136719 472.613281 560.542969 470.148438 560.691406 467.566406 Z M 560.691406 467.566406 " fill-opacity="1" fill-rule="nonzero"/><path fill="#ff0b06" d="M 511.648438 443.460938 C 512.15625 433.929688 523.136719 426.808594 536.199219 427.488281 C 549.261719 428.171875 559.445312 436.425781 558.941406 445.925781 C 558.820312 448.003906 558.199219 450.023438 557.160156 451.804688 C 553.507812 458.183594 544.574219 462.429688 534.390625 461.894531 C 524.859375 461.390625 516.84375 456.851562 513.429688 450.734375 C 512.15625 448.507812 511.5 446.042969 511.648438 443.460938 Z M 511.648438 443.460938 " fill-opacity="1" fill-rule="nonzero"/><path fill="#ff0b06" d="M 546.292969 548.492188 C 546.738281 539.765625 556.238281 533.175781 567.460938 533.769531 C 578.683594 534.363281 587.410156 541.902344 586.964844 550.628906 C 586.847656 552.765625 586.191406 554.757812 585.152344 556.539062 C 581.800781 562.148438 574.320312 565.800781 565.796875 565.382812 C 557.902344 564.96875 551.222656 561.078125 548.105469 555.796875 C 546.828125 553.539062 546.175781 551.074219 546.292969 548.492188 Z M 546.292969 548.492188 " fill-opacity="1" fill-rule="nonzero"/><path fill="#ff0b06" d="M 501.941406 527.089844 C 502.417969 517.945312 512.363281 511.058594 524.117188 511.679688 C 535.902344 512.304688 545.046875 520.199219 544.542969 529.34375 C 544.425781 531.453125 543.832031 533.441406 542.820312 535.222656 C 539.40625 541.25 531.449219 545.226562 522.394531 544.75 C 513.9375 544.304688 506.839844 540.089844 503.695312 534.390625 C 502.445312 532.136719 501.824219 529.671875 501.941406 527.089844 Z M 501.941406 527.089844 " fill-opacity="1" fill-rule="nonzero"/><path fill="#ff0b06" d="M 455.988281 504.496094 C 456.460938 495.589844 466.761719 488.882812 478.996094 489.503906 C 491.253906 490.15625 500.785156 497.90625 500.308594 506.8125 C 500.191406 508.949219 499.539062 510.9375 498.410156 512.75 C 494.816406 518.507812 486.625 522.277344 477.300781 521.804688 C 468.574219 521.359375 461.210938 517.292969 457.886719 511.769531 C 456.523438 509.515625 455.839844 507.050781 455.988281 504.496094 Z M 455.988281 504.496094 " fill-opacity="1" fill-rule="nonzero"/><path fill="#ff0b06" d="M 633.722656 400.917969 C 638.976562 396.644531 649.929688 401.453125 658.273438 411.636719 C 666.585938 421.820312 669.078125 433.546875 663.824219 437.820312 C 663.261719 438.265625 662.695312 438.621094 662.011719 438.859375 C 656.34375 441.027344 646.753906 436.21875 639.300781 427.074219 C 634.789062 421.523438 631.96875 415.527344 631.199219 410.507812 C 630.546875 406.382812 631.316406 402.878906 633.722656 400.917969 Z M 633.722656 400.917969 " fill-opacity="1" fill-rule="nonzero"/><path fill="#ff0b06" d="M 555.914062 312.929688 C 561.019531 308.742188 571.765625 313.433594 579.871094 323.40625 C 587.972656 333.351562 590.410156 344.8125 585.300781 348.96875 C 584.738281 349.414062 584.113281 349.800781 583.433594 350.035156 C 577.882812 352.054688 568.589844 347.363281 561.375 338.519531 C 557.011719 333.175781 554.308594 327.414062 553.507812 322.578125 C 552.796875 318.359375 553.539062 314.859375 555.914062 312.929688 Z M 555.914062 312.929688 " fill-opacity="1" fill-rule="nonzero"/><path fill="#ff0b06" d="M 440.757812 438.5625 C 446.488281 426.363281 454.800781 418.199219 459.34375 420.335938 C 461.804688 421.492188 462.636719 425.410156 462.015625 430.695312 C 461.449219 435.207031 459.847656 440.671875 457.203125 446.28125 C 451.476562 458.480469 443.164062 466.644531 438.621094 464.507812 C 438.265625 464.332031 437.96875 464.121094 437.671875 463.855469 C 434.257812 460.589844 435.472656 449.84375 440.757812 438.5625 Z M 440.757812 438.5625 " fill-opacity="1" fill-rule="nonzero"/><path fill="#ff0b06" d="M 493.480469 335.996094 C 498.527344 325.277344 505.832031 318.0625 509.839844 319.933594 C 512.125 321.003906 512.808594 324.863281 512.035156 329.96875 C 511.472656 333.738281 510.105469 338.222656 507.9375 342.792969 C 502.890625 353.539062 495.589844 360.722656 491.582031 358.855469 C 491.402344 358.765625 491.226562 358.675781 491.078125 358.558594 C 487.664062 356.035156 488.671875 346.238281 493.480469 335.996094 Z M 493.480469 335.996094 " fill-opacity="1" fill-rule="nonzero"/><path fill="#ff0b06" d="M 443.964844 389.996094 C 449.011719 379.25 456.34375 372.0625 460.320312 373.933594 C 462.609375 375.003906 463.289062 378.863281 462.546875 383.96875 C 461.984375 387.738281 460.558594 392.222656 458.421875 396.792969 C 453.375 407.539062 446.070312 414.722656 442.0625 412.855469 C 441.886719 412.765625 441.707031 412.675781 441.558594 412.558594 C 438.144531 410.035156 439.15625 400.238281 443.964844 389.996094 Z M 443.964844 389.996094 " fill-opacity="1" fill-rule="nonzero"/><path fill="#ff0b06" d="M 488.285156 382.871094 C 493.925781 370.878906 502.121094 362.863281 506.574219 364.941406 C 509.007812 366.066406 509.808594 369.988281 509.15625 375.269531 C 508.59375 379.664062 507.019531 385.007812 504.4375 390.441406 C 498.824219 402.433594 490.632812 410.480469 486.179688 408.402344 C 485.851562 408.253906 485.585938 408.042969 485.316406 407.808594 C 481.875 404.660156 483.0625 394.03125 488.285156 382.871094 Z M 488.285156 382.871094 " fill-opacity="1" fill-rule="nonzero"/><g clip-path="url(#f039710b8c)"><path fill="#ff0b06" d="M 239.953125 502.816406 C 236.597656 527.070312 258.226562 541.507812 258.445312 541.65625 C 259.175781 542.132812 259.589844 542.964844 259.535156 543.847656 C 259.527344 544.105469 257.925781 569.675781 261.707031 587.277344 C 264.1875 598.792969 268.179688 609.96875 273.582031 620.507812 C 276.394531 626.015625 282.140625 629.570312 288.566406 629.785156 C 302.007812 630.261719 310.804688 626.859375 314.707031 624.867188 C 290.035156 596.707031 283.117188 550.511719 282.832031 548.511719 C 282.71875 547.734375 282.984375 546.957031 283.542969 546.414062 C 284.101562 545.867188 284.878906 545.609375 285.65625 545.769531 C 290.273438 546.585938 299.371094 547.230469 308.339844 542.1875 C 314.027344 538.984375 317.449219 534.71875 318.984375 532.460938 C 322.328125 527.5625 323.722656 522.566406 324.234375 518.464844 C 319.714844 520.3125 314.984375 521.457031 310.113281 521.894531 C 305.6875 522.285156 301.183594 522.085938 296.757812 521.25 C 295.996094 521.109375 295.351562 520.617188 295.023438 519.921875 C 291.402344 512.484375 289.542969 504.21875 289.648438 496.027344 C 289.75 487.914062 291.683594 481.023438 294.027344 475.621094 C 288.082031 479.222656 282.746094 483.769531 278.328125 489.011719 C 273.941406 494.214844 270.433594 500.082031 267.894531 506.453125 C 267.5625 507.265625 266.824219 507.84375 265.949219 507.957031 C 265.847656 507.96875 265.742188 507.976562 265.636719 507.976562 C 264.871094 507.976562 264.148438 507.617188 263.683594 506.992188 C 260.347656 502.460938 257.847656 497.464844 256.246094 492.128906 C 254.007812 484.648438 253.902344 477.742188 254.585938 472.128906 C 248.898438 477.503906 240.757812 487.75 239.953125 502.8125 Z M 239.953125 502.816406 " fill-opacity="1" fill-rule="nonzero"/></g><g clip-path="url(#79ce6ec8e2)"><path fill="#ff0b06" d="M 241.214844 481.535156 C 246.863281 471.433594 254.644531 465.535156 256.835938 464.03125 C 257.253906 463.746094 257.726562 463.605469 258.210938 463.605469 C 258.691406 463.605469 259.1875 463.746094 259.601562 464.039062 C 260.4375 464.628906 260.816406 465.660156 260.558594 466.648438 C 259.101562 472.25 257.964844 480.980469 260.890625 490.730469 C 261.925781 494.164062 263.367188 497.433594 265.195312 500.511719 C 267.707031 495.242188 270.863281 490.34375 274.617188 485.890625 C 281.121094 478.171875 289.488281 471.851562 298.796875 467.625 C 299.765625 467.171875 300.929688 467.425781 301.632812 468.230469 C 302.332031 469.035156 302.425781 470.210938 301.859375 471.121094 C 298.578125 476.363281 294.644531 484.957031 294.503906 496.085938 C 294.417969 503.128906 295.917969 510.21875 298.863281 516.679688 C 302.457031 517.257812 306.097656 517.382812 309.675781 517.058594 C 315.308594 516.558594 320.738281 514.996094 325.816406 512.414062 C 326.578125 512.027344 327.449219 512.074219 328.199219 512.507812 C 328.910156 512.953125 329.355469 513.742188 329.34375 514.59375 C 329.339844 515.8125 329.253906 517.199219 329.089844 518.667969 C 332.125 517.613281 335.128906 516.386719 338.078125 514.972656 C 345.792969 511.265625 352.597656 506.59375 358.871094 500.699219 L 358.871094 500.6875 C 368.273438 491.84375 376.320312 481.210938 384.101562 470.9375 C 402.261719 446.925781 421.050781 422.113281 457.597656 420.699219 C 465.238281 420.464844 472.914062 421.214844 480.335938 421.988281 C 490.515625 423.0625 500.109375 424.066406 509.710938 422.53125 C 537.261719 418.140625 556.371094 395.289062 576.75 368.105469 C 596.464844 341.832031 618.851562 317.1875 648.890625 314.863281 C 673.304688 312.929688 695.570312 327.234375 709.910156 339.527344 L 711.066406 340.523438 C 714.847656 343.792969 718.414062 346.871094 722.726562 348.363281 C 724.382812 348.929688 725.9375 349.214844 727.363281 349.214844 C 729.808594 349.214844 731.863281 348.390625 733.371094 346.769531 C 736.035156 343.898438 736.441406 338.996094 734.414062 334.273438 C 719.523438 299.628906 693.847656 270.582031 663.960938 254.554688 C 631.933594 237.367188 593.253906 236.574219 565.433594 252.515625 C 552.78125 259.765625 542.082031 270.03125 531.730469 279.957031 C 524.46875 286.921875 516.964844 294.125 508.753906 300.34375 C 484.128906 318.957031 459.335938 319.582031 429.648438 314.742188 C 357.15625 302.882812 277.628906 350.617188 248.640625 423.304688 C 244.605469 433.425781 236.152344 458.738281 241.222656 481.53125 Z M 319.882812 492.957031 C 323.015625 488.253906 327.566406 484.71875 331.828125 481.011719 C 339.027344 474.753906 345.597656 467.78125 351.417969 460.230469 C 355.96875 454.320312 360.140625 447.980469 365.933594 443.28125 C 367.34375 442.140625 369.226562 441.054688 370.875 441.816406 C 371.992188 442.328125 372.605469 443.542969 372.925781 444.726562 C 373.976562 448.601562 372.78125 452.714844 371.28125 456.441406 C 365.925781 469.773438 355.914062 485.328125 343.921875 495.039062 C 341.886719 496.6875 339.792969 498.171875 337.652344 499.441406 C 333.722656 501.78125 329.050781 503.175781 324.546875 502.375 C 321.5625 501.84375 318.375 499.734375 318.425781 496.703125 C 318.449219 495.347656 319.128906 494.089844 319.882812 492.960938 Z M 319.882812 492.957031 " fill-opacity="1" fill-rule="nonzero"/></g></svg>