<svg xmlns="http://www.w3.org/2000/svg" xmlns:xlink="http://www.w3.org/1999/xlink" width="3150" zoomAndPan="magnify" viewBox="0 0 2362.5 3299.999941" height="4400" preserveAspectRatio="xMidYMid meet" version="1.0"><defs><clipPath id="2e4a456a37"><path d="M 0 0.347656 L 2362 0.347656 L 2362 3299.648438 L 0 3299.648438 Z M 0 0.347656 " clip-rule="nonzero"/></clipPath><clipPath id="258fae4134"><path d="M 136.871094 131.574219 L 2225.164062 131.574219 L 2225.164062 3167 L 136.871094 3167 Z M 136.871094 131.574219 " clip-rule="nonzero"/></clipPath><clipPath id="40b23ded5f"><path d="M 249.347656 131.574219 L 2112.6875 131.574219 C 2174.804688 131.574219 2225.164062 181.929688 2225.164062 244.050781 L 2225.164062 3055.902344 C 2225.164062 3118.023438 2174.804688 3168.378906 2112.6875 3168.378906 L 249.347656 3168.378906 C 187.230469 3168.378906 136.871094 3118.023438 136.871094 3055.902344 L 136.871094 244.050781 C 136.871094 181.929688 187.230469 131.574219 249.347656 131.574219 Z M 249.347656 131.574219 " clip-rule="nonzero"/></clipPath><clipPath id="8d9d9e6dfb"><path d="M 244 254.128906 L 633 254.128906 L 633 611.472656 L 244 611.472656 Z M 244 254.128906 " clip-rule="nonzero"/></clipPath><clipPath id="1ac645fe15"><path d="M 1728.144531 2670.773438 L 2118 2670.773438 L 2118 3045.695312 L 1728.144531 3045.695312 Z M 1728.144531 2670.773438 " clip-rule="nonzero"/></clipPath></defs><g clip-path="url(#2e4a456a37)"><path fill="#ffffff" d="M 0 0.347656 L 2362 0.347656 L 2362 3299.652344 L 0 3299.652344 Z M 0 0.347656 " fill-opacity="1" fill-rule="nonzero"/><path fill="#d80400" d="M 0 0.347656 L 2362 0.347656 L 2362 3299.652344 L 0 3299.652344 Z M 0 0.347656 " fill-opacity="1" fill-rule="nonzero"/></g><g clip-path="url(#258fae4134)"><g clip-path="url(#40b23ded5f)"><path fill="#ffffff" d="M 136.871094 131.574219 L 2225.164062 131.574219 L 2225.164062 3166.121094 L 136.871094 3166.121094 Z M 136.871094 131.574219 " fill-opacity="1" fill-rule="nonzero"/></g></g><path fill="#ff0b06" d="M 317.234375 555.636719 C 318.703125 561.210938 322.453125 570.078125 331.855469 575.886719 C 346.324219 586.59375 363.261719 577.742188 363.425781 577.652344 C 363.957031 577.359375 364.585938 577.359375 365.125 577.652344 C 369.96875 580.296875 378.800781 584.085938 389.527344 584.085938 C 392.320312 584.085938 395.238281 583.828125 398.257812 583.230469 C 408.058594 581.28125 414.488281 576.59375 417.230469 574.589844 C 434.464844 562.019531 440.089844 539.382812 441.898438 524.617188 C 437.675781 534.425781 430.632812 545.976562 419.085938 554.53125 C 415.386719 557.273438 408.503906 562.386719 397.796875 564.605469 C 390.859375 566.039062 383.746094 565.976562 376.675781 564.402344 C 376.070312 564.269531 375.582031 563.832031 375.371094 563.25 C 375.171875 562.667969 375.28125 562.019531 375.671875 561.539062 C 377.832031 558.847656 381.453125 553.214844 381.347656 545.648438 C 381.285156 540.839844 379.746094 537.132812 378.828125 535.359375 C 376.847656 531.472656 374.117188 528.804688 371.652344 527.035156 C 371.25 530.613281 370.320312 534.078125 368.886719 537.355469 C 367.578125 540.359375 365.855469 543.179688 363.757812 545.738281 C 363.398438 546.175781 362.953125 546.460938 362.296875 546.390625 C 356.222656 546.105469 350.238281 544.394531 344.992188 541.4375 C 339.796875 538.511719 336.035156 534.84375 333.375 531.421875 C 333.609375 536.527344 334.660156 541.578125 336.488281 546.265625 C 338.292969 550.925781 340.835938 555.261719 344.054688 559.148438 C 344.472656 559.640625 344.574219 560.332031 344.339844 560.929688 C 344.109375 561.535156 343.558594 561.960938 342.917969 562.050781 C 338.808594 562.601562 334.703125 562.457031 330.707031 561.605469 C 325.105469 560.421875 320.613281 558.054688 317.234375 555.636719 Z M 317.234375 555.636719 " fill-opacity="1" fill-rule="nonzero"/><g clip-path="url(#8d9d9e6dfb)"><path fill="#ff0b06" d="M 248.101562 481.902344 C 253.113281 506.292969 263.828125 526.808594 279.097656 541.210938 C 288.40625 550 302.507812 559.707031 317.148438 565.007812 C 313.878906 558.761719 312.972656 553.042969 312.789062 551.332031 C 312.714844 550.589844 313.105469 549.875 313.773438 549.550781 C 314.433594 549.222656 315.25 549.335938 315.785156 549.84375 C 318.894531 552.761719 324.132812 556.570312 331.445312 558.125 C 334.015625 558.667969 336.636719 558.871094 339.269531 558.792969 C 336.753906 555.3125 334.707031 551.550781 333.160156 547.558594 C 330.476562 540.65625 329.347656 533.039062 329.890625 525.53125 C 329.949219 524.75 330.511719 524.097656 331.277344 523.921875 C 332.046875 523.753906 332.832031 524.105469 333.222656 524.785156 C 335.457031 528.75 339.617188 534.324219 346.742188 538.335938 C 351.25 540.871094 356.355469 542.394531 361.566406 542.777344 C 363.199219 540.660156 364.5625 538.367188 365.617188 535.9375 C 367.273438 532.140625 368.179688 528.085938 368.304688 523.886719 C 368.328125 523.265625 368.667969 522.703125 369.203125 522.394531 C 369.738281 522.082031 370.402344 522.082031 370.953125 522.382812 C 373.003906 523.515625 375.523438 525.363281 377.886719 527.9375 C 378.496094 524.941406 378.960938 521.976562 379.109375 519.164062 C 379.542969 511.089844 378.03125 504.3125 377.214844 500.667969 C 374.296875 487.683594 369.039062 479.527344 364.398438 472.324219 C 362.941406 470.082031 361.5625 467.933594 360.34375 465.789062 C 342.246094 434.042969 354.988281 395.871094 355.539062 394.261719 C 361.695312 376.253906 374.152344 360.808594 392.542969 348.355469 C 428.496094 324 478.488281 324.949219 516.941406 350.734375 C 571.515625 387.34375 591.792969 473.738281 560.328125 535.625 C 559.175781 537.894531 531.425781 591.519531 472.855469 608.167969 C 442.355469 616.84375 413.007812 612.25 395.46875 609.507812 C 390 608.648438 384.371094 607.78125 382.476562 608.085938 C 384.421875 610.96875 400.917969 619.664062 421.242188 624.703125 C 433.238281 627.667969 445.011719 628.894531 456.277344 628.894531 C 507.738281 628.894531 548.460938 603.308594 550.53125 601.984375 C 612.292969 562.585938 633.449219 490.5 632.800781 440.738281 C 631.539062 344.449219 551.757812 236.980469 439.277344 236.730469 L 438.914062 236.730469 C 384.890625 236.730469 332.214844 263.285156 294.324219 309.632812 C 253.496094 359.570312 236.21875 423.972656 248.105469 481.902344 Z M 337.050781 417.527344 C 341.449219 416.964844 340.714844 423.28125 340.640625 425.847656 C 340.535156 429.410156 340.6875 432.980469 341.070312 436.527344 C 341.800781 443.3125 343.410156 450.144531 345.425781 456.539062 C 347.960938 464.59375 350.679688 472.152344 355.386719 479.28125 C 359.730469 485.855469 364.519531 492.390625 366.679688 500.078125 C 367.199219 501.933594 367.589844 503.777344 367.828125 505.589844 C 368.261719 508.925781 367.847656 512.484375 365.996094 515.292969 C 364.769531 517.152344 362.421875 518.691406 360.390625 517.773438 C 359.480469 517.363281 358.832031 516.539062 358.285156 515.703125 C 356.019531 512.222656 354.960938 508.121094 353.695312 504.167969 C 349.980469 492.53125 343.3125 482.167969 339.109375 470.734375 C 334.972656 459.476562 332.773438 447.621094 331.679688 435.703125 C 331.230469 430.820312 329.816406 418.449219 337.050781 417.523438 Z M 337.050781 417.527344 " fill-opacity="1" fill-rule="nonzero"/></g><path fill="#ff0b06" d="M 2044.292969 2744.183594 C 2042.824219 2738.609375 2039.078125 2729.742188 2029.671875 2723.933594 C 2015.203125 2713.226562 1998.269531 2722.078125 1998.101562 2722.171875 C 1997.574219 2722.464844 1996.945312 2722.464844 1996.402344 2722.171875 C 1991.5625 2719.523438 1982.726562 2715.734375 1972 2715.734375 C 1969.207031 2715.734375 1966.289062 2715.992188 1963.273438 2716.589844 C 1953.472656 2718.542969 1947.042969 2723.230469 1944.296875 2725.230469 C 1927.0625 2737.804688 1921.441406 2760.4375 1919.628906 2775.203125 C 1923.851562 2765.394531 1930.894531 2753.847656 1942.445312 2745.292969 C 1946.144531 2742.546875 1953.023438 2737.433594 1963.730469 2735.21875 C 1970.671875 2733.78125 1977.785156 2733.84375 1984.855469 2735.421875 C 1985.460938 2735.554688 1985.949219 2735.992188 1986.15625 2736.570312 C 1986.359375 2737.15625 1986.246094 2737.804688 1985.855469 2738.285156 C 1983.695312 2740.972656 1980.074219 2746.609375 1980.179688 2754.175781 C 1980.242188 2758.980469 1981.78125 2762.6875 1982.703125 2764.464844 C 1984.679688 2768.351562 1987.410156 2771.019531 1989.878906 2772.789062 C 1990.28125 2769.207031 1991.207031 2765.746094 1992.640625 2762.464844 C 1993.953125 2759.460938 1995.671875 2756.640625 1997.769531 2754.085938 C 1998.132812 2753.644531 1998.578125 2753.359375 1999.230469 2753.429688 C 2005.304688 2753.714844 2011.289062 2755.429688 2016.535156 2758.382812 C 2021.734375 2761.308594 2025.492188 2764.980469 2028.15625 2768.398438 C 2027.917969 2763.292969 2026.867188 2758.242188 2025.042969 2753.554688 C 2023.238281 2748.894531 2020.695312 2744.5625 2017.476562 2740.675781 C 2017.058594 2740.179688 2016.953125 2739.492188 2017.191406 2738.890625 C 2017.421875 2738.285156 2017.972656 2737.859375 2018.613281 2737.769531 C 2022.722656 2737.21875 2026.824219 2737.367188 2030.824219 2738.214844 C 2036.425781 2739.398438 2040.917969 2741.769531 2044.296875 2744.1875 Z M 2044.292969 2744.183594 " fill-opacity="1" fill-rule="nonzero"/><g clip-path="url(#1ac645fe15)"><path fill="#ff0b06" d="M 2113.425781 2817.917969 C 2108.417969 2793.53125 2097.703125 2773.015625 2082.433594 2758.609375 C 2073.121094 2749.824219 2059.023438 2740.113281 2044.378906 2734.8125 C 2047.648438 2741.058594 2048.558594 2746.777344 2048.738281 2748.488281 C 2048.816406 2749.234375 2048.425781 2749.945312 2047.757812 2750.273438 C 2047.09375 2750.597656 2046.28125 2750.488281 2045.742188 2749.980469 C 2042.636719 2747.0625 2037.398438 2743.25 2030.082031 2741.695312 C 2027.511719 2741.152344 2024.894531 2740.953125 2022.261719 2741.027344 C 2024.777344 2744.511719 2026.824219 2748.273438 2028.371094 2752.265625 C 2031.050781 2759.167969 2032.179688 2766.78125 2031.636719 2774.289062 C 2031.582031 2775.070312 2031.015625 2775.726562 2030.25 2775.898438 C 2029.484375 2776.066406 2028.695312 2775.71875 2028.308594 2775.035156 C 2026.070312 2771.074219 2021.914062 2765.5 2014.785156 2761.488281 C 2010.277344 2758.953125 2005.171875 2757.425781 1999.960938 2757.042969 C 1998.332031 2759.160156 1996.964844 2761.453125 1995.914062 2763.882812 C 1994.253906 2767.679688 1993.351562 2771.734375 1993.222656 2775.933594 C 1993.203125 2776.554688 1992.863281 2777.117188 1992.324219 2777.425781 C 1991.789062 2777.738281 1991.128906 2777.738281 1990.578125 2777.441406 C 1988.523438 2776.308594 1986.007812 2774.460938 1983.640625 2771.882812 C 1983.035156 2774.878906 1982.570312 2777.84375 1982.417969 2780.660156 C 1981.988281 2788.730469 1983.5 2795.511719 1984.3125 2799.152344 C 1987.230469 2812.140625 1992.492188 2820.296875 1997.128906 2827.5 C 1998.585938 2829.742188 1999.964844 2831.886719 2001.183594 2834.03125 C 2019.285156 2865.777344 2006.542969 2903.953125 2005.992188 2905.5625 C 1999.832031 2923.566406 1987.378906 2939.011719 1968.988281 2951.46875 C 1933.035156 2975.820312 1883.039062 2974.875 1844.585938 2949.085938 C 1790.015625 2912.480469 1769.734375 2826.085938 1801.203125 2764.199219 C 1802.351562 2761.925781 1830.105469 2708.300781 1888.675781 2691.652344 C 1919.171875 2682.980469 1948.519531 2687.570312 1966.0625 2690.3125 C 1971.527344 2691.171875 1977.15625 2692.042969 1979.050781 2691.734375 C 1977.109375 2688.851562 1960.613281 2680.15625 1940.285156 2675.121094 C 1928.289062 2672.152344 1916.515625 2670.925781 1905.253906 2670.925781 C 1853.792969 2670.925781 1813.066406 2696.515625 1811 2697.835938 C 1749.238281 2737.238281 1728.082031 2809.324219 1728.730469 2859.082031 C 1729.988281 2955.375 1809.773438 3062.839844 1922.253906 3063.089844 L 1922.617188 3063.089844 C 1976.636719 3063.089844 2029.316406 3036.535156 2067.203125 2990.191406 C 2108.03125 2940.25 2125.308594 2875.847656 2113.425781 2817.917969 Z M 2024.476562 2882.296875 C 2020.078125 2882.859375 2020.8125 2876.539062 2020.890625 2873.976562 C 2020.996094 2870.410156 2020.839844 2866.839844 2020.460938 2863.296875 C 2019.730469 2856.511719 2018.117188 2849.675781 2016.105469 2843.285156 C 2013.566406 2835.230469 2010.851562 2827.671875 2006.140625 2820.542969 C 2001.796875 2813.96875 1997.007812 2807.429688 1994.847656 2799.742188 C 1994.328125 2797.886719 1993.9375 2796.042969 1993.699219 2794.230469 C 1993.265625 2790.898438 1993.679688 2787.335938 1995.53125 2784.53125 C 1996.757812 2782.671875 1999.109375 2781.128906 2001.136719 2782.046875 C 2002.046875 2782.457031 2002.699219 2783.28125 2003.242188 2784.121094 C 2005.507812 2787.597656 2006.570312 2791.699219 2007.832031 2795.65625 C 2011.546875 2807.289062 2018.214844 2817.652344 2022.417969 2829.085938 C 2026.558594 2840.34375 2028.753906 2852.199219 2029.851562 2864.121094 C 2030.300781 2869 2031.710938 2881.371094 2024.476562 2882.296875 Z M 2024.476562 2882.296875 " fill-opacity="1" fill-rule="nonzero"/></g></svg>