<svg xmlns="http://www.w3.org/2000/svg" xmlns:xlink="http://www.w3.org/1999/xlink" width="3150" zoomAndPan="magnify" viewBox="0 0 2362.5 3299.999941" height="4400" preserveAspectRatio="xMidYMid meet" version="1.0"><defs><clipPath id="66d086941d"><path d="M 0 0.347656 L 2362 0.347656 L 2362 3299.648438 L 0 3299.648438 Z M 0 0.347656 " clip-rule="nonzero"/></clipPath><clipPath id="dc24034e81"><path d="M 136.871094 131.574219 L 2225.164062 131.574219 L 2225.164062 3167 L 136.871094 3167 Z M 136.871094 131.574219 " clip-rule="nonzero"/></clipPath><clipPath id="f7fb9f4867"><path d="M 249.347656 131.574219 L 2112.6875 131.574219 C 2174.804688 131.574219 2225.164062 181.929688 2225.164062 244.050781 L 2225.164062 3055.902344 C 2225.164062 3118.023438 2174.804688 3168.378906 2112.6875 3168.378906 L 249.347656 3168.378906 C 187.230469 3168.378906 136.871094 3118.023438 136.871094 3055.902344 L 136.871094 244.050781 C 136.871094 181.929688 187.230469 131.574219 249.347656 131.574219 Z M 249.347656 131.574219 " clip-rule="nonzero"/></clipPath><clipPath id="46f3cb8288"><path d="M 2041 2667.386719 L 2121.972656 2667.386719 L 2121.972656 2819 L 2041 2819 Z M 2041 2667.386719 " clip-rule="nonzero"/></clipPath><clipPath id="2c82adfcd3"><path d="M 1674 2773 L 2121.972656 2773 L 2121.972656 3064 L 1674 3064 Z M 1674 2773 " clip-rule="nonzero"/></clipPath><clipPath id="4746d01536"><path d="M 239.71875 481 L 321 481 L 321 632.5625 L 239.71875 632.5625 Z M 239.71875 481 " clip-rule="nonzero"/></clipPath><clipPath id="17ba24e382"><path d="M 239.71875 236.554688 L 686.109375 236.554688 L 686.109375 526 L 239.71875 526 Z M 239.71875 236.554688 " clip-rule="nonzero"/></clipPath></defs><g clip-path="url(#66d086941d)"><path fill="#ffffff" d="M 0 0.347656 L 2362 0.347656 L 2362 3299.652344 L 0 3299.652344 Z M 0 0.347656 " fill-opacity="1" fill-rule="nonzero"/><path fill="#d80400" d="M 0 0.347656 L 2362 0.347656 L 2362 3299.652344 L 0 3299.652344 Z M 0 0.347656 " fill-opacity="1" fill-rule="nonzero"/></g><g clip-path="url(#dc24034e81)"><g clip-path="url(#f7fb9f4867)"><path fill="#ffffff" d="M 136.871094 131.574219 L 2225.164062 131.574219 L 2225.164062 3166.121094 L 136.871094 3166.121094 Z M 136.871094 131.574219 " fill-opacity="1" fill-rule="nonzero"/></g></g><g clip-path="url(#46f3cb8288)"><path fill="#ff0b06" d="M 2121.84375 2789.136719 C 2125.050781 2765.957031 2104.386719 2752.164062 2104.179688 2752.019531 C 2103.480469 2751.566406 2103.082031 2750.769531 2103.136719 2749.929688 C 2103.148438 2749.683594 2104.675781 2725.261719 2101.054688 2708.4375 C 2098.691406 2697.417969 2094.871094 2686.742188 2089.710938 2676.691406 C 2087.011719 2671.429688 2081.523438 2668.035156 2075.402344 2667.835938 C 2062.40625 2667.410156 2054.148438 2670.632812 2050.425781 2672.535156 C 2073.988281 2699.4375 2080.609375 2743.574219 2080.878906 2745.484375 C 2080.988281 2746.222656 2080.734375 2746.96875 2080.203125 2747.484375 C 2079.675781 2748.007812 2078.917969 2748.253906 2078.171875 2748.097656 C 2073.789062 2747.285156 2065.125 2746.675781 2056.511719 2751.523438 C 2051.070312 2754.582031 2047.800781 2758.648438 2046.34375 2760.804688 C 2043.148438 2765.484375 2041.816406 2770.269531 2041.328125 2774.179688 C 2045.65625 2772.414062 2050.175781 2771.316406 2054.820312 2770.898438 C 2059.109375 2770.519531 2063.402344 2770.738281 2067.585938 2771.523438 C 2068.304688 2771.667969 2068.917969 2772.132812 2069.234375 2772.792969 C 2072.695312 2779.902344 2074.46875 2787.796875 2074.371094 2795.621094 C 2074.269531 2803.363281 2072.421875 2809.949219 2070.179688 2815.117188 C 2075.855469 2811.679688 2080.953125 2807.332031 2085.183594 2802.316406 C 2089.382812 2797.332031 2092.734375 2791.730469 2095.144531 2785.65625 C 2095.449219 2784.875 2096.167969 2784.324219 2097 2784.214844 C 2097.097656 2784.207031 2097.199219 2784.195312 2097.296875 2784.195312 C 2098.03125 2784.195312 2098.726562 2784.542969 2099.164062 2785.140625 C 2102.371094 2789.503906 2104.761719 2794.285156 2106.273438 2799.355469 C 2108.40625 2806.464844 2108.507812 2813.074219 2107.863281 2818.441406 C 2113.296875 2813.292969 2121.074219 2803.492188 2121.84375 2789.140625 Z M 2121.84375 2789.136719 " fill-opacity="1" fill-rule="nonzero"/></g><g clip-path="url(#2c82adfcd3)"><path fill="#ff0b06" d="M 2120.632812 2809.449219 C 2115.242188 2819.089844 2107.816406 2824.746094 2105.726562 2826.191406 C 2105.328125 2826.460938 2104.867188 2826.597656 2104.40625 2826.597656 C 2103.945312 2826.597656 2103.472656 2826.464844 2103.074219 2826.183594 C 2102.285156 2825.628906 2101.914062 2824.632812 2102.160156 2823.699219 C 2103.554688 2818.324219 2104.621094 2809.964844 2101.832031 2800.683594 C 2100.855469 2797.421875 2099.480469 2794.289062 2097.722656 2791.339844 C 2095.332031 2796.355469 2092.316406 2801.035156 2088.730469 2805.300781 C 2082.511719 2812.679688 2074.523438 2818.71875 2065.628906 2822.757812 C 2064.707031 2823.191406 2063.59375 2822.949219 2062.933594 2822.179688 C 2062.253906 2821.410156 2062.164062 2820.285156 2062.707031 2819.429688 C 2065.839844 2814.394531 2069.597656 2806.179688 2069.734375 2795.566406 C 2069.8125 2788.839844 2068.382812 2782.066406 2065.566406 2775.882812 C 2062.164062 2775.347656 2058.703125 2775.222656 2055.226562 2775.519531 C 2049.875 2776 2044.6875 2777.496094 2039.816406 2779.964844 C 2039.097656 2780.347656 2038.246094 2780.300781 2037.539062 2779.875 C 2036.863281 2779.449219 2036.4375 2778.699219 2036.445312 2777.882812 C 2036.449219 2776.71875 2036.53125 2775.394531 2036.691406 2773.988281 C 2033.789062 2774.996094 2030.921875 2776.171875 2028.101562 2777.523438 C 2020.742188 2781.042969 2014.25 2785.507812 2008.238281 2791.152344 L 2008.238281 2791.160156 C 1996.746094 2801.960938 1988.632812 2815.71875 1980.039062 2830.277344 L 1978.925781 2832.164062 C 1963.585938 2858.140625 1942.984375 2878.515625 1920.910156 2889.554688 C 1900.15625 2899.941406 1872.484375 2912.191406 1842.554688 2914.78125 C 1834.96875 2915.441406 1827.234375 2915.796875 1819.753906 2916.148438 C 1803.683594 2916.890625 1787.066406 2917.660156 1771.300781 2921.464844 C 1742.386719 2928.445312 1715.777344 2946.253906 1698.300781 2970.335938 C 1680.828125 2994.414062 1672.144531 3025.238281 1674.480469 3054.902344 C 1674.75 3058.386719 1676.15625 3061.359375 1678.039062 3062.472656 C 1679.371094 3063.25 1681.054688 3063.207031 1683.082031 3062.273438 C 1686.613281 3060.664062 1688.859375 3056.8125 1690.601562 3053.265625 C 1709.796875 3013.773438 1751.53125 2991.609375 1801.742188 2994.007812 C 1815.109375 2994.652344 1828.347656 2996.21875 1841.140625 2997.730469 C 1864.546875 3000.492188 1886.640625 3003.109375 1910.183594 3000.703125 C 1987.675781 2992.734375 2080.609375 2947.703125 2113.550781 2865.09375 C 2117.410156 2855.421875 2125.488281 2831.230469 2120.632812 2809.449219 Z M 2039.933594 2800.214844 C 2036.945312 2804.707031 2032.597656 2808.082031 2028.523438 2811.625 C 2021.648438 2817.601562 2015.367188 2824.265625 2009.808594 2831.480469 C 2005.460938 2837.125 2001.480469 2843.183594 1995.941406 2847.667969 C 1994.597656 2848.761719 1992.796875 2849.796875 1991.222656 2849.070312 C 1990.15625 2848.578125 1989.570312 2847.417969 1989.261719 2846.289062 C 1988.257812 2842.585938 1989.402344 2838.65625 1990.832031 2835.097656 C 1995.949219 2822.363281 2005.511719 2807.5 2016.96875 2798.222656 C 2018.914062 2796.648438 2020.914062 2795.234375 2022.960938 2794.019531 C 2026.714844 2791.785156 2031.179688 2790.449219 2035.480469 2791.214844 C 2038.332031 2791.722656 2041.378906 2793.738281 2041.328125 2796.632812 C 2041.304688 2797.929688 2040.65625 2799.128906 2039.933594 2800.210938 Z M 2039.933594 2800.214844 " fill-opacity="1" fill-rule="nonzero"/></g><g clip-path="url(#4746d01536)"><path fill="#ff0b06" d="M 239.84375 510.8125 C 236.636719 533.992188 257.300781 547.785156 257.507812 547.929688 C 258.207031 548.382812 258.605469 549.179688 258.550781 550.019531 C 258.542969 550.265625 257.011719 574.6875 260.632812 591.511719 C 262.996094 602.53125 266.820312 613.207031 271.980469 623.257812 C 274.679688 628.519531 280.164062 631.914062 286.289062 632.113281 C 299.28125 632.539062 307.539062 629.316406 311.261719 627.414062 C 287.699219 600.511719 281.082031 556.375 280.808594 554.464844 C 280.699219 553.726562 280.953125 552.980469 281.488281 552.464844 C 282.011719 551.941406 282.773438 551.695312 283.515625 551.851562 C 287.898438 552.664062 296.566406 553.273438 305.175781 548.425781 C 310.621094 545.367188 313.886719 541.300781 315.34375 539.144531 C 318.542969 534.464844 319.871094 529.679688 320.363281 525.769531 C 316.03125 527.535156 311.515625 528.632812 306.871094 529.050781 C 302.578125 529.429688 298.285156 529.210938 294.101562 528.425781 C 293.386719 528.28125 292.769531 527.816406 292.453125 527.15625 C 288.996094 520.046875 287.21875 512.152344 287.320312 504.328125 C 287.417969 496.585938 289.265625 490 291.511719 484.832031 C 285.832031 488.269531 280.734375 492.617188 276.507812 497.632812 C 272.304688 502.617188 268.957031 508.21875 266.546875 514.292969 C 266.238281 515.074219 265.523438 515.625 264.691406 515.734375 C 264.589844 515.742188 264.492188 515.753906 264.390625 515.753906 C 263.65625 515.753906 262.960938 515.40625 262.527344 514.808594 C 259.320312 510.445312 256.929688 505.664062 255.417969 500.59375 C 253.28125 493.484375 253.179688 486.875 253.824219 481.503906 C 248.390625 486.65625 240.613281 496.457031 239.84375 510.808594 Z M 239.84375 510.8125 " fill-opacity="1" fill-rule="nonzero"/></g><g clip-path="url(#17ba24e382)"><path fill="#ff0b06" d="M 241.058594 490.5 C 246.449219 480.859375 253.875 475.203125 255.960938 473.757812 C 256.359375 473.488281 256.820312 473.351562 257.285156 473.351562 C 257.746094 473.351562 258.214844 473.484375 258.613281 473.765625 C 259.402344 474.320312 259.773438 475.316406 259.527344 476.25 C 258.132812 481.625 257.066406 489.984375 259.855469 499.265625 C 260.832031 502.527344 262.210938 505.660156 263.96875 508.609375 C 266.355469 503.59375 269.371094 498.914062 272.960938 494.648438 C 279.179688 487.269531 287.167969 481.230469 296.058594 477.191406 C 296.980469 476.757812 298.097656 477 298.757812 477.769531 C 299.4375 478.539062 299.527344 479.664062 298.984375 480.519531 C 295.851562 485.554688 292.09375 493.769531 291.957031 504.378906 C 291.875 511.109375 293.304688 517.882812 296.121094 524.066406 C 299.527344 524.601562 302.984375 524.726562 306.460938 524.425781 C 311.8125 523.949219 317.003906 522.453125 321.875 519.984375 C 322.589844 519.601562 323.441406 519.648438 324.148438 520.074219 C 324.828125 520.496094 325.253906 521.25 325.246094 522.066406 C 325.238281 523.230469 325.15625 524.554688 325 525.960938 C 327.898438 524.953125 330.769531 523.777344 333.585938 522.425781 C 340.949219 518.90625 347.441406 514.4375 353.453125 508.796875 L 353.453125 508.789062 C 364.941406 497.988281 373.054688 484.230469 381.648438 469.671875 L 382.765625 467.785156 C 398.101562 441.808594 418.703125 421.433594 440.78125 410.394531 C 461.535156 400.007812 489.207031 387.757812 519.132812 385.167969 C 526.722656 384.507812 534.457031 384.152344 541.933594 383.800781 C 558.007812 383.058594 574.625 382.289062 590.386719 378.484375 C 619.300781 371.503906 645.914062 353.691406 663.390625 329.613281 C 680.859375 305.535156 689.546875 274.710938 687.207031 245.046875 C 686.9375 241.558594 685.535156 238.589844 683.648438 237.476562 C 682.320312 236.699219 680.632812 236.742188 678.605469 237.675781 C 675.074219 239.285156 672.828125 243.136719 671.089844 246.683594 C 651.890625 286.171875 610.160156 308.339844 559.945312 305.941406 C 546.582031 305.296875 533.34375 303.730469 520.546875 302.21875 C 497.140625 299.457031 475.046875 296.839844 451.503906 299.246094 C 374.011719 307.214844 281.078125 352.246094 248.136719 434.855469 C 244.28125 444.527344 236.203125 468.71875 241.058594 490.5 Z M 321.753906 499.734375 C 324.742188 495.242188 329.09375 491.867188 333.167969 488.324219 C 340.042969 482.347656 346.320312 475.683594 351.878906 468.46875 C 356.230469 462.824219 360.210938 456.765625 365.746094 452.28125 C 367.09375 451.1875 368.894531 450.152344 370.46875 450.878906 C 371.53125 451.371094 372.117188 452.53125 372.425781 453.660156 C 373.433594 457.363281 372.289062 461.292969 370.855469 464.851562 C 365.738281 477.585938 356.175781 492.449219 344.71875 501.726562 C 342.773438 503.300781 340.773438 504.714844 338.730469 505.929688 C 334.976562 508.164062 330.511719 509.5 326.207031 508.734375 C 323.359375 508.226562 320.3125 506.210938 320.363281 503.316406 C 320.382812 502.019531 321.035156 500.816406 321.753906 499.738281 Z M 321.753906 499.734375 " fill-opacity="1" fill-rule="nonzero"/></g></svg>