<svg xmlns="http://www.w3.org/2000/svg" xmlns:xlink="http://www.w3.org/1999/xlink" width="3150" zoomAndPan="magnify" viewBox="0 0 2362.5 3299.999941" height="4400" preserveAspectRatio="xMidYMid meet" version="1.0"><defs><clipPath id="01908aa7e1"><path d="M 0 0.347656 L 2362 0.347656 L 2362 3299.648438 L 0 3299.648438 Z M 0 0.347656 " clip-rule="nonzero"/></clipPath><clipPath id="92d97153b1"><path d="M 136.871094 131.574219 L 2225.164062 131.574219 L 2225.164062 3167 L 136.871094 3167 Z M 136.871094 131.574219 " clip-rule="nonzero"/></clipPath><clipPath id="8b7fd9b907"><path d="M 249.347656 131.574219 L 2112.6875 131.574219 C 2174.804688 131.574219 2225.164062 181.929688 2225.164062 244.050781 L 2225.164062 3055.902344 C 2225.164062 3118.023438 2174.804688 3168.378906 2112.6875 3168.378906 L 249.347656 3168.378906 C 187.230469 3168.378906 136.871094 3118.023438 136.871094 3055.902344 L 136.871094 244.050781 C 136.871094 181.929688 187.230469 131.574219 249.347656 131.574219 Z M 249.347656 131.574219 " clip-rule="nonzero"/></clipPath><clipPath id="e16363f5ff"><path d="M 2037 2669.453125 L 2112.835938 2669.453125 L 2112.835938 2828 L 2037 2828 Z M 2037 2669.453125 " clip-rule="nonzero"/></clipPath><clipPath id="f9756fa325"><path d="M 1626 2781 L 2112.835938 2781 L 2112.835938 3059 L 1626 3059 Z M 1626 2781 " clip-rule="nonzero"/></clipPath><clipPath id="af17192e74"><path d="M 1750 2663 L 2008 2663 L 2008 2863 L 1750 2863 Z M 1750 2663 " clip-rule="nonzero"/></clipPath><clipPath id="0866f8f02c"><path d="M 1711.203125 2696.40625 L 1959.339844 2610.941406 L 2032.59375 2823.632812 L 1784.457031 2909.09375 Z M 1711.203125 2696.40625 " clip-rule="nonzero"/></clipPath><clipPath id="200d5fd6b0"><path d="M 1711.203125 2696.40625 L 1959.339844 2610.941406 L 2032.59375 2823.632812 L 1784.457031 2909.09375 Z M 1711.203125 2696.40625 " clip-rule="nonzero"/></clipPath><clipPath id="07a2ca0ec9"><path d="M 249.089844 472 L 325 472 L 325 630 L 249.089844 630 Z M 249.089844 472 " clip-rule="nonzero"/></clipPath><clipPath id="6e6f42f249"><path d="M 249.089844 241 L 736 241 L 736 519 L 249.089844 519 Z M 249.089844 241 " clip-rule="nonzero"/></clipPath><clipPath id="86ba583734"><path d="M 354 436 L 612 436 L 612 637 L 354 637 Z M 354 436 " clip-rule="nonzero"/></clipPath><clipPath id="438ad4d991"><path d="M 650.695312 603.53125 L 402.558594 688.996094 L 329.300781 476.304688 L 577.441406 390.839844 Z M 650.695312 603.53125 " clip-rule="nonzero"/></clipPath><clipPath id="2a3408a541"><path d="M 650.695312 603.53125 L 402.558594 688.996094 L 329.300781 476.304688 L 577.441406 390.839844 Z M 650.695312 603.53125 " clip-rule="nonzero"/></clipPath></defs><g clip-path="url(#01908aa7e1)"><path fill="#ffffff" d="M 0 0.347656 L 2362 0.347656 L 2362 3299.652344 L 0 3299.652344 Z M 0 0.347656 " fill-opacity="1" fill-rule="nonzero"/><path fill="#d80400" d="M 0 0.347656 L 2362 0.347656 L 2362 3299.652344 L 0 3299.652344 Z M 0 0.347656 " fill-opacity="1" fill-rule="nonzero"/></g><g clip-path="url(#92d97153b1)"><g clip-path="url(#8b7fd9b907)"><path fill="#ffffff" d="M 136.871094 131.574219 L 2225.164062 131.574219 L 2225.164062 3166.121094 L 136.871094 3166.121094 Z M 136.871094 131.574219 " fill-opacity="1" fill-rule="nonzero"/></g></g><g clip-path="url(#e16363f5ff)"><path fill="#ff0b06" d="M 2121.972656 2796.855469 C 2125.328125 2772.601562 2103.699219 2758.167969 2103.480469 2758.015625 C 2102.753906 2757.542969 2102.335938 2756.707031 2102.390625 2755.824219 C 2102.402344 2755.570312 2104.003906 2729.996094 2100.222656 2712.394531 C 2097.738281 2700.878906 2093.746094 2689.707031 2088.34375 2679.164062 C 2085.53125 2673.65625 2079.785156 2670.105469 2073.359375 2669.886719 C 2059.917969 2669.414062 2051.125 2672.816406 2047.21875 2674.804688 C 2071.890625 2702.964844 2078.808594 2749.164062 2079.09375 2751.164062 C 2079.207031 2751.9375 2078.941406 2752.71875 2078.382812 2753.257812 C 2077.824219 2753.804688 2077.046875 2754.0625 2076.269531 2753.902344 C 2071.652344 2753.085938 2062.554688 2752.441406 2053.585938 2757.484375 C 2047.898438 2760.6875 2044.480469 2764.953125 2042.941406 2767.210938 C 2039.597656 2772.109375 2038.203125 2777.105469 2037.691406 2781.210938 C 2042.214844 2779.363281 2046.945312 2778.214844 2051.8125 2777.777344 C 2056.242188 2777.390625 2060.742188 2777.585938 2065.167969 2778.421875 C 2065.929688 2778.5625 2066.574219 2779.058594 2066.90625 2779.75 C 2070.523438 2787.191406 2072.382812 2795.457031 2072.28125 2803.644531 C 2072.175781 2811.757812 2070.242188 2818.648438 2067.902344 2824.054688 C 2073.84375 2820.453125 2079.179688 2815.902344 2083.597656 2810.660156 C 2087.984375 2805.457031 2091.492188 2799.589844 2094.03125 2793.222656 C 2094.363281 2792.40625 2095.105469 2791.828125 2095.976562 2791.714844 C 2096.082031 2791.707031 2096.183594 2791.695312 2096.289062 2791.695312 C 2097.058594 2791.695312 2097.777344 2792.058594 2098.242188 2792.683594 C 2101.578125 2797.210938 2104.078125 2802.207031 2105.679688 2807.542969 C 2107.917969 2815.023438 2108.023438 2821.929688 2107.339844 2827.542969 C 2113.027344 2822.167969 2121.167969 2811.921875 2121.972656 2796.859375 Z M 2121.972656 2796.855469 " fill-opacity="1" fill-rule="nonzero"/></g><g clip-path="url(#f9756fa325)"><path fill="#ff0b06" d="M 2120.710938 2818.136719 C 2115.066406 2828.238281 2107.28125 2834.140625 2105.089844 2835.640625 C 2104.675781 2835.925781 2104.199219 2836.070312 2103.71875 2836.070312 C 2103.234375 2836.070312 2102.742188 2835.925781 2102.324219 2835.632812 C 2101.488281 2835.042969 2101.109375 2834.011719 2101.367188 2833.023438 C 2102.824219 2827.421875 2103.964844 2818.695312 2101.035156 2808.941406 C 2100 2805.507812 2098.5625 2802.238281 2096.730469 2799.160156 C 2094.21875 2804.429688 2091.0625 2809.328125 2087.308594 2813.785156 C 2080.804688 2821.5 2072.4375 2827.820312 2063.128906 2832.046875 C 2062.164062 2832.503906 2060.996094 2832.25 2060.296875 2831.441406 C 2059.59375 2830.636719 2059.5 2829.460938 2060.066406 2828.550781 C 2063.347656 2823.3125 2067.28125 2814.714844 2067.421875 2803.585938 C 2067.507812 2796.542969 2066.011719 2789.457031 2063.0625 2782.992188 C 2059.46875 2782.414062 2055.832031 2782.289062 2052.25 2782.613281 C 2046.621094 2783.117188 2041.1875 2784.679688 2036.109375 2787.257812 C 2035.347656 2787.648438 2034.476562 2787.601562 2033.730469 2787.164062 C 2033.019531 2786.71875 2032.570312 2785.929688 2032.582031 2785.078125 C 2032.585938 2783.859375 2032.671875 2782.472656 2032.835938 2781.003906 C 2029.800781 2782.058594 2026.796875 2783.285156 2023.851562 2784.699219 C 2016.132812 2788.40625 2009.332031 2793.078125 2003.054688 2798.976562 L 2003.054688 2798.984375 C 1993.652344 2807.828125 1985.605469 2818.460938 1977.824219 2828.738281 C 1959.664062 2852.746094 1940.878906 2877.558594 1904.328125 2878.972656 C 1896.6875 2879.210938 1889.011719 2878.460938 1881.589844 2877.683594 C 1871.410156 2876.613281 1861.816406 2875.609375 1852.21875 2877.144531 C 1824.664062 2881.53125 1805.554688 2904.382812 1785.175781 2931.566406 C 1765.460938 2957.839844 1743.074219 2982.484375 1713.039062 2984.808594 C 1688.621094 2986.742188 1666.355469 2972.4375 1652.015625 2960.144531 L 1650.859375 2959.148438 C 1647.078125 2955.878906 1643.511719 2952.800781 1639.199219 2951.3125 C 1637.542969 2950.742188 1635.988281 2950.460938 1634.566406 2950.460938 C 1632.117188 2950.460938 1630.0625 2951.285156 1628.554688 2952.90625 C 1625.890625 2955.777344 1625.484375 2960.675781 1627.511719 2965.398438 C 1642.402344 3000.042969 1668.078125 3029.089844 1697.964844 3045.121094 C 1729.992188 3062.304688 1768.671875 3063.101562 1796.492188 3047.15625 C 1809.144531 3039.90625 1819.847656 3029.644531 1830.195312 3019.71875 C 1837.457031 3012.75 1844.960938 3005.546875 1853.171875 2999.328125 C 1877.796875 2980.714844 1902.589844 2980.089844 1932.277344 2984.933594 C 2004.769531 2996.789062 2084.300781 2949.058594 2113.285156 2876.367188 C 2117.320312 2866.246094 2125.773438 2840.933594 2120.703125 2818.140625 Z M 2042.042969 2806.714844 C 2038.910156 2811.421875 2034.363281 2814.953125 2030.097656 2818.660156 C 2022.902344 2824.917969 2016.328125 2831.890625 2010.507812 2839.445312 C 2005.957031 2845.351562 2001.785156 2851.691406 1995.996094 2856.390625 C 1994.582031 2857.535156 1992.699219 2858.617188 1991.050781 2857.855469 C 1989.9375 2857.34375 1989.324219 2856.128906 1989.003906 2854.945312 C 1987.949219 2851.070312 1989.144531 2846.957031 1990.644531 2843.230469 C 1996.003906 2829.898438 2006.011719 2814.34375 2018.003906 2804.632812 C 2020.039062 2802.984375 2022.132812 2801.503906 2024.273438 2800.230469 C 2028.203125 2797.890625 2032.875 2796.496094 2037.378906 2797.296875 C 2040.363281 2797.828125 2043.554688 2799.9375 2043.5 2802.96875 C 2043.476562 2804.328125 2042.796875 2805.582031 2042.042969 2806.710938 Z M 2042.042969 2806.714844 " fill-opacity="1" fill-rule="nonzero"/></g><g clip-path="url(#af17192e74)"><g clip-path="url(#0866f8f02c)"><g clip-path="url(#200d5fd6b0)"><path fill="#ff0b06" d="M 1991.75 2713.886719 C 1988.199219 2707.828125 1961.023438 2665.242188 1911.808594 2689.664062 C 1901.207031 2697.335938 1897.40625 2705.46875 1896.03125 2710.285156 C 1895.601562 2711.6875 1895.339844 2713.121094 1895.242188 2714.589844 C 1894.042969 2711.382812 1892.65625 2708.257812 1891.085938 2705.21875 C 1889.007812 2701.097656 1886.53125 2696.761719 1884.316406 2693.882812 C 1852.648438 2656.214844 1818.597656 2663.976562 1814.859375 2664.53125 C 1814.742188 2664.566406 1814.636719 2664.625 1814.546875 2664.710938 C 1793.246094 2668.226562 1779.59375 2681.675781 1774.703125 2687.3125 C 1774.246094 2687.0625 1773.773438 2686.839844 1773.289062 2686.648438 C 1772.808594 2686.457031 1772.3125 2686.296875 1771.808594 2686.164062 C 1771.304688 2686.035156 1770.796875 2685.933594 1770.277344 2685.867188 C 1769.761719 2685.796875 1769.246094 2685.761719 1768.722656 2685.757812 C 1768.203125 2685.753906 1767.683594 2685.78125 1767.167969 2685.839844 C 1766.648438 2685.898438 1766.136719 2685.988281 1765.632812 2686.113281 C 1765.125 2686.234375 1764.628906 2686.386719 1764.144531 2686.570312 C 1763.65625 2686.753906 1763.179688 2686.96875 1762.71875 2687.210938 C 1762.257812 2687.453125 1761.816406 2687.71875 1761.386719 2688.015625 C 1760.960938 2688.3125 1760.550781 2688.636719 1760.164062 2688.980469 C 1759.773438 2689.328125 1759.410156 2689.699219 1759.066406 2690.089844 C 1758.722656 2690.484375 1758.40625 2690.894531 1758.113281 2691.324219 C 1757.820312 2691.753906 1757.558594 2692.203125 1757.320312 2692.667969 C 1757.082031 2693.128906 1756.875 2693.605469 1756.695312 2694.09375 C 1756.519531 2694.585938 1756.371094 2695.082031 1756.253906 2695.589844 C 1756.136719 2696.097656 1756.050781 2696.609375 1755.996094 2697.128906 C 1755.945312 2697.644531 1755.921875 2698.164062 1755.929688 2698.683594 C 1755.941406 2699.207031 1755.984375 2699.722656 1756.058594 2700.238281 C 1756.128906 2700.753906 1756.234375 2701.261719 1756.371094 2701.765625 C 1756.507812 2702.269531 1756.675781 2702.761719 1756.871094 2703.242188 C 1757.070312 2703.722656 1757.292969 2704.191406 1757.550781 2704.648438 C 1757.804688 2705.101562 1758.085938 2705.539062 1758.394531 2705.957031 C 1758.703125 2706.375 1759.035156 2706.777344 1759.394531 2707.152344 C 1759.75 2707.53125 1760.128906 2707.886719 1760.53125 2708.21875 C 1760.933594 2708.550781 1761.351562 2708.855469 1761.789062 2709.136719 C 1762.230469 2709.417969 1762.683594 2709.667969 1763.152344 2709.894531 C 1763.625 2710.117188 1764.105469 2710.3125 1764.601562 2710.476562 C 1765.09375 2710.640625 1765.59375 2710.777344 1766.105469 2710.878906 C 1766.617188 2710.980469 1767.132812 2711.054688 1767.648438 2711.09375 C 1768.167969 2711.132812 1768.6875 2711.140625 1769.207031 2711.117188 C 1769.730469 2711.089844 1770.246094 2711.035156 1770.757812 2710.945312 C 1771.273438 2710.859375 1771.777344 2710.738281 1772.277344 2710.589844 C 1772.773438 2710.441406 1773.261719 2710.257812 1773.738281 2710.050781 C 1774.214844 2709.839844 1774.675781 2709.601562 1775.125 2709.332031 C 1775.570312 2709.066406 1776 2708.773438 1776.410156 2708.453125 C 1776.820312 2708.132812 1777.210938 2707.789062 1777.578125 2707.421875 C 1777.945312 2707.054688 1778.292969 2706.664062 1778.613281 2706.253906 C 1778.933594 2705.84375 1779.226562 2705.414062 1779.496094 2704.96875 C 1779.761719 2704.523438 1780 2704.0625 1780.214844 2703.585938 C 1780.425781 2703.109375 1780.605469 2702.621094 1780.757812 2702.125 C 1780.90625 2701.625 1781.027344 2701.121094 1781.117188 2700.609375 C 1781.203125 2700.09375 1781.261719 2699.578125 1781.289062 2699.058594 C 1781.3125 2698.539062 1781.304688 2698.019531 1781.265625 2697.5 C 1781.226562 2696.980469 1781.15625 2696.464844 1781.054688 2695.953125 C 1780.953125 2695.445312 1780.820312 2694.941406 1780.65625 2694.449219 C 1780.492188 2693.953125 1780.300781 2693.472656 1780.074219 2693 C 1779.851562 2692.53125 1779.601562 2692.074219 1779.320312 2691.636719 C 1779.042969 2691.195312 1778.738281 2690.777344 1778.40625 2690.375 C 1779.066406 2690.023438 1779.734375 2689.675781 1780.464844 2689.335938 C 1790.199219 2686.5 1800.289062 2687.5625 1809.132812 2691.691406 C 1822.132812 2697.761719 1830.496094 2710.09375 1832.398438 2723.835938 C 1832.511719 2724.453125 1832.609375 2725.054688 1832.695312 2725.644531 C 1833.25 2729.1875 1833.441406 2732.75 1833.273438 2736.335938 C 1833.097656 2735.75 1832.863281 2735.191406 1832.570312 2734.65625 C 1830.789062 2731.289062 1824.777344 2724.136719 1806.167969 2726.046875 C 1752.351562 2737.113281 1757.164062 2787.398438 1758.097656 2794.359375 C 1757.621094 2794.554688 1757.160156 2794.777344 1756.710938 2795.03125 C 1756.265625 2795.28125 1755.832031 2795.558594 1755.417969 2795.859375 C 1755.003906 2796.164062 1754.609375 2796.492188 1754.234375 2796.839844 C 1753.859375 2797.191406 1753.507812 2797.5625 1753.175781 2797.957031 C 1752.84375 2798.347656 1752.539062 2798.761719 1752.257812 2799.191406 C 1751.976562 2799.621094 1751.722656 2800.066406 1751.496094 2800.527344 C 1751.269531 2800.984375 1751.070312 2801.457031 1750.898438 2801.941406 C 1750.730469 2802.425781 1750.589844 2802.917969 1750.476562 2803.421875 C 1750.367188 2803.921875 1750.285156 2804.429688 1750.234375 2804.9375 C 1750.183594 2805.449219 1750.164062 2805.960938 1750.175781 2806.476562 C 1750.1875 2806.988281 1750.230469 2807.5 1750.304688 2808.007812 C 1750.378906 2808.515625 1750.480469 2809.019531 1750.613281 2809.515625 C 1750.746094 2810.007812 1750.910156 2810.496094 1751.101562 2810.972656 C 1751.292969 2811.449219 1751.511719 2811.910156 1751.761719 2812.359375 C 1752.007812 2812.8125 1752.28125 2813.242188 1752.582031 2813.660156 C 1752.882812 2814.078125 1753.207031 2814.476562 1753.554688 2814.851562 C 1753.902344 2815.230469 1754.269531 2815.585938 1754.660156 2815.917969 C 1755.050781 2816.253906 1755.460938 2816.5625 1755.886719 2816.84375 C 1756.316406 2817.128906 1756.757812 2817.386719 1757.21875 2817.617188 C 1757.675781 2817.847656 1758.148438 2818.050781 1758.628906 2818.226562 C 1759.113281 2818.398438 1759.605469 2818.542969 1760.105469 2818.660156 C 1760.605469 2818.773438 1761.109375 2818.859375 1761.621094 2818.914062 C 1762.132812 2818.964844 1762.644531 2818.988281 1763.15625 2818.980469 C 1763.671875 2818.972656 1764.179688 2818.9375 1764.691406 2818.867188 C 1765.199219 2818.796875 1765.703125 2818.699219 1766.199219 2818.570312 C 1766.695312 2818.4375 1767.183594 2818.28125 1767.660156 2818.09375 C 1768.136719 2817.902344 1768.601562 2817.6875 1769.054688 2817.441406 C 1769.503906 2817.199219 1769.941406 2816.929688 1770.359375 2816.632812 C 1770.777344 2816.335938 1771.179688 2816.015625 1771.558594 2815.667969 C 1771.941406 2815.324219 1772.296875 2814.957031 1772.632812 2814.570312 C 1772.972656 2814.183594 1773.28125 2813.777344 1773.570312 2813.351562 C 1773.859375 2812.925781 1774.117188 2812.484375 1774.351562 2812.027344 C 1774.585938 2811.570312 1774.792969 2811.101562 1774.96875 2810.621094 C 1775.148438 2810.136719 1775.296875 2809.648438 1775.414062 2809.148438 C 1775.535156 2808.648438 1775.621094 2808.144531 1775.679688 2807.632812 C 1775.738281 2807.121094 1775.765625 2806.609375 1775.761719 2806.097656 C 1775.757812 2805.585938 1775.722656 2805.074219 1775.65625 2804.5625 C 1775.59375 2804.054688 1775.496094 2803.550781 1775.371094 2803.054688 C 1775.246094 2802.554688 1775.089844 2802.066406 1774.90625 2801.585938 C 1774.722656 2801.109375 1774.507812 2800.640625 1774.265625 2800.1875 C 1774.027344 2799.734375 1773.757812 2799.296875 1773.464844 2798.875 C 1773.171875 2798.457031 1772.855469 2798.054688 1772.511719 2797.671875 C 1772.171875 2797.289062 1771.808594 2796.925781 1771.421875 2796.585938 C 1771.035156 2796.246094 1770.632812 2795.933594 1770.210938 2795.640625 C 1769.785156 2795.351562 1769.347656 2795.085938 1768.890625 2794.851562 C 1768.4375 2794.613281 1767.96875 2794.402344 1767.488281 2794.222656 C 1767.007812 2794.039062 1766.519531 2793.886719 1766.019531 2793.765625 C 1765.519531 2793.644531 1765.015625 2793.550781 1764.507812 2793.488281 C 1767.046875 2778.515625 1779.171875 2768.738281 1793.234375 2765.765625 C 1793.210938 2765.808594 1821.785156 2758.488281 1836.828125 2793.738281 C 1836.742188 2793.824219 1836.636719 2793.886719 1836.554688 2793.976562 C 1834.71875 2795.964844 1832.652344 2799.550781 1833.226562 2805.324219 C 1833.859375 2811.683594 1837.414062 2817.660156 1842.503906 2820.925781 C 1843.984375 2821.898438 1845.585938 2822.59375 1847.308594 2823.011719 C 1849.03125 2823.425781 1850.773438 2823.542969 1852.535156 2823.355469 L 1853.722656 2826.796875 C 1858.113281 2839.542969 1874.246094 2850.363281 1883.882812 2856.832031 C 1885.476562 2857.902344 1886.882812 2858.839844 1888.003906 2859.640625 C 1889.667969 2860.835938 1891.488281 2861.714844 1893.460938 2862.277344 C 1895.433594 2862.839844 1897.441406 2863.050781 1899.488281 2862.910156 C 1904.773438 2862.515625 1910.179688 2860.726562 1911.347656 2860.324219 C 1911.519531 2860.265625 1911.492188 2860.277344 1911.734375 2860.191406 C 1912.789062 2859.828125 1918.148438 2857.910156 1922.554688 2854.964844 C 1924.253906 2853.816406 1925.707031 2852.410156 1926.917969 2850.753906 C 1928.125 2849.097656 1929.015625 2847.285156 1929.59375 2845.316406 C 1929.980469 2843.996094 1930.507812 2842.390625 1931.105469 2840.566406 C 1934.71875 2829.535156 1940.765625 2811.074219 1936.378906 2798.328125 L 1935.191406 2794.886719 C 1936.695312 2793.949219 1937.996094 2792.785156 1939.097656 2791.394531 C 1940.199219 2790.007812 1941.03125 2788.472656 1941.601562 2786.792969 C 1943.601562 2781.085938 1942.722656 2774.1875 1939.304688 2768.789062 C 1936.199219 2763.886719 1932.363281 2762.335938 1929.695312 2761.898438 C 1929.570312 2761.878906 1929.453125 2761.894531 1929.332031 2761.878906 C 1919.476562 2724.839844 1946.5 2713.011719 1946.5 2713.011719 C 1959.363281 2706.675781 1974.941406 2706.914062 1986.160156 2717.148438 C 1985.800781 2717.507812 1985.46875 2717.886719 1985.15625 2718.285156 C 1984.84375 2718.683594 1984.554688 2719.101562 1984.292969 2719.535156 C 1984.03125 2719.96875 1983.796875 2720.414062 1983.589844 2720.878906 C 1983.382812 2721.339844 1983.203125 2721.8125 1983.050781 2722.296875 C 1982.898438 2722.78125 1982.777344 2723.269531 1982.683594 2723.769531 C 1982.59375 2724.265625 1982.53125 2724.769531 1982.5 2725.273438 C 1982.46875 2725.78125 1982.464844 2726.285156 1982.496094 2726.792969 C 1982.523438 2727.296875 1982.582031 2727.800781 1982.671875 2728.300781 C 1982.761719 2728.796875 1982.878906 2729.289062 1983.027344 2729.773438 C 1983.175781 2730.257812 1983.355469 2730.730469 1983.558594 2731.195312 C 1983.765625 2731.65625 1983.996094 2732.105469 1984.257812 2732.542969 C 1984.515625 2732.976562 1984.800781 2733.394531 1985.109375 2733.796875 C 1985.421875 2734.199219 1985.753906 2734.578125 1986.109375 2734.941406 C 1986.464844 2735.300781 1986.839844 2735.640625 1987.238281 2735.953125 C 1987.632812 2736.269531 1988.046875 2736.5625 1988.476562 2736.828125 C 1988.910156 2737.09375 1989.355469 2737.332031 1989.816406 2737.546875 C 1990.277344 2737.757812 1990.746094 2737.941406 1991.230469 2738.097656 C 1991.710938 2738.253906 1992.199219 2738.378906 1992.699219 2738.476562 C 1993.195312 2738.574219 1993.695312 2738.640625 1994.203125 2738.675781 C 1994.707031 2738.710938 1995.214844 2738.71875 1995.71875 2738.695312 C 1996.226562 2738.671875 1996.726562 2738.617188 1997.226562 2738.53125 C 1997.726562 2738.445312 1998.21875 2738.332031 1998.707031 2738.1875 C 1999.191406 2738.042969 1999.667969 2737.871094 2000.132812 2737.671875 C 2000.597656 2737.46875 2001.046875 2737.242188 2001.484375 2736.984375 C 2001.921875 2736.730469 2002.34375 2736.449219 2002.75 2736.144531 C 2003.152344 2735.835938 2003.535156 2735.507812 2003.898438 2735.15625 C 2004.265625 2734.804688 2004.605469 2734.429688 2004.925781 2734.039062 C 2005.246094 2733.644531 2005.539062 2733.234375 2005.808594 2732.804688 C 2006.078125 2732.375 2006.324219 2731.933594 2006.539062 2731.472656 C 2006.757812 2731.015625 2006.945312 2730.546875 2007.105469 2730.066406 C 2007.265625 2729.585938 2007.394531 2729.097656 2007.496094 2728.601562 C 2007.597656 2728.105469 2007.671875 2727.601562 2007.710938 2727.097656 C 2007.753906 2726.59375 2007.765625 2726.085938 2007.746094 2725.582031 C 2007.726562 2725.074219 2007.675781 2724.570312 2007.59375 2724.070312 C 2007.515625 2723.570312 2007.40625 2723.078125 2007.265625 2722.589844 C 2007.125 2722.101562 2006.957031 2721.625 2006.761719 2721.160156 C 2006.566406 2720.691406 2006.339844 2720.238281 2006.089844 2719.800781 C 2005.835938 2719.359375 2005.5625 2718.9375 2005.257812 2718.527344 C 2004.957031 2718.121094 2004.628906 2717.734375 2004.28125 2717.367188 C 2003.933594 2717 2003.5625 2716.65625 2003.171875 2716.332031 C 2002.78125 2716.007812 2002.375 2715.710938 2001.949219 2715.4375 C 2001.523438 2715.164062 2001.082031 2714.914062 2000.625 2714.695312 C 2000.167969 2714.472656 1999.703125 2714.28125 1999.222656 2714.117188 C 1998.742188 2713.949219 1998.253906 2713.816406 1997.761719 2713.710938 C 1997.265625 2713.601562 1996.765625 2713.527344 1996.261719 2713.480469 C 1995.753906 2713.433594 1995.25 2713.417969 1994.742188 2713.433594 C 1994.238281 2713.449219 1993.734375 2713.496094 1993.230469 2713.570312 C 1992.730469 2713.644531 1992.238281 2713.75 1991.75 2713.886719 Z M 1850.1875 2816.554688 C 1848.742188 2816.414062 1847.417969 2815.941406 1846.210938 2815.136719 C 1842.898438 2813.015625 1840.488281 2808.898438 1840.066406 2804.644531 C 1839.808594 2802.082031 1840.34375 2800.003906 1841.605469 2798.636719 C 1842.15625 2798.046875 1842.804688 2797.601562 1843.554688 2797.300781 Z M 1929.878906 2800.566406 C 1933.519531 2811.128906 1927.921875 2828.21875 1924.574219 2838.425781 C 1923.953125 2840.324219 1923.410156 2841.992188 1923.003906 2843.363281 C 1922.65625 2844.5625 1922.117188 2845.667969 1921.382812 2846.679688 C 1920.648438 2847.691406 1919.765625 2848.546875 1918.734375 2849.25 C 1914.71875 2851.9375 1909.445312 2853.722656 1909.390625 2853.730469 L 1909.132812 2853.820312 C 1909.042969 2853.863281 1903.796875 2855.695312 1898.980469 2856.054688 C 1897.734375 2856.136719 1896.511719 2856.007812 1895.308594 2855.660156 C 1894.109375 2855.316406 1893.003906 2854.777344 1891.992188 2854.046875 C 1890.828125 2853.214844 1889.367188 2852.238281 1887.710938 2851.125 C 1878.789062 2845.140625 1863.855469 2835.121094 1860.21875 2824.558594 L 1845.835938 2782.816406 C 1845.3125 2780.980469 1844.941406 2779.347656 1844.664062 2777.832031 C 1846.953125 2771.96875 1851.394531 2767.28125 1857.398438 2765.214844 C 1865.808594 2762.316406 1874.960938 2765.371094 1881.148438 2772.207031 C 1881.816406 2763.007812 1887.148438 2754.96875 1895.554688 2752.070312 C 1901.570312 2750 1907.96875 2750.96875 1913.386719 2754.191406 C 1914.070312 2755.507812 1914.753906 2756.957031 1915.441406 2758.640625 Z M 1933.496094 2772.464844 C 1935.78125 2776.074219 1936.417969 2780.804688 1935.113281 2784.519531 C 1934.65625 2785.894531 1933.90625 2787.082031 1932.855469 2788.082031 L 1926.222656 2768.828125 C 1927 2768.601562 1927.785156 2768.554688 1928.582031 2768.679688 C 1930.421875 2768.980469 1932.121094 2770.289062 1933.496094 2772.464844 Z M 1874.042969 2830.644531 C 1874.042969 2830.644531 1874.800781 2831.117188 1876.023438 2831.828125 C 1885.34375 2837.527344 1889.296875 2852.675781 1906.789062 2846.648438 C 1924.285156 2840.625 1918.074219 2826.253906 1921.960938 2815.933594 C 1922.429688 2814.710938 1922.738281 2813.871094 1922.738281 2813.871094 C 1919.234375 2816.484375 1915.550781 2818.8125 1911.6875 2820.855469 C 1907.824219 2822.898438 1903.828125 2824.628906 1899.695312 2826.050781 C 1895.566406 2827.476562 1891.347656 2828.570312 1887.046875 2829.34375 C 1882.746094 2830.113281 1878.410156 2830.546875 1874.042969 2830.644531 Z M 1904.375 2839.640625 C 1894.242188 2843.128906 1891.664062 2838.984375 1884.839844 2833.667969 C 1890.726562 2835.605469 1901.6875 2831.835938 1901.6875 2831.835938 C 1901.6875 2831.835938 1912.644531 2828.058594 1916.089844 2822.902344 C 1913.984375 2831.296875 1914.507812 2836.148438 1904.375 2839.640625 Z M 1892.34375 2804.703125 C 1892.902344 2804.507812 1893.472656 2804.375 1894.058594 2804.292969 C 1894.644531 2804.214844 1895.234375 2804.191406 1895.824219 2804.226562 C 1896.414062 2804.265625 1896.996094 2804.355469 1897.566406 2804.507812 C 1898.140625 2804.660156 1898.691406 2804.863281 1899.222656 2805.121094 C 1899.753906 2805.382812 1900.253906 2805.691406 1900.726562 2806.046875 C 1901.195312 2806.40625 1901.628906 2806.808594 1902.019531 2807.25 C 1902.414062 2807.691406 1902.757812 2808.167969 1903.054688 2808.679688 C 1903.351562 2809.191406 1903.597656 2809.726562 1903.792969 2810.285156 C 1903.984375 2810.84375 1904.121094 2811.417969 1904.199219 2812.003906 C 1904.28125 2812.589844 1904.300781 2813.175781 1904.265625 2813.769531 C 1904.230469 2814.359375 1904.136719 2814.9375 1903.984375 2815.511719 C 1903.835938 2816.082031 1903.628906 2816.632812 1903.371094 2817.167969 C 1903.113281 2817.699219 1902.804688 2818.199219 1902.445312 2818.667969 C 1902.085938 2819.140625 1901.6875 2819.570312 1901.242188 2819.964844 C 1900.800781 2820.355469 1900.324219 2820.699219 1899.8125 2821 C 1899.300781 2821.296875 1898.765625 2821.542969 1898.207031 2821.734375 C 1897.648438 2821.925781 1897.074219 2822.0625 1896.488281 2822.144531 C 1895.902344 2822.222656 1895.316406 2822.246094 1894.726562 2822.207031 C 1894.136719 2822.171875 1893.554688 2822.078125 1892.980469 2821.929688 C 1892.410156 2821.777344 1891.859375 2821.574219 1891.328125 2821.3125 C 1890.796875 2821.054688 1890.292969 2820.746094 1889.824219 2820.386719 C 1889.351562 2820.03125 1888.921875 2819.628906 1888.527344 2819.1875 C 1888.136719 2818.746094 1887.792969 2818.265625 1887.496094 2817.757812 C 1887.195312 2817.246094 1886.949219 2816.710938 1886.757812 2816.152344 C 1886.566406 2815.59375 1886.429688 2815.019531 1886.351562 2814.433594 C 1886.269531 2813.847656 1886.25 2813.257812 1886.285156 2812.667969 C 1886.320312 2812.078125 1886.414062 2811.496094 1886.5625 2810.925781 C 1886.714844 2810.355469 1886.917969 2809.800781 1887.179688 2809.269531 C 1887.4375 2808.738281 1887.746094 2808.238281 1888.105469 2807.765625 C 1888.460938 2807.296875 1888.863281 2806.863281 1889.304688 2806.472656 C 1889.75 2806.082031 1890.226562 2805.734375 1890.738281 2805.4375 C 1891.246094 2805.140625 1891.78125 2804.894531 1892.34375 2804.703125 Z M 1865.320312 2800.714844 C 1862.011719 2802.132812 1859.226562 2804.242188 1856.964844 2807.042969 C 1856.742188 2801.800781 1859.941406 2796.566406 1865.324219 2793.964844 L 1862.292969 2779.265625 L 1868.960938 2792.714844 C 1875.339844 2791.390625 1881.769531 2794.230469 1884.222656 2799.910156 C 1884.523438 2800.621094 1884.753906 2801.351562 1884.914062 2802.105469 C 1882.925781 2800.828125 1880.777344 2799.933594 1878.472656 2799.414062 C 1876.167969 2798.894531 1873.84375 2798.785156 1871.5 2799.085938 L 1875.046875 2816.285156 L 1867.023438 2800.097656 C 1866.453125 2800.292969 1865.882812 2800.472656 1865.320312 2800.714844 Z M 1921.65625 2784.761719 C 1918.152344 2783.949219 1914.660156 2784 1911.179688 2784.921875 C 1910.585938 2785.074219 1910.027344 2785.285156 1909.457031 2785.484375 L 1913.105469 2803.175781 L 1905.308594 2787.441406 C 1903.277344 2788.648438 1901.511719 2790.164062 1900.015625 2791.992188 C 1898.519531 2793.820312 1897.378906 2795.851562 1896.601562 2798.082031 C 1896.261719 2797.390625 1895.992188 2796.671875 1895.792969 2795.925781 C 1894.222656 2789.941406 1897.539062 2783.742188 1903.386719 2780.859375 L 1900.355469 2766.15625 L 1907.019531 2779.605469 C 1912.859375 2778.339844 1918.609375 2780.496094 1921.660156 2784.761719 Z M 1921.65625 2784.761719 " fill-opacity="1" fill-rule="nonzero"/></g></g></g><g clip-path="url(#07a2ca0ec9)"><path fill="#ff0b06" d="M 239.953125 502.816406 C 236.597656 527.070312 258.226562 541.507812 258.445312 541.65625 C 259.175781 542.132812 259.589844 542.964844 259.535156 543.847656 C 259.527344 544.105469 257.925781 569.675781 261.707031 587.277344 C 264.1875 598.792969 268.179688 609.96875 273.582031 620.507812 C 276.394531 626.015625 282.140625 629.570312 288.566406 629.785156 C 302.007812 630.261719 310.804688 626.859375 314.707031 624.867188 C 290.035156 596.707031 283.117188 550.511719 282.832031 548.511719 C 282.71875 547.734375 282.984375 546.957031 283.542969 546.414062 C 284.101562 545.867188 284.878906 545.609375 285.65625 545.769531 C 290.273438 546.585938 299.371094 547.230469 308.339844 542.1875 C 314.027344 538.984375 317.449219 534.71875 318.984375 532.460938 C 322.328125 527.5625 323.722656 522.566406 324.234375 518.464844 C 319.714844 520.3125 314.984375 521.457031 310.113281 521.894531 C 305.6875 522.285156 301.183594 522.085938 296.757812 521.25 C 295.996094 521.109375 295.351562 520.617188 295.023438 519.921875 C 291.402344 512.484375 289.542969 504.21875 289.648438 496.027344 C 289.75 487.914062 291.683594 481.023438 294.027344 475.621094 C 288.082031 479.222656 282.746094 483.769531 278.328125 489.011719 C 273.941406 494.214844 270.433594 500.082031 267.894531 506.453125 C 267.5625 507.265625 266.824219 507.84375 265.949219 507.957031 C 265.847656 507.96875 265.742188 507.976562 265.636719 507.976562 C 264.871094 507.976562 264.148438 507.617188 263.683594 506.992188 C 260.347656 502.460938 257.847656 497.464844 256.246094 492.128906 C 254.007812 484.648438 253.902344 477.742188 254.585938 472.128906 C 248.898438 477.503906 240.757812 487.75 239.953125 502.8125 Z M 239.953125 502.816406 " fill-opacity="1" fill-rule="nonzero"/></g><g clip-path="url(#6e6f42f249)"><path fill="#ff0b06" d="M 241.214844 481.535156 C 246.863281 471.433594 254.644531 465.535156 256.835938 464.03125 C 257.253906 463.746094 257.726562 463.605469 258.210938 463.605469 C 258.691406 463.605469 259.1875 463.746094 259.601562 464.039062 C 260.4375 464.628906 260.816406 465.660156 260.558594 466.648438 C 259.101562 472.25 257.964844 480.980469 260.890625 490.730469 C 261.925781 494.164062 263.367188 497.433594 265.195312 500.511719 C 267.707031 495.242188 270.863281 490.34375 274.617188 485.890625 C 281.121094 478.171875 289.488281 471.851562 298.796875 467.625 C 299.765625 467.171875 300.929688 467.425781 301.632812 468.230469 C 302.332031 469.035156 302.425781 470.210938 301.859375 471.121094 C 298.578125 476.363281 294.644531 484.957031 294.503906 496.085938 C 294.417969 503.128906 295.917969 510.21875 298.863281 516.679688 C 302.457031 517.257812 306.097656 517.382812 309.675781 517.058594 C 315.308594 516.558594 320.738281 514.996094 325.816406 512.414062 C 326.578125 512.027344 327.449219 512.074219 328.199219 512.507812 C 328.910156 512.953125 329.355469 513.742188 329.34375 514.59375 C 329.339844 515.8125 329.253906 517.199219 329.089844 518.667969 C 332.125 517.613281 335.128906 516.386719 338.078125 514.972656 C 345.792969 511.265625 352.597656 506.59375 358.871094 500.699219 L 358.871094 500.6875 C 368.273438 491.84375 376.320312 481.210938 384.101562 470.9375 C 402.261719 446.925781 421.050781 422.113281 457.597656 420.699219 C 465.238281 420.464844 472.914062 421.214844 480.335938 421.988281 C 490.515625 423.0625 500.109375 424.066406 509.710938 422.53125 C 537.261719 418.140625 556.371094 395.289062 576.75 368.105469 C 596.464844 341.832031 618.851562 317.1875 648.890625 314.863281 C 673.304688 312.929688 695.570312 327.234375 709.910156 339.527344 L 711.066406 340.523438 C 714.847656 343.792969 718.414062 346.871094 722.726562 348.363281 C 724.382812 348.929688 725.9375 349.214844 727.363281 349.214844 C 729.808594 349.214844 731.863281 348.390625 733.371094 346.769531 C 736.035156 343.898438 736.441406 338.996094 734.414062 334.273438 C 719.523438 299.628906 693.847656 270.582031 663.960938 254.554688 C 631.933594 237.367188 593.253906 236.574219 565.433594 252.515625 C 552.78125 259.765625 542.082031 270.03125 531.730469 279.957031 C 524.46875 286.921875 516.964844 294.125 508.753906 300.34375 C 484.128906 318.957031 459.335938 319.582031 429.648438 314.742188 C 357.15625 302.882812 277.628906 350.617188 248.640625 423.304688 C 244.605469 433.425781 236.152344 458.738281 241.222656 481.53125 Z M 319.882812 492.957031 C 323.015625 488.253906 327.566406 484.71875 331.828125 481.011719 C 339.027344 474.753906 345.597656 467.78125 351.417969 460.230469 C 355.96875 454.320312 360.140625 447.980469 365.933594 443.28125 C 367.34375 442.140625 369.226562 441.054688 370.875 441.816406 C 371.992188 442.328125 372.605469 443.542969 372.925781 444.726562 C 373.976562 448.601562 372.78125 452.714844 371.28125 456.441406 C 365.925781 469.773438 355.914062 485.328125 343.921875 495.039062 C 341.886719 496.6875 339.792969 498.171875 337.652344 499.441406 C 333.722656 501.78125 329.050781 503.175781 324.546875 502.375 C 321.5625 501.84375 318.375 499.734375 318.425781 496.703125 C 318.449219 495.347656 319.128906 494.089844 319.882812 492.960938 Z M 319.882812 492.957031 " fill-opacity="1" fill-rule="nonzero"/></g><g clip-path="url(#86ba583734)"><g clip-path="url(#438ad4d991)"><g clip-path="url(#2a3408a541)"><path fill="#ff0b06" d="M 370.148438 586.050781 C 373.699219 592.109375 400.875 634.691406 450.089844 610.273438 C 460.691406 602.601562 464.492188 594.464844 465.867188 589.652344 C 466.296875 588.246094 466.558594 586.8125 466.652344 585.347656 C 467.855469 588.554688 469.242188 591.675781 470.8125 594.71875 C 472.890625 598.839844 475.367188 603.175781 477.582031 606.054688 C 509.25 643.722656 543.300781 635.960938 547.039062 635.40625 C 547.15625 635.367188 547.257812 635.308594 547.347656 635.226562 C 568.648438 631.710938 582.304688 618.257812 587.195312 612.625 C 587.652344 612.875 588.125 613.09375 588.605469 613.285156 C 589.089844 613.476562 589.585938 613.640625 590.089844 613.769531 C 590.59375 613.902344 591.101562 614 591.617188 614.070312 C 592.136719 614.136719 592.652344 614.175781 593.175781 614.179688 C 593.695312 614.183594 594.214844 614.15625 594.730469 614.097656 C 595.246094 614.035156 595.757812 613.945312 596.265625 613.824219 C 596.773438 613.699219 597.269531 613.546875 597.753906 613.363281 C 598.242188 613.179688 598.714844 612.96875 599.179688 612.726562 C 599.640625 612.484375 600.082031 612.214844 600.511719 611.917969 C 600.9375 611.621094 601.347656 611.300781 601.734375 610.953125 C 602.125 610.605469 602.488281 610.238281 602.832031 609.84375 C 603.175781 609.453125 603.492188 609.042969 603.785156 608.609375 C 604.074219 608.179688 604.339844 607.730469 604.578125 607.269531 C 604.816406 606.804688 605.023438 606.328125 605.199219 605.839844 C 605.378906 605.351562 605.527344 604.851562 605.644531 604.34375 C 605.761719 603.839844 605.847656 603.324219 605.902344 602.808594 C 605.953125 602.289062 605.976562 601.769531 605.964844 601.25 C 605.957031 600.730469 605.914062 600.210938 605.839844 599.695312 C 605.765625 599.179688 605.664062 598.671875 605.527344 598.167969 C 605.390625 597.667969 605.222656 597.175781 605.027344 596.691406 C 604.828125 596.210938 604.601562 595.742188 604.347656 595.289062 C 604.09375 594.835938 603.8125 594.398438 603.503906 593.976562 C 603.195312 593.558594 602.863281 593.160156 602.503906 592.78125 C 602.148438 592.402344 601.769531 592.046875 601.367188 591.714844 C 600.964844 591.382812 600.546875 591.078125 600.105469 590.796875 C 599.667969 590.519531 599.214844 590.265625 598.742188 590.042969 C 598.273438 589.816406 597.792969 589.625 597.296875 589.457031 C 596.804688 589.292969 596.300781 589.160156 595.792969 589.058594 C 595.28125 588.953125 594.765625 588.882812 594.246094 588.84375 C 593.730469 588.804688 593.210938 588.796875 592.6875 588.820312 C 592.167969 588.84375 591.652344 588.902344 591.140625 588.988281 C 590.625 589.078125 590.121094 589.195312 589.621094 589.34375 C 589.125 589.496094 588.636719 589.675781 588.160156 589.886719 C 587.683594 590.097656 587.222656 590.335938 586.773438 590.601562 C 586.328125 590.871094 585.898438 591.164062 585.488281 591.484375 C 585.078125 591.800781 584.6875 592.144531 584.320312 592.515625 C 583.949219 592.882812 583.605469 593.269531 583.285156 593.679688 C 582.964844 594.089844 582.671875 594.519531 582.402344 594.964844 C 582.136719 595.414062 581.894531 595.875 581.683594 596.351562 C 581.472656 596.824219 581.292969 597.3125 581.140625 597.8125 C 580.992188 598.308594 580.871094 598.816406 580.78125 599.328125 C 580.691406 599.839844 580.636719 600.355469 580.609375 600.878906 C 580.585938 601.398438 580.59375 601.917969 580.632812 602.4375 C 580.667969 602.957031 580.742188 603.46875 580.84375 603.980469 C 580.945312 604.492188 581.078125 604.992188 581.242188 605.488281 C 581.40625 605.980469 581.597656 606.464844 581.824219 606.933594 C 582.046875 607.40625 582.296875 607.859375 582.578125 608.300781 C 582.855469 608.738281 583.160156 609.160156 583.492188 609.5625 C 582.832031 609.910156 582.164062 610.261719 581.433594 610.597656 C 571.699219 613.433594 561.609375 612.371094 552.765625 608.242188 C 539.765625 602.175781 531.402344 589.84375 529.5 576.097656 C 529.386719 575.480469 529.289062 574.878906 529.203125 574.289062 C 528.648438 570.746094 528.457031 567.183594 528.625 563.601562 C 528.800781 564.183594 529.03125 564.746094 529.328125 565.277344 C 531.109375 568.648438 537.121094 575.796875 555.730469 573.886719 C 609.546875 562.820312 604.734375 512.535156 603.800781 505.574219 C 604.277344 505.378906 604.738281 505.15625 605.1875 504.90625 C 605.632812 504.65625 606.066406 504.378906 606.480469 504.074219 C 606.894531 503.773438 607.289062 503.445312 607.664062 503.09375 C 608.039062 502.742188 608.390625 502.371094 608.722656 501.980469 C 609.054688 501.585938 609.359375 501.175781 609.640625 500.746094 C 609.921875 500.316406 610.175781 499.871094 610.402344 499.410156 C 610.628906 498.949219 610.828125 498.476562 611 497.992188 C 611.167969 497.507812 611.308594 497.015625 611.421875 496.515625 C 611.53125 496.011719 611.613281 495.507812 611.664062 494.996094 C 611.710938 494.484375 611.730469 493.972656 611.722656 493.460938 C 611.710938 492.945312 611.667969 492.4375 611.59375 491.925781 C 611.519531 491.417969 611.417969 490.917969 611.285156 490.421875 C 611.152344 489.925781 610.988281 489.441406 610.796875 488.964844 C 610.605469 488.488281 610.386719 488.023438 610.136719 487.574219 C 609.890625 487.125 609.617188 486.691406 609.316406 486.273438 C 609.015625 485.859375 608.691406 485.460938 608.34375 485.082031 C 607.996094 484.703125 607.628906 484.347656 607.238281 484.015625 C 606.847656 483.683594 606.4375 483.375 606.011719 483.089844 C 605.582031 482.804688 605.140625 482.546875 604.679688 482.316406 C 604.222656 482.085938 603.75 481.882812 603.269531 481.710938 C 602.785156 481.535156 602.292969 481.390625 601.792969 481.277344 C 601.292969 481.160156 600.789062 481.078125 600.277344 481.023438 C 599.765625 480.96875 599.253906 480.945312 598.742188 480.953125 C 598.226562 480.960938 597.714844 481 597.207031 481.070312 C 596.699219 481.136719 596.195312 481.238281 595.699219 481.367188 C 595.203125 481.496094 594.714844 481.65625 594.238281 481.84375 C 593.761719 482.03125 593.296875 482.246094 592.84375 482.492188 C 592.390625 482.738281 591.957031 483.007812 591.539062 483.304688 C 591.117188 483.601562 590.71875 483.921875 590.339844 484.265625 C 589.957031 484.609375 589.601562 484.976562 589.261719 485.363281 C 588.925781 485.753906 588.617188 486.160156 588.328125 486.585938 C 588.039062 487.011719 587.78125 487.453125 587.546875 487.910156 C 587.3125 488.367188 587.105469 488.835938 586.925781 489.316406 C 586.75 489.796875 586.601562 490.289062 586.484375 490.789062 C 586.363281 491.289062 586.277344 491.792969 586.21875 492.300781 C 586.160156 492.8125 586.132812 493.324219 586.136719 493.835938 C 586.140625 494.351562 586.175781 494.863281 586.238281 495.371094 C 586.304688 495.882812 586.402344 496.382812 586.527344 496.882812 C 586.652344 497.378906 586.808594 497.867188 586.992188 498.347656 C 587.175781 498.828125 587.390625 499.292969 587.628906 499.746094 C 587.871094 500.199219 588.140625 500.636719 588.433594 501.058594 C 588.726562 501.480469 589.042969 501.882812 589.386719 502.265625 C 589.726562 502.648438 590.089844 503.007812 590.476562 503.347656 C 590.863281 503.6875 591.265625 504.003906 591.6875 504.292969 C 592.113281 504.582031 592.550781 504.847656 593.007812 505.085938 C 593.460938 505.324219 593.929688 505.53125 594.410156 505.714844 C 594.890625 505.894531 595.378906 506.046875 595.878906 506.171875 C 596.375 506.292969 596.878906 506.386719 597.390625 506.445312 C 594.851562 521.417969 582.726562 531.199219 568.664062 534.171875 C 568.6875 534.125 540.113281 541.449219 525.070312 506.195312 C 525.15625 506.109375 525.261719 506.046875 525.34375 505.957031 C 527.179688 503.96875 529.246094 500.386719 528.671875 494.613281 C 528.039062 488.25 524.484375 482.273438 519.394531 479.011719 C 517.914062 478.039062 516.3125 477.34375 514.589844 476.925781 C 512.867188 476.507812 511.125 476.394531 509.363281 476.582031 L 508.175781 473.136719 C 503.785156 460.394531 487.652344 449.570312 478.015625 443.105469 C 476.421875 442.035156 475.015625 441.09375 473.894531 440.296875 C 472.230469 439.097656 470.410156 438.21875 468.4375 437.65625 C 466.464844 437.097656 464.457031 436.886719 462.410156 437.027344 C 457.125 437.417969 451.71875 439.207031 450.550781 439.609375 C 450.378906 439.667969 450.40625 439.660156 450.164062 439.742188 C 449.109375 440.105469 443.75 442.027344 439.34375 444.972656 C 437.644531 446.121094 436.191406 447.523438 434.980469 449.179688 C 433.773438 450.839844 432.882812 452.652344 432.304688 454.621094 C 431.914062 455.9375 431.390625 457.542969 430.792969 459.367188 C 427.179688 470.398438 421.132812 488.859375 425.519531 501.605469 L 426.707031 505.050781 C 425.203125 505.988281 423.898438 507.148438 422.800781 508.539062 C 421.699219 509.929688 420.863281 511.464844 420.296875 513.140625 C 418.296875 518.847656 419.175781 525.746094 422.59375 531.148438 C 425.699219 536.050781 429.53125 537.601562 432.203125 538.035156 C 432.324219 538.054688 432.445312 538.039062 432.566406 538.058594 C 442.421875 575.09375 415.398438 586.921875 415.398438 586.921875 C 402.535156 593.257812 386.957031 593.023438 375.738281 582.789062 C 376.097656 582.429688 376.429688 582.050781 376.742188 581.652344 C 377.054688 581.25 377.339844 580.835938 377.605469 580.402344 C 377.867188 579.96875 378.101562 579.519531 378.308594 579.058594 C 378.515625 578.597656 378.695312 578.125 378.847656 577.640625 C 379 577.15625 379.121094 576.664062 379.214844 576.167969 C 379.304688 575.667969 379.367188 575.167969 379.398438 574.660156 C 379.429688 574.15625 379.433594 573.648438 379.402344 573.144531 C 379.375 572.636719 379.316406 572.136719 379.226562 571.636719 C 379.136719 571.136719 379.019531 570.644531 378.867188 570.160156 C 378.71875 569.675781 378.542969 569.203125 378.339844 568.742188 C 378.132812 568.277344 377.898438 567.828125 377.640625 567.394531 C 377.382812 566.957031 377.097656 566.539062 376.785156 566.136719 C 376.476562 565.738281 376.144531 565.355469 375.789062 564.996094 C 375.433594 564.632812 375.058594 564.296875 374.660156 563.980469 C 374.265625 563.664062 373.851562 563.375 373.417969 563.109375 C 372.988281 562.84375 372.542969 562.601562 372.082031 562.390625 C 371.621094 562.179688 371.152344 561.992188 370.667969 561.839844 C 370.1875 561.683594 369.699219 561.554688 369.199219 561.460938 C 368.703125 561.363281 368.203125 561.296875 367.695312 561.257812 C 367.191406 561.222656 366.683594 561.214844 366.179688 561.242188 C 365.671875 561.265625 365.167969 561.320312 364.671875 561.402344 C 364.171875 561.488281 363.679688 561.601562 363.191406 561.746094 C 362.707031 561.890625 362.230469 562.0625 361.765625 562.265625 C 361.300781 562.464844 360.851562 562.695312 360.410156 562.949219 C 359.972656 563.207031 359.554688 563.484375 359.148438 563.792969 C 358.746094 564.097656 358.363281 564.425781 357.996094 564.78125 C 357.632812 565.132812 357.292969 565.503906 356.972656 565.898438 C 356.652344 566.292969 356.359375 566.703125 356.089844 567.132812 C 355.816406 567.558594 355.574219 568.003906 355.359375 568.460938 C 355.140625 568.917969 354.953125 569.386719 354.792969 569.871094 C 354.632812 570.351562 354.5 570.839844 354.398438 571.335938 C 354.296875 571.832031 354.226562 572.332031 354.1875 572.835938 C 354.144531 573.34375 354.132812 573.847656 354.152344 574.355469 C 354.171875 574.859375 354.222656 575.363281 354.304688 575.863281 C 354.382812 576.363281 354.492188 576.859375 354.632812 577.34375 C 354.773438 577.832031 354.941406 578.308594 355.136719 578.777344 C 355.332031 579.242188 355.558594 579.695312 355.808594 580.136719 C 356.058594 580.578125 356.335938 581 356.640625 581.40625 C 356.941406 581.8125 357.265625 582.199219 357.617188 582.566406 C 357.964844 582.933594 358.335938 583.28125 358.726562 583.605469 C 359.113281 583.925781 359.523438 584.226562 359.949219 584.5 C 360.375 584.773438 360.816406 585.019531 361.273438 585.242188 C 361.730469 585.460938 362.195312 585.65625 362.675781 585.820312 C 363.15625 585.984375 363.640625 586.121094 364.136719 586.226562 C 364.632812 586.332031 365.132812 586.410156 365.636719 586.453125 C 366.140625 586.5 366.648438 586.515625 367.15625 586.5 C 367.660156 586.484375 368.164062 586.441406 368.664062 586.367188 C 369.167969 586.289062 369.660156 586.183594 370.148438 586.050781 Z M 511.710938 483.378906 C 513.15625 483.519531 514.480469 483.992188 515.6875 484.796875 C 519 486.921875 521.410156 491.039062 521.832031 495.292969 C 522.089844 497.851562 521.554688 499.929688 520.292969 501.296875 C 519.742188 501.886719 519.09375 502.332031 518.34375 502.632812 Z M 432.019531 499.367188 C 428.378906 488.804688 433.976562 471.71875 437.324219 461.507812 C 437.945312 459.613281 438.488281 457.941406 438.894531 456.570312 C 439.242188 455.371094 439.78125 454.265625 440.515625 453.253906 C 441.25 452.242188 442.132812 451.386719 443.164062 450.683594 C 447.179688 448 452.453125 446.214844 452.507812 446.203125 L 452.765625 446.117188 C 452.855469 446.070312 458.101562 444.238281 462.917969 443.878906 C 464.164062 443.796875 465.386719 443.929688 466.585938 444.273438 C 467.789062 444.621094 468.894531 445.15625 469.90625 445.890625 C 471.070312 446.71875 472.53125 447.699219 474.1875 448.8125 C 483.109375 454.796875 498.042969 464.8125 501.679688 475.375 L 516.0625 517.121094 C 516.582031 518.957031 516.957031 520.585938 517.230469 522.101562 C 514.945312 527.964844 510.503906 532.652344 504.5 534.722656 C 496.089844 537.617188 486.9375 534.566406 480.75 527.726562 C 480.082031 536.925781 474.75 544.96875 466.34375 547.863281 C 460.328125 549.933594 453.929688 548.96875 448.511719 545.746094 C 447.828125 544.429688 447.144531 542.980469 446.457031 541.292969 Z M 428.402344 527.46875 C 426.117188 523.859375 425.480469 519.128906 426.785156 515.417969 C 427.242188 514.039062 427.992188 512.851562 429.042969 511.851562 L 435.675781 531.105469 C 434.898438 531.332031 434.113281 531.382812 433.316406 531.257812 C 431.476562 530.953125 429.777344 529.644531 428.402344 527.472656 Z M 487.855469 469.292969 C 487.855469 469.292969 487.097656 468.816406 485.875 468.105469 C 476.554688 462.40625 472.601562 447.261719 455.109375 453.285156 C 437.613281 459.3125 443.824219 473.679688 439.9375 484 C 439.46875 485.222656 439.160156 486.066406 439.160156 486.066406 C 442.664062 483.453125 446.347656 481.125 450.210938 479.082031 C 454.074219 477.039062 458.070312 475.304688 462.199219 473.882812 C 466.332031 472.460938 470.550781 471.363281 474.851562 470.59375 C 479.152344 469.824219 483.488281 469.390625 487.855469 469.292969 Z M 457.523438 460.296875 C 467.65625 456.804688 470.230469 460.953125 477.058594 466.269531 C 471.171875 464.328125 460.210938 468.101562 460.210938 468.101562 C 460.210938 468.101562 449.253906 471.878906 445.808594 477.03125 C 447.914062 468.640625 447.390625 463.785156 457.523438 460.296875 Z M 469.554688 495.234375 C 468.996094 495.425781 468.425781 495.5625 467.839844 495.640625 C 467.253906 495.722656 466.664062 495.742188 466.074219 495.707031 C 465.484375 495.671875 464.902344 495.578125 464.332031 495.425781 C 463.757812 495.277344 463.207031 495.070312 462.675781 494.8125 C 462.144531 494.554688 461.640625 494.246094 461.171875 493.886719 C 460.699219 493.527344 460.269531 493.128906 459.878906 492.6875 C 459.484375 492.242188 459.140625 491.765625 458.84375 491.253906 C 458.542969 490.746094 458.300781 490.210938 458.105469 489.648438 C 457.914062 489.089844 457.777344 488.519531 457.699219 487.933594 C 457.617188 487.347656 457.597656 486.757812 457.632812 486.167969 C 457.667969 485.578125 457.761719 484.996094 457.914062 484.425781 C 458.0625 483.851562 458.269531 483.300781 458.527344 482.769531 C 458.785156 482.238281 459.09375 481.738281 459.453125 481.265625 C 459.8125 480.792969 460.210938 480.363281 460.65625 479.972656 C 461.097656 479.578125 461.574219 479.234375 462.085938 478.9375 C 462.597656 478.640625 463.132812 478.394531 463.691406 478.199219 C 464.25 478.007812 464.820312 477.871094 465.40625 477.792969 C 465.992188 477.710938 466.582031 477.691406 467.171875 477.726562 C 467.761719 477.761719 468.34375 477.855469 468.914062 478.007812 C 469.488281 478.15625 470.039062 478.363281 470.570312 478.621094 C 471.101562 478.878906 471.605469 479.1875 472.074219 479.546875 C 472.546875 479.90625 472.976562 480.304688 473.367188 480.75 C 473.761719 481.191406 474.105469 481.667969 474.402344 482.179688 C 474.703125 482.691406 474.945312 483.226562 475.140625 483.785156 C 475.332031 484.34375 475.46875 484.914062 475.546875 485.5 C 475.628906 486.085938 475.648438 486.675781 475.613281 487.265625 C 475.578125 487.855469 475.484375 488.4375 475.332031 489.011719 C 475.183594 489.582031 474.976562 490.132812 474.71875 490.664062 C 474.460938 491.195312 474.152344 491.699219 473.792969 492.167969 C 473.433594 492.640625 473.035156 493.070312 472.59375 493.460938 C 472.148438 493.855469 471.671875 494.199219 471.160156 494.496094 C 470.648438 494.796875 470.117188 495.039062 469.554688 495.234375 Z M 496.578125 499.21875 C 499.886719 497.800781 502.671875 495.691406 504.933594 492.890625 C 505.15625 498.132812 501.957031 503.371094 496.574219 505.96875 L 499.605469 520.667969 L 492.9375 507.21875 C 486.554688 508.546875 480.125 505.703125 477.675781 500.023438 C 477.375 499.316406 477.144531 498.582031 476.984375 497.828125 C 478.972656 499.105469 481.121094 500.003906 483.425781 500.523438 C 485.730469 501.042969 488.054688 501.148438 490.398438 500.847656 L 486.851562 483.648438 L 494.875 499.835938 C 495.445312 499.640625 496.015625 499.464844 496.578125 499.21875 Z M 440.238281 515.171875 C 443.746094 515.988281 447.238281 515.933594 450.71875 515.015625 C 451.3125 514.859375 451.871094 514.648438 452.441406 514.449219 L 448.792969 496.757812 L 456.589844 512.492188 C 458.621094 511.285156 460.386719 509.769531 461.882812 507.941406 C 463.378906 506.113281 464.519531 504.085938 465.296875 501.855469 C 465.636719 502.546875 465.90625 503.265625 466.105469 504.007812 C 467.675781 509.996094 464.359375 516.191406 458.511719 519.078125 L 461.542969 533.777344 L 454.878906 520.332031 C 449.035156 521.597656 443.289062 519.441406 440.238281 515.171875 Z M 440.238281 515.171875 " fill-opacity="1" fill-rule="nonzero"/></g></g></g></svg>