<svg xmlns="http://www.w3.org/2000/svg" xmlns:xlink="http://www.w3.org/1999/xlink" width="3150" zoomAndPan="magnify" viewBox="0 0 2362.5 3299.999941" height="4400" preserveAspectRatio="xMidYMid meet" version="1.0"><defs><clipPath id="056cc706a0"><path d="M 0 0.347656 L 2362 0.347656 L 2362 3299.648438 L 0 3299.648438 Z M 0 0.347656 " clip-rule="nonzero"/></clipPath><clipPath id="3eaa1556f8"><path d="M 136.871094 131.574219 L 2225.164062 131.574219 L 2225.164062 3167 L 136.871094 3167 Z M 136.871094 131.574219 " clip-rule="nonzero"/></clipPath><clipPath id="a94c0ed83d"><path d="M 249.347656 131.574219 L 2112.6875 131.574219 C 2174.804688 131.574219 2225.164062 181.929688 2225.164062 244.050781 L 2225.164062 3055.902344 C 2225.164062 3118.023438 2174.804688 3168.378906 2112.6875 3168.378906 L 249.347656 3168.378906 C 187.230469 3168.378906 136.871094 3118.023438 136.871094 3055.902344 L 136.871094 244.050781 C 136.871094 181.929688 187.230469 131.574219 249.347656 131.574219 Z M 249.347656 131.574219 " clip-rule="nonzero"/></clipPath><clipPath id="068e22502d"><path d="M 236.203125 366 L 367 366 L 367 489 L 236.203125 489 Z M 236.203125 366 " clip-rule="nonzero"/></clipPath><clipPath id="4331164c78"><path d="M 380 494 L 458 494 L 458 634.90625 L 380 634.90625 Z M 380 494 " clip-rule="nonzero"/></clipPath></defs><g clip-path="url(#056cc706a0)"><path fill="#ffffff" d="M 0 0.347656 L 2362 0.347656 L 2362 3299.652344 L 0 3299.652344 Z M 0 0.347656 " fill-opacity="1" fill-rule="nonzero"/><path fill="#d80400" d="M 0 0.347656 L 2362 0.347656 L 2362 3299.652344 L 0 3299.652344 Z M 0 0.347656 " fill-opacity="1" fill-rule="nonzero"/></g><g clip-path="url(#3eaa1556f8)"><g clip-path="url(#a94c0ed83d)"><path fill="#ffffff" d="M 136.871094 131.574219 L 2225.164062 131.574219 L 2225.164062 3166.121094 L 136.871094 3166.121094 Z M 136.871094 131.574219 " fill-opacity="1" fill-rule="nonzero"/></g></g><path fill="#ff0b06" d="M 1929.082031 2854.324219 C 1930.59375 2848.960938 1928.988281 2843.09375 1924.890625 2839.015625 C 1916.265625 2830.417969 1908.4375 2827.292969 1904.648438 2826.207031 C 1903.613281 2859.914062 1879.800781 2894.605469 1878.761719 2896.109375 C 1878.359375 2896.6875 1877.710938 2897.039062 1877 2897.046875 L 1876.964844 2897.046875 C 1876.273438 2897.046875 1875.625 2896.722656 1875.214844 2896.167969 C 1872.691406 2892.785156 1867.113281 2886.792969 1858.070312 2884.609375 C 1852.367188 2883.214844 1847.476562 2883.914062 1845.09375 2884.480469 C 1839.765625 2885.675781 1835.734375 2888.234375 1833.039062 2890.484375 C 1837.152344 2892.046875 1840.976562 2894.1875 1844.453125 2896.894531 C 1847.621094 2899.363281 1850.4375 2902.265625 1852.84375 2905.527344 C 1853.253906 2906.082031 1853.375 2906.800781 1853.179688 2907.464844 C 1851.667969 2912.417969 1848.507812 2919.742188 1842.042969 2926.511719 C 1837 2931.789062 1831.492188 2935.144531 1826.636719 2937.269531 C 1832.773438 2938.535156 1839.082031 2938.808594 1845.203125 2938.082031 C 1851.285156 2937.339844 1857.199219 2935.632812 1862.792969 2932.984375 C 1863.09375 2932.847656 1863.410156 2932.78125 1863.722656 2932.78125 C 1864.175781 2932.78125 1864.621094 2932.914062 1864.996094 2933.1875 C 1865.644531 2933.648438 1865.984375 2934.425781 1865.894531 2935.21875 C 1865.304688 2940.285156 1863.878906 2945.117188 1861.675781 2949.589844 C 1858.570312 2955.882812 1854.382812 2960.5 1850.492188 2963.789062 C 1857.542969 2963.730469 1869.207031 2961.96875 1878.964844 2952.5625 C 1896.082031 2938.617188 1890.6875 2915.824219 1890.636719 2915.601562 C 1890.441406 2914.832031 1890.679688 2914.019531 1891.253906 2913.484375 C 1891.421875 2913.320312 1908.183594 2897.449219 1916.496094 2883.523438 C 1921.953125 2874.378906 1926.179688 2864.550781 1929.082031 2854.324219 Z M 1929.082031 2854.324219 " fill-opacity="1" fill-rule="nonzero"/><path fill="#ff0b06" d="M 2125.234375 2832.578125 C 2123.5625 2829 2119.257812 2821.765625 2109.441406 2814.585938 C 2104.769531 2811.179688 2098.734375 2810.515625 2093.671875 2812.835938 C 2092.476562 2813.382812 2091.253906 2813.886719 2089.984375 2814.40625 C 2084.160156 2816.796875 2077.550781 2819.511719 2066.898438 2829.691406 C 2057.019531 2839.140625 2047.875 2849.660156 2039.722656 2860.972656 C 2039.378906 2861.441406 2038.859375 2861.757812 2038.289062 2861.851562 C 2037.726562 2861.9375 2037.125 2861.800781 2036.65625 2861.457031 C 2033.25 2858.964844 2026.09375 2854.792969 2016.875 2855.457031 C 2011.019531 2855.816406 2006.5625 2857.921875 2004.425781 2859.152344 C 1999.707031 2861.859375 1996.597656 2865.496094 1994.675781 2868.441406 C 1999.074219 2868.722656 2003.359375 2869.644531 2007.476562 2871.207031 C 2011.238281 2872.632812 2014.792969 2874.578125 2018.035156 2876.980469 C 2018.589844 2877.386719 2018.925781 2878.046875 2018.925781 2878.730469 C 2018.941406 2886.175781 2017.199219 2893.601562 2013.894531 2900.210938 C 2010.625 2906.75 2006.339844 2911.574219 2002.308594 2915.046875 C 2008.558594 2914.46875 2014.585938 2912.886719 2020.316406 2910.335938 C 2025.90625 2907.84375 2031.058594 2904.472656 2035.617188 2900.304688 C 2036.023438 2899.929688 2036.554688 2899.730469 2037.09375 2899.730469 C 2037.324219 2899.730469 2037.5625 2899.765625 2037.785156 2899.84375 C 2038.546875 2900.097656 2039.101562 2900.738281 2039.246094 2901.515625 C 2040.167969 2906.503906 2040.234375 2911.539062 2039.441406 2916.492188 C 2038.324219 2923.40625 2035.691406 2929.058594 2032.933594 2933.34375 C 2039.671875 2931.199219 2050.300781 2926.089844 2056.851562 2914.238281 C 2069.09375 2895.878906 2057.234375 2875.679688 2057.113281 2875.476562 C 2056.644531 2874.699219 2056.703125 2873.707031 2057.269531 2872.992188 C 2064.25 2864.144531 2072.472656 2856.46875 2081.710938 2850.167969 C 2094.59375 2841.382812 2109.585938 2835.332031 2125.238281 2832.574219 Z M 2125.234375 2832.578125 " fill-opacity="1" fill-rule="nonzero"/><path fill="#ff0b06" d="M 1714.160156 2886.730469 C 1722.519531 2886.132812 1730.847656 2884.722656 1739.074219 2883.140625 C 1732.277344 2879.527344 1725.46875 2875.714844 1718.660156 2871.46875 C 1715.1875 2869.300781 1711.199219 2866.214844 1706.972656 2862.945312 C 1695.96875 2854.433594 1682.742188 2844.207031 1671.148438 2844.207031 C 1668.679688 2844.207031 1666.28125 2844.675781 1663.992188 2845.714844 C 1657.777344 2848.550781 1654.945312 2856.082031 1654.882812 2862.273438 C 1654.828125 2868.800781 1656.160156 2875.4375 1658.464844 2882.058594 C 1678.988281 2886.246094 1697.390625 2887.914062 1714.160156 2886.734375 Z M 1714.160156 2886.730469 " fill-opacity="1" fill-rule="nonzero"/><path fill="#ff0b06" d="M 1613.886719 2950.582031 C 1606.402344 2957.597656 1599.785156 2965.511719 1594.382812 2974.148438 C 1579.511719 2997.933594 1573.339844 3027.484375 1577.460938 3055.234375 C 1577.949219 3058.503906 1579.460938 3061.210938 1581.3125 3062.128906 C 1582.628906 3062.8125 1584.207031 3062.609375 1586.035156 3061.617188 C 1589.261719 3059.867188 1591.113281 3056.101562 1592.515625 3052.652344 C 1604.679688 3022.507812 1630.542969 3001.578125 1664.097656 2993.460938 C 1663.53125 2993.144531 1662.960938 2992.84375 1662.40625 2992.507812 C 1652.183594 2986.265625 1630.941406 2969.8125 1613.886719 2950.582031 Z M 1613.886719 2950.582031 " fill-opacity="1" fill-rule="nonzero"/><path fill="#ff0b06" d="M 1981.015625 2776.203125 C 1982.519531 2754.191406 1962.183594 2742.554688 1961.976562 2742.441406 C 1961.292969 2742.058594 1960.859375 2741.324219 1960.859375 2740.539062 C 1960.859375 2740.308594 1960.710938 2717.230469 1956.214844 2701.640625 C 1953.265625 2691.429688 1948.980469 2681.628906 1943.484375 2672.519531 C 1940.605469 2667.746094 1935.195312 2664.9375 1929.441406 2665.117188 C 1917.273438 2665.542969 1909.640625 2669.132812 1906.257812 2671.152344 C 1930.164062 2694.941406 1939.257812 2736.015625 1939.644531 2737.800781 C 1939.796875 2738.484375 1939.601562 2739.199219 1939.128906 2739.722656 C 1938.660156 2740.25 1937.953125 2740.582031 1937.269531 2740.429688 C 1933.070312 2739.984375 1924.847656 2739.96875 1917.113281 2745.0625 C 1912.203125 2748.292969 1909.386719 2752.339844 1908.148438 2754.457031 C 1905.398438 2759.152344 1904.511719 2763.847656 1904.316406 2767.355469 C 1908.261719 2765.417969 1912.441406 2764.09375 1916.789062 2763.402344 C 1920.777344 2762.78125 1924.824219 2762.6875 1928.828125 2763.164062 C 1929.511719 2763.242188 1930.117188 2763.640625 1930.46875 2764.238281 C 1933.054688 2768.730469 1936.25 2776.046875 1936.777344 2785.386719 C 1937.1875 2792.667969 1935.871094 2798.976562 1934.105469 2803.992188 C 1939.21875 2800.378906 1943.746094 2795.957031 1947.382812 2790.980469 C 1951 2786.027344 1953.792969 2780.539062 1955.671875 2774.664062 C 1955.917969 2773.90625 1956.550781 2773.339844 1957.328125 2773.1875 C 1957.472656 2773.160156 1957.609375 2773.144531 1957.753906 2773.144531 C 1958.386719 2773.144531 1959 2773.417969 1959.417969 2773.921875 C 1962.707031 2777.789062 1965.265625 2782.136719 1967.035156 2786.8125 C 1969.492188 2793.351562 1970.023438 2799.542969 1969.765625 2804.625 C 1974.460938 2799.449219 1981.222656 2789.640625 1981.019531 2776.203125 Z M 1981.015625 2776.203125 " fill-opacity="1" fill-rule="nonzero"/><path fill="#ff0b06" d="M 2027.929688 2939.042969 C 2027.820312 2939.058594 2027.710938 2939.070312 2027.597656 2939.070312 C 2026.8125 2939.070312 2026.078125 2938.652344 2025.695312 2937.949219 C 2025.242188 2937.15625 2025.34375 2936.164062 2025.933594 2935.464844 C 2029.324219 2931.480469 2033.667969 2924.828125 2035.121094 2915.792969 C 2035.632812 2912.617188 2035.742188 2909.398438 2035.472656 2906.179688 C 2031.363281 2909.46875 2026.882812 2912.199219 2022.09375 2914.335938 C 2013.699219 2918.082031 2004.632812 2919.816406 1995.328125 2919.652344 C 1994.359375 2919.628906 1993.523438 2918.976562 1993.269531 2918.046875 C 1993.011719 2917.117188 1993.394531 2916.136719 1994.207031 2915.613281 C 1998.9375 2912.632812 2005.511719 2907.203125 2009.984375 2898.257812 C 2012.820312 2892.585938 2014.390625 2886.246094 2014.542969 2879.851562 C 2011.863281 2877.980469 2008.96875 2876.453125 2005.917969 2875.292969 C 2001.179688 2873.492188 1996.125 2872.574219 1991.011719 2872.730469 C 1990.046875 2872.738281 1989.535156 2872.363281 1989.125 2871.714844 C 1988.71875 2871.074219 1988.671875 2870.261719 1989.007812 2869.578125 C 1990.285156 2866.980469 1992.359375 2863.746094 1995.414062 2860.671875 C 1991.855469 2860.160156 1988.261719 2859.800781 1984.59375 2859.785156 L 1984.277344 2859.785156 C 1976.6875 2859.785156 1969.4375 2860.894531 1962.128906 2863.183594 C 1947.957031 2867.621094 1935.441406 2875.9375 1922.183594 2884.742188 L 1920.398438 2885.925781 C 1920.253906 2886.023438 1920.109375 2886.101562 1919.96875 2886.195312 C 1919.96875 2886.195312 1919.964844 2886.199219 1919.964844 2886.203125 C 1912.304688 2898.8125 1898.773438 2912.292969 1895.140625 2915.800781 C 1896.167969 2921.179688 1898.796875 2942.039062 1881.867188 2955.828125 C 1880.382812 2957.257812 1878.855469 2958.5 1877.308594 2959.625 C 1877.179688 2959.71875 1877.042969 2959.789062 1876.914062 2959.882812 C 1875.449219 2960.921875 1873.976562 2961.832031 1872.496094 2962.632812 C 1872.496094 2962.632812 1872.496094 2962.632812 1872.492188 2962.632812 C 1861.953125 2983.804688 1837.910156 2997.019531 1828.054688 3001.671875 C 1823.824219 3003.671875 1819.523438 3005.414062 1815.191406 3007.042969 C 1823.84375 3009.113281 1832.617188 3010.917969 1841.621094 3012.128906 C 1880.851562 3017.40625 1937.953125 3018.378906 1987.207031 2992.972656 C 2011.691406 2980.320312 2040.496094 2955.628906 2049.0625 2929.761719 C 2040.03125 2936.6875 2030.449219 2938.648438 2027.929688 2939.039062 Z M 1983.777344 2880.050781 C 1983.355469 2881.203125 1982.402344 2882.066406 1981.429688 2882.804688 C 1977.375 2885.882812 1972.457031 2887.542969 1967.730469 2889.433594 C 1959.757812 2892.625 1952.101562 2896.613281 1944.914062 2901.316406 C 1939.292969 2904.996094 1933.867188 2909.160156 1927.550781 2911.4375 C 1926.011719 2911.996094 1924.089844 2912.359375 1922.910156 2911.222656 C 1922.117188 2910.457031 1921.953125 2909.242188 1922.03125 2908.140625 C 1922.28125 2904.53125 1924.515625 2901.382812 1926.890625 2898.660156 C 1935.398438 2888.90625 1948.515625 2878.632812 1961.589844 2873.921875 C 1963.8125 2873.121094 1966.03125 2872.480469 1968.226562 2872.03125 C 1972.261719 2871.203125 1976.652344 2871.398438 1980.246094 2873.414062 C 1982.625 2874.75 1984.714844 2877.484375 1983.773438 2880.050781 Z M 1983.777344 2880.050781 " fill-opacity="1" fill-rule="nonzero"/><path fill="#ff0b06" d="M 1850.089844 2968.148438 C 1847.1875 2968.148438 1845.035156 2967.898438 1844.035156 2967.746094 C 1843.128906 2967.617188 1842.40625 2966.933594 1842.21875 2966.039062 C 1842.023438 2965.148438 1842.40625 2964.230469 1843.183594 2963.742188 C 1847.589844 2960.933594 1853.695312 2955.871094 1857.75 2947.65625 C 1859.171875 2944.78125 1860.234375 2941.730469 1860.917969 2938.558594 C 1856.023438 2940.488281 1850.9375 2941.785156 1845.734375 2942.414062 C 1836.710938 2943.5 1827.339844 2942.535156 1818.585938 2939.613281 C 1817.675781 2939.308594 1817.066406 2938.4375 1817.09375 2937.472656 C 1817.121094 2936.503906 1817.777344 2935.679688 1818.707031 2935.429688 C 1824.09375 2933.980469 1831.964844 2930.734375 1838.890625 2923.484375 C 1844.320312 2917.808594 1847.179688 2911.6875 1848.667969 2907.238281 C 1846.652344 2904.652344 1844.335938 2902.328125 1841.777344 2900.339844 C 1837.765625 2897.214844 1833.222656 2894.917969 1828.289062 2893.503906 C 1827.554688 2893.296875 1826.980469 2892.71875 1826.777344 2891.984375 C 1826.570312 2891.25 1826.769531 2890.464844 1827.289062 2889.90625 C 1828.363281 2888.757812 1830.085938 2887.230469 1832.183594 2885.710938 C 1829.386719 2884.453125 1826.511719 2883.324219 1823.535156 2882.394531 C 1816.796875 2880.285156 1809.429688 2879.132812 1800.992188 2878.878906 C 1784.105469 2878.355469 1767.738281 2881.78125 1751.789062 2885.085938 C 1739.671875 2887.585938 1727.148438 2890.183594 1714.46875 2891.085938 C 1694.535156 2892.539062 1672.535156 2890.285156 1647.296875 2884.257812 C 1644.402344 2883.566406 1641.421875 2882.6875 1638.398438 2881.800781 C 1631.570312 2879.777344 1624.609375 2877.71875 1617.992188 2877.71875 C 1612.863281 2877.71875 1607.9375 2878.957031 1603.445312 2882.40625 C 1596.152344 2888.007812 1592.84375 2894.929688 1593.300781 2903.585938 C 1594.933594 2934.195312 1644.347656 2976.355469 1664.675781 2988.785156 C 1713.941406 3018.882812 1774.308594 3022.230469 1826.195312 2997.734375 C 1834.792969 2993.664062 1854.886719 2982.734375 1865.8125 2965.558594 C 1859.824219 2967.597656 1854.199219 2968.152344 1850.089844 2968.152344 Z M 1804.960938 2905.78125 C 1796.445312 2904.652344 1787.820312 2904.371094 1779.25 2904.945312 C 1772.546875 2905.390625 1765.777344 2906.359375 1759.152344 2905.242188 C 1757.542969 2904.972656 1755.6875 2904.34375 1755.214844 2902.78125 C 1754.898438 2901.722656 1755.355469 2900.582031 1755.960938 2899.660156 C 1757.949219 2896.640625 1761.441406 2894.996094 1764.851562 2893.785156 C 1777.046875 2889.457031 1793.519531 2886.945312 1807.226562 2889.253906 C 1809.550781 2889.648438 1811.800781 2890.179688 1813.933594 2890.867188 C 1817.859375 2892.125 1821.585938 2894.449219 1823.730469 2897.96875 C 1825.148438 2900.300781 1825.625 2903.710938 1823.550781 2905.480469 C 1822.617188 2906.273438 1821.363281 2906.5625 1820.148438 2906.730469 C 1815.105469 2907.421875 1810.007812 2906.453125 1804.964844 2905.785156 Z M 1804.960938 2905.78125 " fill-opacity="1" fill-rule="nonzero"/><path fill="#ff0b06" d="M 1981.191406 2795.40625 C 1976.75 2804.828125 1970.117188 2810.609375 1968.246094 2812.09375 C 1967.851562 2812.410156 1967.375 2812.570312 1966.886719 2812.570312 C 1966.496094 2812.570312 1966.113281 2812.46875 1965.761719 2812.253906 C 1964.976562 2811.785156 1964.574219 2810.878906 1964.734375 2809.984375 C 1965.699219 2804.851562 1966.167969 2796.929688 1962.933594 2788.347656 C 1961.808594 2785.34375 1960.304688 2782.492188 1958.460938 2779.835938 C 1956.539062 2784.722656 1954.003906 2789.324219 1950.914062 2793.558594 C 1945.550781 2800.882812 1938.429688 2807.082031 1930.320312 2811.480469 C 1929.492188 2811.941406 1928.425781 2811.796875 1927.742188 2811.113281 C 1927.058594 2810.429688 1926.898438 2809.386719 1927.347656 2808.53125 C 1929.96875 2803.597656 1932.976562 2795.613281 1932.402344 2785.632812 C 1931.960938 2777.789062 1929.449219 2771.511719 1927.210938 2767.386719 C 1923.953125 2767.089844 1920.691406 2767.199219 1917.472656 2767.71875 C 1912.453125 2768.515625 1907.671875 2770.253906 1903.265625 2772.902344 C 1902.597656 2773.289062 1901.796875 2773.304688 1901.121094 2772.960938 C 1900.445312 2772.605469 1900 2771.929688 1899.960938 2771.167969 C 1899.886719 2770.066406 1899.875 2768.808594 1899.933594 2767.46875 C 1897.265625 2768.609375 1894.640625 2769.902344 1892.082031 2771.355469 C 1885.40625 2775.140625 1879.582031 2779.757812 1874.289062 2785.46875 C 1864.179688 2796.378906 1857.441406 2809.835938 1850.304688 2824.085938 L 1849.375 2825.953125 C 1843.148438 2838.375 1830.394531 2859.539062 1810.335938 2875.445312 C 1815.457031 2876.023438 1820.363281 2876.824219 1824.828125 2878.222656 C 1828.941406 2879.503906 1832.875 2881.140625 1836.644531 2883.011719 C 1838.855469 2881.882812 1841.269531 2880.851562 1844.132812 2880.203125 C 1846.890625 2879.570312 1852.515625 2878.757812 1859.101562 2880.347656 C 1867.570312 2882.394531 1873.367188 2887.320312 1876.773438 2891.164062 C 1882.347656 2882.414062 1900.5 2851.703125 1900.3125 2823.503906 C 1900.3125 2822.882812 1900.566406 2822.28125 1901.027344 2821.863281 C 1901.5 2821.445312 1902.09375 2821.242188 1902.726562 2821.308594 C 1903.214844 2821.367188 1914.757812 2822.734375 1927.980469 2835.917969 C 1933.199219 2841.117188 1935.230469 2848.621094 1933.285156 2855.511719 C 1931.089844 2863.269531 1928.132812 2870.796875 1924.496094 2877.996094 C 1936.304688 2870.214844 1947.800781 2863.085938 1960.816406 2859.011719 L 1960.824219 2859.011719 C 1965.625 2857.507812 1970.375 2856.535156 1975.21875 2855.96875 C 1976.199219 2853.375 1977.285156 2850.839844 1978.140625 2848.175781 C 1981.136719 2838.832031 1987.164062 2815.566406 1981.191406 2795.398438 Z M 1909.371094 2788.175781 C 1906.960938 2792.65625 1903.175781 2796.207031 1899.664062 2799.894531 C 1893.742188 2806.109375 1888.433594 2812.917969 1883.851562 2820.183594 C 1880.265625 2825.863281 1877.0625 2831.902344 1872.261719 2836.601562 C 1871.09375 2837.746094 1869.496094 2838.875 1867.949219 2838.332031 C 1866.910156 2837.964844 1866.257812 2836.929688 1865.867188 2835.894531 C 1864.597656 2832.507812 1865.324219 2828.71875 1866.355469 2825.25 C 1870.039062 2812.84375 1877.703125 2798.050781 1887.640625 2788.332031 C 1889.328125 2786.679688 1891.082031 2785.175781 1892.890625 2783.855469 C 1896.21875 2781.425781 1900.292969 2779.78125 1904.398438 2780.121094 C 1907.121094 2780.347656 1910.15625 2781.96875 1910.367188 2784.691406 C 1910.460938 2785.910156 1909.953125 2787.09375 1909.375 2788.171875 Z M 1909.371094 2788.175781 " fill-opacity="1" fill-rule="nonzero"/><path fill="#ff0b06" d="M 432.371094 445.234375 C 430.859375 450.597656 432.464844 456.460938 436.5625 460.542969 C 445.1875 469.140625 453.015625 472.265625 456.804688 473.351562 C 457.839844 439.644531 481.648438 404.953125 482.691406 403.449219 C 483.09375 402.871094 483.742188 402.519531 484.449219 402.511719 L 484.484375 402.511719 C 485.179688 402.511719 485.828125 402.835938 486.238281 403.390625 C 488.761719 406.773438 494.339844 412.765625 503.378906 414.949219 C 509.085938 416.34375 513.976562 415.644531 516.359375 415.078125 C 521.6875 413.882812 525.714844 411.324219 528.414062 409.074219 C 524.296875 407.511719 520.472656 405.371094 517 402.664062 C 513.832031 400.195312 511.015625 397.292969 508.605469 394.03125 C 508.199219 393.476562 508.078125 392.757812 508.273438 392.09375 C 509.785156 387.140625 512.945312 379.816406 519.40625 373.046875 C 524.453125 367.769531 529.960938 364.414062 534.816406 362.289062 C 528.679688 361.023438 522.371094 360.75 516.25 361.476562 C 510.167969 362.21875 504.253906 363.925781 498.660156 366.574219 C 498.359375 366.710938 498.042969 366.777344 497.730469 366.777344 C 497.277344 366.777344 496.832031 366.640625 496.457031 366.371094 C 495.808594 365.90625 495.46875 365.132812 495.558594 364.335938 C 496.148438 359.273438 497.574219 354.441406 499.777344 349.96875 C 502.882812 343.675781 507.070312 339.058594 510.960938 335.769531 C 503.910156 335.828125 492.246094 337.589844 482.488281 346.996094 C 465.371094 360.941406 470.765625 383.734375 470.816406 383.957031 C 471.011719 384.726562 470.773438 385.535156 470.199219 386.074219 C 470.027344 386.238281 453.269531 402.109375 444.957031 416.035156 C 439.5 425.179688 435.273438 435.007812 432.371094 445.234375 Z M 432.371094 445.234375 " fill-opacity="1" fill-rule="nonzero"/><g clip-path="url(#068e22502d)"><path fill="#ff0b06" d="M 236.21875 466.980469 C 237.890625 470.558594 242.195312 477.792969 252.011719 484.96875 C 256.683594 488.375 262.71875 489.042969 267.78125 486.722656 C 268.976562 486.175781 270.199219 485.671875 271.46875 485.152344 C 277.292969 482.761719 283.898438 480.046875 294.554688 469.867188 C 304.433594 460.417969 313.578125 449.898438 321.730469 438.585938 C 322.070312 438.117188 322.59375 437.800781 323.164062 437.707031 C 323.726562 437.621094 324.324219 437.757812 324.796875 438.097656 C 328.203125 440.59375 335.359375 444.765625 344.578125 444.101562 C 350.433594 443.742188 354.890625 441.636719 357.023438 440.40625 C 361.746094 437.699219 364.855469 434.0625 366.773438 431.117188 C 362.378906 430.835938 358.09375 429.914062 353.976562 428.351562 C 350.214844 426.925781 346.660156 424.980469 343.417969 422.578125 C 342.863281 422.171875 342.527344 421.511719 342.527344 420.828125 C 342.511719 413.382812 344.253906 405.957031 347.558594 399.347656 C 350.828125 392.808594 355.113281 387.984375 359.144531 384.511719 C 352.894531 385.089844 346.867188 386.671875 341.136719 389.222656 C 335.542969 391.714844 330.394531 395.085938 325.835938 399.253906 C 325.425781 399.628906 324.898438 399.824219 324.359375 399.824219 C 324.128906 399.824219 323.890625 399.789062 323.667969 399.714844 C 322.90625 399.460938 322.351562 398.820312 322.207031 398.042969 C 321.285156 393.054688 321.21875 388.019531 322.011719 383.066406 C 323.128906 376.152344 325.761719 370.5 328.515625 366.214844 C 321.78125 368.359375 311.152344 373.46875 304.601562 385.320312 C 292.359375 403.679688 304.21875 423.878906 304.339844 424.082031 C 304.808594 424.859375 304.746094 425.851562 304.183594 426.566406 C 297.199219 435.414062 288.980469 443.089844 279.742188 449.390625 C 266.859375 458.175781 251.867188 464.226562 236.214844 466.984375 Z M 236.21875 466.980469 " fill-opacity="1" fill-rule="nonzero"/></g><path fill="#ff0b06" d="M 647.292969 412.828125 C 638.933594 413.425781 630.605469 414.835938 622.378906 416.417969 C 629.175781 420.03125 635.984375 423.84375 642.792969 428.089844 C 646.265625 430.257812 650.253906 433.339844 654.480469 436.613281 C 665.484375 445.125 678.710938 455.351562 690.304688 455.351562 C 692.769531 455.351562 695.171875 454.882812 697.457031 453.839844 C 703.675781 451.007812 706.507812 443.476562 706.570312 437.285156 C 706.625 430.757812 705.292969 424.121094 702.988281 417.5 C 682.464844 413.3125 664.0625 411.644531 647.292969 412.824219 Z M 647.292969 412.828125 " fill-opacity="1" fill-rule="nonzero"/><path fill="#ff0b06" d="M 747.566406 348.976562 C 755.050781 341.960938 761.667969 334.046875 767.066406 325.410156 C 781.941406 301.625 788.113281 272.074219 783.988281 244.324219 C 783.503906 241.054688 781.992188 238.347656 780.140625 237.425781 C 778.824219 236.742188 777.246094 236.949219 775.417969 237.941406 C 772.191406 239.691406 770.339844 243.453125 768.9375 246.90625 C 756.773438 277.050781 730.910156 297.980469 697.355469 306.097656 C 697.921875 306.414062 698.492188 306.714844 699.046875 307.050781 C 709.269531 313.292969 730.511719 329.746094 747.566406 348.976562 Z M 747.566406 348.976562 " fill-opacity="1" fill-rule="nonzero"/><g clip-path="url(#4331164c78)"><path fill="#ff0b06" d="M 380.4375 523.355469 C 378.933594 545.367188 399.269531 557.003906 399.476562 557.113281 C 400.160156 557.5 400.59375 558.234375 400.59375 559.019531 C 400.59375 559.25 400.742188 582.328125 405.238281 597.917969 C 408.183594 608.128906 412.472656 617.929688 417.96875 627.039062 C 420.847656 631.808594 426.257812 634.621094 432.011719 634.441406 C 444.179688 634.011719 451.8125 630.425781 455.191406 628.40625 C 431.285156 604.617188 422.195312 563.542969 421.808594 561.757812 C 421.65625 561.074219 421.851562 560.359375 422.324219 559.835938 C 422.792969 559.308594 423.5 558.976562 424.183594 559.128906 C 428.382812 559.574219 436.605469 559.589844 444.339844 554.492188 C 449.25 551.265625 452.066406 547.21875 453.304688 545.101562 C 456.054688 540.40625 456.941406 535.710938 457.136719 532.203125 C 453.191406 534.140625 449.011719 535.464844 444.664062 536.15625 C 440.675781 536.777344 436.628906 536.871094 432.625 536.394531 C 431.941406 536.316406 431.335938 535.917969 430.984375 535.320312 C 428.398438 530.828125 425.203125 523.511719 424.675781 514.171875 C 424.265625 506.886719 425.582031 500.578125 427.347656 495.566406 C 422.234375 499.175781 417.707031 503.601562 414.070312 508.578125 C 410.453125 513.53125 407.660156 519.019531 405.78125 524.894531 C 405.53125 525.652344 404.902344 526.214844 404.125 526.371094 C 403.980469 526.398438 403.84375 526.414062 403.699219 526.414062 C 403.066406 526.414062 402.453125 526.140625 402.035156 525.636719 C 398.746094 521.769531 396.183594 517.421875 394.417969 512.746094 C 391.960938 506.203125 391.429688 500.015625 391.6875 494.933594 C 386.992188 500.109375 380.230469 509.917969 380.433594 523.355469 Z M 380.4375 523.355469 " fill-opacity="1" fill-rule="nonzero"/></g><path fill="#ff0b06" d="M 333.523438 360.515625 C 333.632812 360.496094 333.742188 360.488281 333.855469 360.488281 C 334.640625 360.488281 335.375 360.90625 335.757812 361.609375 C 336.210938 362.402344 336.109375 363.394531 335.519531 364.09375 C 332.128906 368.078125 327.78125 374.730469 326.332031 383.765625 C 325.820312 386.9375 325.710938 390.160156 325.980469 393.378906 C 330.089844 390.089844 334.570312 387.359375 339.359375 385.222656 C 347.753906 381.476562 356.820312 379.742188 366.125 379.90625 C 367.089844 379.929688 367.925781 380.578125 368.183594 381.511719 C 368.441406 382.441406 368.058594 383.421875 367.246094 383.945312 C 362.515625 386.921875 355.941406 392.355469 351.46875 401.300781 C 348.632812 406.96875 347.0625 413.3125 346.910156 419.707031 C 349.589844 421.578125 352.484375 423.105469 355.535156 424.265625 C 360.273438 426.066406 365.328125 426.980469 370.441406 426.828125 C 371.40625 426.820312 371.917969 427.195312 372.328125 427.84375 C 372.734375 428.484375 372.78125 429.296875 372.445312 429.980469 C 371.164062 432.578125 369.09375 435.8125 366.039062 438.882812 C 369.59375 439.398438 373.191406 439.757812 376.859375 439.773438 L 377.175781 439.773438 C 384.765625 439.773438 392.011719 438.664062 399.320312 436.375 C 413.492188 431.9375 426.011719 423.621094 439.269531 414.816406 L 441.054688 413.628906 C 441.199219 413.535156 441.34375 413.457031 441.484375 413.363281 C 441.484375 413.359375 441.488281 413.359375 441.488281 413.355469 C 449.148438 400.742188 462.679688 387.265625 466.308594 383.757812 C 465.285156 378.378906 462.65625 357.519531 479.585938 343.730469 C 481.070312 342.300781 482.597656 341.058594 484.144531 339.933594 C 484.273438 339.839844 484.410156 339.765625 484.539062 339.675781 C 486.003906 338.636719 487.476562 337.726562 488.957031 336.925781 C 499.5 315.753906 523.542969 302.539062 533.398438 297.886719 C 537.628906 295.886719 541.929688 294.144531 546.261719 292.515625 C 537.609375 290.441406 528.835938 288.640625 519.832031 287.429688 C 480.601562 282.152344 423.5 281.179688 374.246094 306.585938 C 349.761719 319.234375 320.953125 343.929688 312.390625 369.792969 C 321.417969 362.871094 331 360.910156 333.519531 360.519531 Z M 377.675781 419.503906 C 378.097656 418.355469 379.050781 417.492188 380.023438 416.75 C 384.078125 413.675781 388.996094 412.015625 393.722656 410.125 C 401.695312 406.933594 409.351562 402.945312 416.539062 398.238281 C 422.15625 394.5625 427.582031 390.398438 433.902344 388.121094 C 435.441406 387.5625 437.363281 387.199219 438.542969 388.335938 C 439.335938 389.101562 439.5 390.316406 439.421875 391.417969 C 439.171875 395.027344 436.9375 398.171875 434.558594 400.898438 C 426.054688 410.652344 412.9375 420.925781 399.863281 425.636719 C 397.640625 426.4375 395.421875 427.078125 393.226562 427.527344 C 389.1875 428.351562 384.800781 428.160156 381.207031 426.144531 C 378.824219 424.808594 376.738281 422.074219 377.679688 419.507812 Z M 377.675781 419.503906 " fill-opacity="1" fill-rule="nonzero"/><path fill="#ff0b06" d="M 511.363281 331.410156 C 514.265625 331.410156 516.417969 331.660156 517.417969 331.8125 C 518.320312 331.9375 519.046875 332.621094 519.234375 333.519531 C 519.429688 334.40625 519.046875 335.328125 518.269531 335.816406 C 513.863281 338.625 507.757812 343.6875 503.703125 351.902344 C 502.277344 354.777344 501.21875 357.828125 500.535156 361 C 505.429688 359.070312 510.515625 357.773438 515.714844 357.144531 C 524.742188 356.058594 534.113281 357.023438 542.867188 359.945312 C 543.777344 360.25 544.386719 361.121094 544.359375 362.085938 C 544.332031 363.050781 543.675781 363.878906 542.746094 364.128906 C 537.359375 365.578125 529.484375 368.824219 522.5625 376.070312 C 517.132812 381.75 514.273438 387.871094 512.785156 392.320312 C 514.800781 394.90625 517.117188 397.230469 519.675781 399.21875 C 523.6875 402.34375 528.230469 404.640625 533.164062 406.054688 C 533.898438 406.261719 534.472656 406.839844 534.675781 407.574219 C 534.878906 408.308594 534.683594 409.09375 534.164062 409.652344 C 533.089844 410.800781 531.367188 412.328125 529.269531 413.847656 C 532.066406 415.105469 534.941406 416.234375 537.917969 417.164062 C 544.65625 419.269531 552.023438 420.421875 560.460938 420.679688 C 577.347656 421.203125 593.714844 417.777344 609.664062 414.472656 C 621.777344 411.972656 634.304688 409.375 646.980469 408.46875 C 666.917969 407.019531 688.917969 409.273438 714.15625 415.300781 C 717.050781 415.992188 720.03125 416.871094 723.054688 417.757812 C 729.882812 419.78125 736.84375 421.839844 743.460938 421.839844 C 748.589844 421.839844 753.515625 420.601562 758.007812 417.152344 C 765.296875 411.550781 768.609375 404.628906 768.148438 395.96875 C 766.519531 365.363281 717.105469 323.203125 696.773438 310.773438 C 647.511719 280.675781 587.140625 277.328125 535.257812 301.824219 C 526.660156 305.894531 506.566406 316.824219 495.636719 334 C 501.628906 331.960938 507.253906 331.40625 511.359375 331.40625 Z M 556.492188 393.777344 C 565.007812 394.90625 573.632812 395.1875 582.203125 394.613281 C 588.90625 394.164062 595.671875 393.199219 602.296875 394.316406 C 603.910156 394.585938 605.765625 395.214844 606.234375 396.777344 C 606.554688 397.835938 606.097656 398.972656 605.492188 399.898438 C 603.503906 402.917969 600.011719 404.5625 596.601562 405.773438 C 584.40625 410.101562 567.933594 412.613281 554.226562 410.304688 C 551.902344 409.910156 549.652344 409.378906 547.515625 408.691406 C 543.59375 407.433594 539.867188 405.109375 537.722656 401.589844 C 536.304688 399.257812 535.828125 395.847656 537.902344 394.078125 C 538.835938 393.28125 540.089844 392.996094 541.304688 392.828125 C 546.34375 392.136719 551.445312 393.105469 556.488281 393.773438 Z M 556.492188 393.777344 " fill-opacity="1" fill-rule="nonzero"/><path fill="#ff0b06" d="M 380.257812 504.152344 C 384.703125 494.730469 391.335938 488.949219 393.207031 487.464844 C 393.601562 487.148438 394.078125 486.988281 394.5625 486.988281 C 394.957031 486.988281 395.339844 487.089844 395.691406 487.304688 C 396.476562 487.773438 396.878906 488.675781 396.71875 489.574219 C 395.75 494.707031 395.28125 502.628906 398.519531 511.210938 C 399.644531 514.214844 401.148438 517.066406 402.992188 519.722656 C 404.914062 514.835938 407.449219 510.234375 410.539062 506 C 415.898438 498.675781 423.023438 492.476562 431.132812 488.078125 C 431.960938 487.617188 433.027344 487.761719 433.710938 488.445312 C 434.394531 489.128906 434.554688 490.171875 434.105469 491.027344 C 431.484375 495.960938 428.476562 503.945312 429.050781 513.925781 C 429.492188 521.769531 432.003906 528.046875 434.242188 532.171875 C 437.5 532.46875 440.761719 532.359375 443.980469 531.839844 C 449 531.042969 453.78125 529.304688 458.1875 526.65625 C 458.855469 526.269531 459.65625 526.253906 460.332031 526.597656 C 461.007812 526.953125 461.449219 527.628906 461.492188 528.386719 C 461.566406 529.492188 461.578125 530.75 461.519531 532.089844 C 464.1875 530.949219 466.808594 529.65625 469.371094 528.203125 C 476.046875 524.417969 481.871094 519.800781 487.164062 514.089844 C 497.273438 503.179688 504.011719 489.722656 511.148438 475.472656 L 512.078125 473.601562 C 518.300781 461.183594 531.058594 440.019531 551.117188 424.113281 C 545.996094 423.535156 541.085938 422.734375 536.625 421.335938 C 532.507812 420.054688 528.578125 418.417969 524.808594 416.546875 C 522.597656 417.675781 520.183594 418.707031 517.320312 419.355469 C 514.5625 419.988281 508.9375 420.800781 502.351562 419.210938 C 493.882812 417.164062 488.085938 412.238281 484.679688 408.394531 C 479.105469 417.144531 460.953125 447.855469 461.140625 476.054688 C 461.140625 476.675781 460.886719 477.273438 460.425781 477.695312 C 459.953125 478.113281 459.359375 478.316406 458.726562 478.25 C 458.238281 478.191406 446.695312 476.824219 433.472656 463.640625 C 428.253906 458.441406 426.222656 450.9375 428.167969 444.046875 C 430.363281 436.289062 433.320312 428.761719 436.957031 421.5625 C 425.144531 429.34375 413.652344 436.472656 400.636719 440.546875 L 400.625 440.546875 C 395.828125 442.050781 391.078125 443.023438 386.234375 443.589844 C 385.25 446.183594 384.164062 448.71875 383.3125 451.382812 C 380.316406 460.726562 374.289062 483.992188 380.257812 504.160156 Z M 452.082031 511.382812 C 454.492188 506.902344 458.277344 503.347656 461.785156 499.664062 C 467.710938 493.449219 473.019531 486.640625 477.601562 479.375 C 481.1875 473.695312 484.390625 467.65625 489.191406 462.957031 C 490.359375 461.8125 491.957031 460.683594 493.5 461.226562 C 494.542969 461.59375 495.195312 462.628906 495.585938 463.664062 C 496.855469 467.050781 496.128906 470.839844 495.097656 474.308594 C 491.414062 486.714844 483.75 501.507812 473.8125 511.226562 C 472.125 512.878906 470.371094 514.382812 468.558594 515.703125 C 465.234375 518.132812 461.160156 519.777344 457.054688 519.4375 C 454.332031 519.210938 451.296875 517.589844 451.085938 514.867188 C 450.992188 513.648438 451.5 512.460938 452.078125 511.386719 Z M 452.082031 511.382812 " fill-opacity="1" fill-rule="nonzero"/></svg>