<svg xmlns="http://www.w3.org/2000/svg" xmlns:xlink="http://www.w3.org/1999/xlink" width="3150" zoomAndPan="magnify" viewBox="0 0 2362.5 3299.999941" height="4400" preserveAspectRatio="xMidYMid meet" version="1.0"><defs><clipPath id="d4d9a83d99"><path d="M 0 0.347656 L 2362 0.347656 L 2362 3299.648438 L 0 3299.648438 Z M 0 0.347656 " clip-rule="nonzero"/></clipPath><clipPath id="f7d9aa8d2f"><path d="M 136.871094 131.574219 L 2225.164062 131.574219 L 2225.164062 3167 L 136.871094 3167 Z M 136.871094 131.574219 " clip-rule="nonzero"/></clipPath><clipPath id="50a4722d37"><path d="M 249.347656 131.574219 L 2112.6875 131.574219 C 2174.804688 131.574219 2225.164062 181.929688 2225.164062 244.050781 L 2225.164062 3055.902344 C 2225.164062 3118.023438 2174.804688 3168.378906 2112.6875 3168.378906 L 249.347656 3168.378906 C 187.230469 3168.378906 136.871094 3118.023438 136.871094 3055.902344 L 136.871094 244.050781 C 136.871094 181.929688 187.230469 131.574219 249.347656 131.574219 Z M 249.347656 131.574219 " clip-rule="nonzero"/></clipPath><clipPath id="4c288856e6"><path d="M 1703.320312 2922 L 1948 2922 L 1948 3050 L 1703.320312 3050 Z M 1703.320312 2922 " clip-rule="nonzero"/></clipPath><clipPath id="ffa8b64d1c"><path d="M 2040 2612.171875 L 2115.730469 2612.171875 L 2115.730469 2731 L 2040 2731 Z M 2040 2612.171875 " clip-rule="nonzero"/></clipPath><clipPath id="c3149bcc03"><path d="M 1768 2699 L 2115.730469 2699 L 2115.730469 2937 L 1768 2937 Z M 1768 2699 " clip-rule="nonzero"/></clipPath><clipPath id="f661c0d139"><path d="M 414 250 L 648.617188 250 L 648.617188 378 L 414 378 Z M 414 250 " clip-rule="nonzero"/></clipPath><clipPath id="155adc4c76"><path d="M 246.164062 569 L 322 569 L 322 686.457031 L 246.164062 686.457031 Z M 246.164062 569 " clip-rule="nonzero"/></clipPath><clipPath id="720b7d2077"><path d="M 246.164062 362 L 594 362 L 594 600 L 246.164062 600 Z M 246.164062 362 " clip-rule="nonzero"/></clipPath></defs><g clip-path="url(#d4d9a83d99)"><path fill="#ffffff" d="M 0 0.347656 L 2362 0.347656 L 2362 3299.652344 L 0 3299.652344 Z M 0 0.347656 " fill-opacity="1" fill-rule="nonzero"/><path fill="#d80400" d="M 0 0.347656 L 2362 0.347656 L 2362 3299.652344 L 0 3299.652344 Z M 0 0.347656 " fill-opacity="1" fill-rule="nonzero"/></g><g clip-path="url(#f7d9aa8d2f)"><g clip-path="url(#50a4722d37)"><path fill="#ffffff" d="M 136.871094 131.574219 L 2225.164062 131.574219 L 2225.164062 3166.121094 L 136.871094 3166.121094 Z M 136.871094 131.574219 " fill-opacity="1" fill-rule="nonzero"/></g></g><g clip-path="url(#4c288856e6)"><path fill="#ff0b06" d="M 1947.664062 2922.402344 C 1925.117188 2930.789062 1904.253906 2936.355469 1885.574219 2938.964844 C 1874.554688 2972.824219 1855.042969 2989.257812 1854.203125 2989.941406 C 1831.324219 3008.886719 1795.863281 3019.6875 1763.796875 3017.316406 C 1757.078125 3016.816406 1750.273438 3015.730469 1743.695312 3014.675781 C 1735.878906 3013.429688 1728.28125 3012.21875 1721.863281 3012.21875 C 1715.210938 3012.21875 1709.820312 3013.515625 1706.773438 3017.425781 C 1704.796875 3019.882812 1703.253906 3024.089844 1704.207031 3028.015625 C 1706.007812 3035.539062 1716.9375 3039.179688 1722.191406 3040.921875 L 1723.152344 3041.25 C 1784.671875 3063.070312 1847.339844 3034.164062 1847.960938 3033.859375 C 1851.167969 3032.332031 1925.816406 2996.125 1947.664062 2922.402344 Z M 1947.664062 2922.402344 " fill-opacity="1" fill-rule="nonzero"/></g><g clip-path="url(#ffa8b64d1c)"><path fill="#ff0b06" d="M 2089.207031 2717.371094 C 2091.660156 2712.761719 2093.351562 2707.804688 2094.246094 2702.617188 C 2094.355469 2701.957031 2094.824219 2701.40625 2095.457031 2701.179688 C 2096.09375 2700.957031 2096.792969 2701.09375 2097.3125 2701.53125 C 2099.558594 2703.480469 2102.773438 2706.796875 2105.347656 2711.535156 C 2107.8125 2716 2109.308594 2721.015625 2109.773438 2726.273438 C 2112.054688 2722.964844 2114.761719 2717.917969 2115.828125 2711.59375 L 2115.828125 2711.578125 C 2116.453125 2707.984375 2116.476562 2704.375 2115.902344 2700.84375 C 2114.5 2682.058594 2095.96875 2674.65625 2095.789062 2674.582031 C 2095.160156 2674.335938 2094.707031 2673.773438 2094.613281 2673.109375 C 2094.582031 2672.914062 2091.667969 2653.425781 2086.015625 2640.746094 C 2082.273438 2632.511719 2077.460938 2624.730469 2071.707031 2617.632812 C 2068.679688 2613.960938 2063.824219 2612.214844 2059.003906 2613.070312 C 2048.765625 2614.929688 2042.738281 2618.875 2040.121094 2620.988281 C 2063.175781 2638.199219 2075.789062 2671.855469 2076.328125 2673.3125 C 2076.542969 2673.882812 2076.460938 2674.511719 2076.125 2675.007812 C 2075.789062 2675.507812 2075.226562 2675.816406 2074.628906 2675.832031 C 2071.027344 2675.925781 2064.097656 2676.878906 2058.113281 2682.160156 C 2055.324219 2684.652344 2053.152344 2687.703125 2051.652344 2691.203125 C 2050.171875 2694.945312 2049.855469 2698.109375 2049.855469 2700.101562 C 2049.855469 2700.984375 2049.90625 2701.8125 2049.980469 2702.566406 C 2053.074219 2700.464844 2056.515625 2698.808594 2060.066406 2697.714844 C 2063.386719 2696.714844 2066.78125 2696.167969 2070.195312 2696.066406 L 2070.246094 2696.066406 C 2070.832031 2696.066406 2071.378906 2696.335938 2071.726562 2696.800781 C 2075.707031 2702.007812 2078.339844 2707.777344 2079.542969 2713.933594 C 2080.609375 2719.257812 2080.601562 2724.648438 2079.519531 2730.015625 C 2083.4375 2726.339844 2086.683594 2722.101562 2089.207031 2717.367188 Z M 2089.207031 2717.371094 " fill-opacity="1" fill-rule="nonzero"/></g><g clip-path="url(#c3149bcc03)"><path fill="#ff0b06" d="M 2118.339844 2717.128906 C 2115.800781 2725.417969 2111.019531 2731.019531 2109.378906 2732.734375 C 2108.855469 2733.332031 2108.03125 2733.480469 2107.285156 2733.183594 C 2106.613281 2732.886719 2106.164062 2732.136719 2106.164062 2731.390625 C 2106.464844 2724.894531 2105.046875 2718.695312 2102.058594 2713.320312 C 2100.566406 2710.554688 2098.847656 2708.316406 2097.203125 2706.597656 C 2096.160156 2711.003906 2094.589844 2715.1875 2092.5 2719.144531 C 2088.839844 2726.015625 2083.6875 2731.988281 2077.265625 2736.769531 C 2076.59375 2737.289062 2075.699219 2737.289062 2075.027344 2736.769531 C 2074.355469 2736.320312 2074.128906 2735.425781 2074.355469 2734.675781 C 2076.667969 2728.03125 2077.191406 2721.234375 2075.847656 2714.664062 C 2074.875 2709.363281 2072.636719 2704.359375 2069.351562 2699.878906 C 2066.585938 2700.027344 2063.824219 2700.476562 2061.136719 2701.296875 C 2057.027344 2702.566406 2053.070312 2704.65625 2049.785156 2707.34375 C 2049.261719 2707.792969 2048.515625 2707.941406 2047.917969 2707.644531 C 2047.320312 2707.421875 2046.871094 2706.898438 2046.722656 2706.300781 C 2046.648438 2705.554688 2046.425781 2704.507812 2046.273438 2703.238281 C 2044.183594 2704.433594 2042.167969 2705.851562 2040.078125 2707.421875 C 2034.925781 2711.378906 2030.59375 2716.007812 2026.710938 2721.460938 C 2019.316406 2732.210938 2015.210938 2744.683594 2010.804688 2757.976562 L 2010.578125 2758.722656 C 2003.933594 2778.511719 1992.359375 2793.746094 1974.734375 2813.460938 C 1970.328125 2818.242188 1962.265625 2827.203125 1951.0625 2836.238281 C 1937.992188 2846.617188 1924.703125 2854.382812 1910.289062 2859.984375 C 1907.226562 2861.179688 1899.085938 2864.390625 1889.601562 2866.929688 L 1889.527344 2866.929688 C 1889.304688 2867.003906 1889.15625 2867.003906 1888.929688 2867.078125 C 1866.378906 2873.054688 1850.773438 2871.558594 1842.484375 2862.824219 C 1837.628906 2857.746094 1835.238281 2850.203125 1836.285156 2843.480469 C 1837.925781 2833.398438 1846.886719 2824.886719 1856.820312 2824.140625 C 1867.050781 2823.46875 1874.21875 2831.382812 1878.027344 2835.566406 C 1884.300781 2842.359375 1888.632812 2851.695312 1890.574219 2862.824219 C 1899.085938 2860.433594 1906.183594 2857.59375 1908.945312 2856.550781 C 1910.886719 2855.800781 1912.753906 2854.980469 1914.621094 2854.234375 C 1917.382812 2852.964844 1919.996094 2851.695312 1922.683594 2850.351562 C 1926.34375 2848.410156 1930.003906 2846.320312 1933.589844 2844.078125 C 1934.933594 2843.257812 1936.277344 2842.359375 1937.546875 2841.464844 C 1938.070312 2841.167969 1938.589844 2840.792969 1939.113281 2840.417969 C 1940.683594 2839.300781 1942.324219 2838.179688 1943.894531 2836.984375 C 1945.164062 2836.011719 1946.507812 2834.96875 1947.777344 2833.996094 C 1941.503906 2810.398438 1927.839844 2779.632812 1897.890625 2763.875 C 1871.605469 2750.210938 1845.171875 2754.765625 1840.167969 2755.8125 C 1813.058594 2761.261719 1788.863281 2780.082031 1777.066406 2805.097656 C 1758.394531 2844.378906 1773.78125 2892.171875 1799.394531 2915.695312 C 1818.960938 2933.617188 1847.410156 2940.261719 1883.929688 2935.40625 L 1884.078125 2935.40625 C 1884.152344 2935.40625 1884.226562 2935.332031 1884.300781 2935.332031 C 1903.867188 2932.71875 1925.894531 2926.746094 1949.792969 2917.636719 C 1964.207031 2912.109375 1976.902344 2906.433594 1984.441406 2903.074219 C 1989.445312 2900.832031 2107.585938 2846.765625 2122.070312 2762.082031 C 2123.9375 2751.628906 2125.582031 2732.660156 2118.339844 2717.128906 Z M 2057.714844 2722.328125 C 2055.839844 2726.25 2052.757812 2729.4375 2049.914062 2732.722656 C 2045.113281 2738.269531 2040.863281 2744.296875 2037.25 2750.683594 C 2034.425781 2755.675781 2031.9375 2760.960938 2028.035156 2765.167969 C 2027.085938 2766.1875 2025.769531 2767.21875 2024.429688 2766.820312 C 2023.527344 2766.550781 2022.929688 2765.691406 2022.554688 2764.824219 C 2021.328125 2761.988281 2021.792969 2758.722656 2022.53125 2755.722656 C 2025.164062 2744.988281 2031.097656 2732.050781 2039.179688 2723.351562 C 2040.550781 2721.875 2041.984375 2720.519531 2043.476562 2719.320312 C 2046.214844 2717.109375 2049.621094 2715.539062 2053.140625 2715.660156 C 2055.472656 2715.742188 2058.128906 2717 2058.417969 2719.316406 C 2058.546875 2720.351562 2058.164062 2721.382812 2057.714844 2722.328125 Z M 2057.714844 2722.328125 " fill-opacity="1" fill-rule="nonzero"/></g><g clip-path="url(#f661c0d139)"><path fill="#ff0b06" d="M 414.230469 377.398438 C 436.777344 369.011719 457.640625 363.445312 476.320312 360.835938 C 487.339844 326.976562 506.851562 310.546875 507.691406 309.859375 C 530.570312 290.914062 566.03125 280.113281 598.097656 282.484375 C 604.816406 282.988281 611.621094 284.070312 618.199219 285.125 C 626.015625 286.371094 633.613281 287.582031 640.03125 287.582031 C 646.683594 287.582031 652.070312 286.285156 655.121094 282.375 C 657.097656 279.917969 658.640625 275.710938 657.6875 271.785156 C 655.886719 264.261719 644.957031 260.621094 639.703125 258.878906 L 638.742188 258.550781 C 577.222656 236.730469 514.554688 265.636719 513.933594 265.945312 C 510.726562 267.46875 436.078125 303.675781 414.230469 377.398438 Z M 414.230469 377.398438 " fill-opacity="1" fill-rule="nonzero"/></g><g clip-path="url(#155adc4c76)"><path fill="#ff0b06" d="M 272.6875 582.429688 C 270.234375 587.039062 268.542969 591.996094 267.648438 597.183594 C 267.539062 597.847656 267.070312 598.394531 266.4375 598.621094 C 265.800781 598.84375 265.101562 598.707031 264.582031 598.269531 C 262.335938 596.324219 259.121094 593.003906 256.546875 588.265625 C 254.082031 583.800781 252.585938 578.785156 252.121094 573.527344 C 249.839844 576.835938 247.132812 581.882812 246.066406 588.207031 L 246.066406 588.222656 C 245.441406 591.816406 245.417969 595.425781 245.992188 598.957031 C 247.394531 617.742188 265.925781 625.144531 266.105469 625.21875 C 266.734375 625.464844 267.1875 626.027344 267.28125 626.691406 C 267.3125 626.886719 270.226562 646.375 275.878906 659.054688 C 279.621094 667.289062 284.433594 675.070312 290.1875 682.167969 C 293.214844 685.84375 298.070312 687.585938 302.890625 686.730469 C 313.128906 684.871094 319.15625 680.925781 321.773438 678.8125 C 298.71875 661.601562 286.105469 627.945312 285.566406 626.488281 C 285.351562 625.917969 285.433594 625.292969 285.769531 624.796875 C 286.105469 624.292969 286.667969 623.984375 287.265625 623.972656 C 290.867188 623.875 297.796875 622.921875 303.78125 617.640625 C 306.570312 615.148438 308.742188 612.097656 310.242188 608.597656 C 311.722656 604.855469 312.039062 601.691406 312.039062 599.699219 C 312.039062 598.816406 311.988281 597.988281 311.914062 597.238281 C 308.820312 599.335938 305.378906 600.992188 301.828125 602.085938 C 298.507812 603.085938 295.113281 603.632812 291.699219 603.734375 L 291.648438 603.734375 C 291.0625 603.734375 290.515625 603.464844 290.167969 603 C 286.1875 597.792969 283.554688 592.023438 282.351562 585.867188 C 281.285156 580.542969 281.292969 575.15625 282.375 569.785156 C 278.457031 573.460938 275.210938 577.699219 272.6875 582.433594 Z M 272.6875 582.429688 " fill-opacity="1" fill-rule="nonzero"/></g><g clip-path="url(#720b7d2077)"><path fill="#ff0b06" d="M 243.554688 582.671875 C 246.09375 574.382812 250.875 568.78125 252.515625 567.066406 C 253.039062 566.46875 253.863281 566.320312 254.609375 566.617188 C 255.28125 566.917969 255.726562 567.664062 255.726562 568.410156 C 255.429688 574.90625 256.847656 581.105469 259.835938 586.480469 C 261.328125 589.246094 263.046875 591.484375 264.691406 593.203125 C 265.734375 588.796875 267.304688 584.613281 269.394531 580.65625 C 273.054688 573.785156 278.207031 567.8125 284.628906 563.03125 C 285.300781 562.511719 286.195312 562.511719 286.867188 563.03125 C 287.539062 563.480469 287.765625 564.378906 287.539062 565.125 C 285.226562 571.769531 284.703125 578.566406 286.046875 585.136719 C 287.019531 590.4375 289.257812 595.441406 292.542969 599.921875 C 295.308594 599.773438 298.070312 599.324219 300.757812 598.503906 C 304.867188 597.234375 308.824219 595.144531 312.109375 592.457031 C 312.632812 592.007812 313.378906 591.859375 313.976562 592.15625 C 314.574219 592.382812 315.023438 592.902344 315.171875 593.5 C 315.246094 594.246094 315.46875 595.292969 315.621094 596.5625 C 317.710938 595.367188 319.726562 593.949219 321.816406 592.382812 C 326.96875 588.421875 331.300781 583.792969 335.183594 578.339844 C 342.578125 567.589844 346.683594 555.117188 351.089844 541.824219 L 351.316406 541.078125 C 357.960938 521.289062 369.535156 506.054688 387.160156 486.339844 C 391.566406 481.5625 399.628906 472.597656 410.832031 463.5625 C 423.902344 453.183594 437.191406 445.417969 451.605469 439.816406 C 454.667969 438.621094 462.808594 435.410156 472.289062 432.871094 L 472.367188 432.871094 C 472.589844 432.796875 472.738281 432.796875 472.964844 432.722656 C 495.515625 426.75 511.121094 428.242188 519.410156 436.980469 C 524.265625 442.058594 526.65625 449.597656 525.609375 456.320312 C 523.96875 466.402344 515.007812 474.914062 505.074219 475.660156 C 494.84375 476.332031 487.675781 468.417969 483.867188 464.234375 C 477.59375 457.441406 473.261719 448.105469 471.320312 436.980469 C 462.808594 439.367188 455.710938 442.207031 452.949219 443.25 C 451.007812 444 449.140625 444.820312 447.273438 445.566406 C 444.511719 446.835938 441.898438 448.105469 439.210938 449.449219 C 435.550781 451.390625 431.890625 453.480469 428.304688 455.722656 C 426.960938 456.542969 425.617188 457.441406 424.347656 458.335938 C 423.824219 458.636719 423.304688 459.007812 422.78125 459.382812 C 421.210938 460.503906 419.570312 461.621094 418 462.816406 C 416.730469 463.789062 415.386719 464.832031 414.117188 465.804688 C 420.390625 489.402344 434.054688 520.167969 464 535.925781 C 490.289062 549.589844 516.722656 545.035156 521.726562 543.992188 C 548.835938 538.539062 573.03125 519.71875 584.828125 494.703125 C 603.496094 455.425781 588.113281 407.628906 562.5 384.109375 C 542.933594 366.183594 514.484375 359.539062 477.964844 364.394531 L 477.816406 364.394531 C 477.742188 364.394531 477.667969 364.46875 477.59375 364.46875 C 458.027344 367.082031 436 373.054688 412.101562 382.167969 C 397.6875 387.691406 384.992188 393.367188 377.453125 396.726562 C 372.449219 398.96875 254.308594 453.035156 239.824219 537.71875 C 237.957031 548.171875 236.3125 567.140625 243.554688 582.671875 Z M 304.179688 577.472656 C 306.054688 573.550781 309.136719 570.363281 311.980469 567.078125 C 316.78125 561.53125 321.03125 555.503906 324.644531 549.121094 C 327.46875 544.125 329.957031 538.839844 333.859375 534.636719 C 334.808594 533.613281 336.125 532.582031 337.464844 532.980469 C 338.367188 533.253906 338.964844 534.109375 339.339844 534.976562 C 340.566406 537.8125 340.101562 541.078125 339.363281 544.078125 C 336.730469 554.8125 330.796875 567.75 322.714844 576.449219 C 321.34375 577.925781 319.910156 579.28125 318.417969 580.480469 C 315.679688 582.691406 312.273438 584.261719 308.753906 584.140625 C 306.421875 584.058594 303.765625 582.800781 303.476562 580.484375 C 303.347656 579.449219 303.730469 578.417969 304.179688 577.472656 Z M 304.179688 577.472656 " fill-opacity="1" fill-rule="nonzero"/></g></svg>