<svg xmlns="http://www.w3.org/2000/svg" xmlns:xlink="http://www.w3.org/1999/xlink" width="3150" zoomAndPan="magnify" viewBox="0 0 2362.5 3299.999941" height="4400" preserveAspectRatio="xMidYMid meet" version="1.0"><defs><clipPath id="6d7f79b9db"><path d="M 0 0.347656 L 2362 0.347656 L 2362 3299.648438 L 0 3299.648438 Z M 0 0.347656 " clip-rule="nonzero"/></clipPath><clipPath id="cef83a6a15"><path d="M 136.871094 131.574219 L 2225.164062 131.574219 L 2225.164062 3167 L 136.871094 3167 Z M 136.871094 131.574219 " clip-rule="nonzero"/></clipPath><clipPath id="454d1ee464"><path d="M 249.347656 131.574219 L 2112.6875 131.574219 C 2174.804688 131.574219 2225.164062 181.929688 2225.164062 244.050781 L 2225.164062 3055.902344 C 2225.164062 3118.023438 2174.804688 3168.378906 2112.6875 3168.378906 L 249.347656 3168.378906 C 187.230469 3168.378906 136.871094 3118.023438 136.871094 3055.902344 L 136.871094 244.050781 C 136.871094 181.929688 187.230469 131.574219 249.347656 131.574219 Z M 249.347656 131.574219 " clip-rule="nonzero"/></clipPath><clipPath id="8629ad7403"><path d="M 1955 2738 L 2124 2738 L 2124 3060.734375 L 1955 3060.734375 Z M 1955 2738 " clip-rule="nonzero"/></clipPath><clipPath id="b84c34de81"><path d="M 238 238.894531 L 407 238.894531 L 407 562 L 238 562 Z M 238 238.894531 " clip-rule="nonzero"/></clipPath><clipPath id="b0abd3fc64"><path d="M 461 289 L 631 289 L 631 611.472656 L 461 611.472656 Z M 461 289 " clip-rule="nonzero"/></clipPath></defs><g clip-path="url(#6d7f79b9db)"><path fill="#ffffff" d="M 0 0.347656 L 2362 0.347656 L 2362 3299.652344 L 0 3299.652344 Z M 0 0.347656 " fill-opacity="1" fill-rule="nonzero"/><path fill="#d80400" d="M 0 0.347656 L 2362 0.347656 L 2362 3299.652344 L 0 3299.652344 Z M 0 0.347656 " fill-opacity="1" fill-rule="nonzero"/></g><g clip-path="url(#cef83a6a15)"><g clip-path="url(#454d1ee464)"><path fill="#ffffff" d="M 136.871094 131.574219 L 2225.164062 131.574219 L 2225.164062 3166.121094 L 136.871094 3166.121094 Z M 136.871094 131.574219 " fill-opacity="1" fill-rule="nonzero"/></g></g><path fill="#ff0b06" d="M 2048.371094 2742.070312 C 2051.914062 2742.589844 2055.292969 2743.703125 2058.425781 2745.375 C 2062.777344 2747.703125 2065.9375 2750.75 2068.171875 2753.566406 C 2068.261719 2748.632812 2067.289062 2740.28125 2060.914062 2733.230469 C 2051.472656 2720.835938 2035.246094 2724.117188 2035.089844 2724.152344 C 2034.542969 2724.261719 2033.972656 2724.085938 2033.605469 2723.664062 C 2033.496094 2723.542969 2022.675781 2711.351562 2013.027344 2705.164062 C 2006.714844 2701.109375 1999.878906 2697.902344 1992.703125 2695.617188 C 1988.949219 2694.414062 1984.769531 2695.425781 1981.796875 2698.222656 C 1975.53125 2704.113281 1973.140625 2709.566406 1972.292969 2712.214844 C 1996.066406 2713.722656 2020.019531 2731.316406 2021.054688 2732.082031 C 2021.453125 2732.375 2021.683594 2732.847656 2021.679688 2733.34375 C 2021.671875 2733.84375 2021.425781 2734.300781 2021.019531 2734.589844 C 2018.574219 2736.304688 2014.203125 2740.128906 2012.46875 2746.429688 C 2011.359375 2750.433594 2011.75 2753.898438 2012.078125 2755.597656 C 2012.804688 2759.382812 2014.519531 2762.289062 2016.046875 2764.242188 C 2017.238281 2761.382812 2018.84375 2758.730469 2020.835938 2756.328125 C 2022.644531 2754.152344 2024.753906 2752.226562 2027.113281 2750.597656 C 2027.371094 2750.417969 2027.679688 2750.328125 2027.988281 2750.328125 C 2028.15625 2750.328125 2028.324219 2750.355469 2028.488281 2750.410156 C 2033.46875 2752.113281 2038.03125 2754.980469 2041.683594 2758.703125 C 2045.296875 2762.382812 2047.539062 2766.351562 2048.929688 2769.839844 C 2049.964844 2765.53125 2050.316406 2761.082031 2049.929688 2756.738281 C 2049.550781 2752.425781 2048.476562 2748.21875 2046.734375 2744.210938 C 2046.507812 2743.699219 2046.582031 2743.101562 2046.925781 2742.65625 C 2047.261719 2742.214844 2047.8125 2741.960938 2048.375 2742.070312 Z M 2048.371094 2742.070312 " fill-opacity="1" fill-rule="nonzero"/><path fill="#ff0b06" d="M 1806.773438 3006.039062 C 1803.226562 3005.519531 1799.84375 3004.402344 1796.71875 3002.730469 C 1792.363281 3000.398438 1789.195312 2997.351562 1786.972656 2994.535156 C 1786.886719 2999.46875 1787.859375 3007.828125 1794.226562 3014.878906 C 1803.671875 3027.277344 1819.902344 3023.992188 1820.050781 3023.957031 C 1820.160156 3023.933594 1820.269531 3023.921875 1820.378906 3023.921875 C 1820.8125 3023.921875 1821.242188 3024.105469 1821.539062 3024.441406 C 1821.644531 3024.566406 1832.472656 3036.753906 1842.117188 3042.949219 C 1848.4375 3046.996094 1855.277344 3050.210938 1862.441406 3052.492188 C 1866.175781 3053.671875 1870.367188 3052.683594 1873.351562 3049.886719 C 1879.613281 3043.992188 1882 3038.539062 1882.851562 3035.894531 C 1859.074219 3034.386719 1835.125 3016.792969 1834.085938 3016.027344 C 1833.6875 3015.730469 1833.460938 3015.261719 1833.464844 3014.765625 C 1833.472656 3014.265625 1833.71875 3013.808594 1834.121094 3013.515625 C 1836.570312 3011.804688 1840.9375 3007.980469 1842.675781 3001.671875 C 1843.785156 2997.671875 1843.394531 2994.210938 1843.066406 2992.507812 C 1842.347656 2988.800781 1840.726562 2985.921875 1839.105469 2983.859375 C 1837.902344 2986.730469 1836.300781 2989.390625 1834.316406 2991.777344 C 1832.5 2993.957031 1830.382812 2995.886719 1828.03125 2997.507812 C 1827.632812 2997.792969 1827.121094 2997.851562 1826.65625 2997.695312 C 1821.667969 2995.988281 1817.109375 2993.117188 1813.457031 2989.402344 C 1809.847656 2985.722656 1807.601562 2981.753906 1806.214844 2978.273438 C 1805.179688 2982.570312 1804.835938 2987.027344 1805.21875 2991.367188 C 1805.601562 2995.695312 1806.671875 2999.902344 1808.410156 3003.898438 C 1808.632812 3004.410156 1808.5625 3005.007812 1808.21875 3005.453125 C 1807.878906 3005.886719 1807.320312 3006.121094 1806.769531 3006.039062 Z M 1806.773438 3006.039062 " fill-opacity="1" fill-rule="nonzero"/><g clip-path="url(#8629ad7403)"><path fill="#ff0b06" d="M 2114.058594 2810.421875 C 2107.996094 2792.625 2099.691406 2775.675781 2089.371094 2760.054688 C 2086.164062 2755.195312 2078.46875 2744.820312 2067.949219 2738.273438 C 2072.359375 2747.308594 2071.214844 2756.195312 2070.84375 2758.246094 C 2070.726562 2758.878906 2070.226562 2759.375 2069.59375 2759.488281 C 2068.972656 2759.628906 2068.320312 2759.3125 2067.996094 2758.753906 C 2066.113281 2755.574219 2062.667969 2751.148438 2056.964844 2748.101562 C 2054.957031 2747.027344 2052.832031 2746.207031 2050.625 2745.660156 C 2051.878906 2749.152344 2052.675781 2752.777344 2053 2756.460938 C 2053.570312 2762.855469 2052.667969 2769.457031 2050.402344 2775.574219 C 2050.179688 2776.183594 2049.601562 2776.582031 2048.953125 2776.582031 L 2048.859375 2776.582031 C 2048.183594 2776.539062 2047.609375 2776.054688 2047.453125 2775.394531 C 2046.546875 2771.550781 2044.433594 2765.910156 2039.472656 2760.863281 C 2036.335938 2757.671875 2032.464844 2755.171875 2028.226562 2753.59375 C 2026.355469 2754.957031 2024.671875 2756.539062 2023.207031 2758.304688 C 2020.90625 2761.074219 2019.171875 2764.226562 2018.070312 2767.671875 C 2017.902344 2768.183594 2017.484375 2768.574219 2016.960938 2768.703125 C 2016.4375 2768.832031 2015.894531 2768.671875 2015.507812 2768.292969 C 2014.460938 2767.246094 2012.992188 2765.480469 2011.667969 2763.148438 C 2009.304688 2770.730469 2008.550781 2779.472656 2009.492188 2789.523438 C 2010.46875 2799.902344 2012.664062 2814.769531 2017.605469 2826.632812 C 2021.488281 2835.933594 2027.351562 2845.113281 2033.027344 2853.988281 C 2035.808594 2858.339844 2038.683594 2862.847656 2041.234375 2867.230469 C 2062.039062 2903.011719 2057.75 2949.601562 2030.042969 2988.835938 C 2018.140625 3005.679688 2002.695312 3019.976562 1982.816406 3032.539062 C 1973.933594 3038.160156 1953.910156 3054.195312 1955.4375 3059.75 C 1955.816406 3061.140625 1958.179688 3061.964844 1962.089844 3062.066406 C 1987.601562 3062.882812 2012.625 3048.074219 2033.78125 3033.625 C 2091.199219 2994.414062 2125.605469 2929.214844 2123.570312 2863.476562 C 2123.003906 2845.132812 2119.808594 2827.285156 2114.058594 2810.421875 Z M 2037.414062 2827.089844 C 2036.757812 2827.511719 2035.894531 2827.421875 2035.152344 2827.1875 C 2032.714844 2826.417969 2030.925781 2824.363281 2029.445312 2822.277344 C 2024.152344 2814.824219 2019.265625 2804.117188 2018.191406 2794.359375 C 2018.007812 2792.699219 2017.9375 2791.070312 2017.992188 2789.488281 C 2018.089844 2786.578125 2018.949219 2783.597656 2020.929688 2781.460938 C 2022.238281 2780.046875 2024.464844 2779.066406 2026.070312 2780.136719 C 2026.789062 2780.617188 2027.226562 2781.414062 2027.574219 2782.207031 C 2029.015625 2785.5 2029.339844 2789.152344 2029.859375 2792.707031 C 2030.734375 2798.710938 2032.207031 2804.628906 2034.25 2810.34375 C 2035.847656 2814.8125 2037.808594 2819.226562 2038.332031 2823.941406 C 2038.457031 2825.089844 2038.390625 2826.472656 2037.414062 2827.09375 Z M 2037.414062 2827.089844 " fill-opacity="1" fill-rule="nonzero"/></g><path fill="#ff0b06" d="M 1899.707031 2688.355469 C 1899.328125 2686.96875 1896.964844 2686.140625 1893.054688 2686.039062 C 1892.476562 2686.019531 1891.898438 2686.015625 1891.320312 2686.015625 C 1866.457031 2686.015625 1842.050781 2700.355469 1821.363281 2714.476562 C 1763.945312 2753.699219 1729.542969 2818.898438 1731.574219 2884.632812 C 1732.140625 2902.976562 1735.335938 2920.820312 1741.085938 2937.683594 C 1747.144531 2955.480469 1755.453125 2972.429688 1765.769531 2988.050781 C 1768.976562 2992.90625 1776.671875 3003.269531 1787.1875 3009.816406 C 1782.785156 3000.785156 1783.925781 2991.910156 1784.300781 2989.859375 C 1784.414062 2989.226562 1784.914062 2988.734375 1785.546875 2988.617188 C 1786.179688 2988.492188 1786.820312 2988.796875 1787.144531 2989.355469 C 1789.027344 2992.527344 1792.464844 2996.949219 1798.179688 3000.003906 C 1800.179688 3001.078125 1802.308594 3001.898438 1804.515625 3002.449219 C 1803.269531 2998.964844 1802.472656 2995.335938 1802.148438 2991.648438 C 1801.578125 2985.246094 1802.480469 2978.636719 1804.742188 2972.535156 C 1804.976562 2971.898438 1805.53125 2971.5625 1806.285156 2971.527344 C 1806.960938 2971.570312 1807.535156 2972.050781 1807.691406 2972.714844 C 1808.59375 2976.554688 1810.710938 2982.195312 1815.667969 2987.246094 C 1818.800781 2990.433594 1822.679688 2992.9375 1826.917969 2994.511719 C 1828.789062 2993.148438 1830.476562 2991.570312 1831.941406 2989.804688 C 1834.234375 2987.046875 1835.964844 2983.890625 1837.078125 2980.429688 C 1837.25 2979.917969 1837.671875 2979.53125 1838.1875 2979.40625 C 1838.707031 2979.273438 1839.269531 2979.441406 1839.644531 2979.816406 C 1840.867188 2981.046875 1842.265625 2982.757812 1843.492188 2984.917969 C 1845.84375 2977.347656 1846.59375 2968.617188 1845.648438 2958.585938 C 1844.671875 2948.195312 1842.472656 2933.320312 1837.539062 2921.480469 C 1833.660156 2912.175781 1827.792969 2902.996094 1822.117188 2894.125 C 1819.335938 2889.769531 1816.460938 2885.261719 1813.90625 2880.878906 C 1793.105469 2845.101562 1797.394531 2798.503906 1825.105469 2759.273438 C 1837 2742.433594 1852.445312 2728.136719 1872.328125 2715.570312 C 1881.210938 2709.949219 1901.234375 2693.914062 1899.707031 2688.359375 Z M 1817.726562 2921.019531 C 1818.386719 2920.597656 1819.246094 2920.6875 1819.988281 2920.921875 C 1822.425781 2921.691406 1824.21875 2923.746094 1825.695312 2925.828125 C 1830.988281 2933.28125 1835.875 2943.992188 1836.949219 2953.75 C 1837.132812 2955.410156 1837.203125 2957.039062 1837.148438 2958.621094 C 1837.050781 2961.53125 1836.191406 2964.511719 1834.214844 2966.644531 C 1832.902344 2968.0625 1830.675781 2969.042969 1829.070312 2967.972656 C 1828.351562 2967.492188 1827.914062 2966.695312 1827.570312 2965.902344 C 1826.125 2962.609375 1825.800781 2958.957031 1825.28125 2955.402344 C 1824.40625 2949.394531 1822.933594 2943.480469 1820.890625 2937.765625 C 1819.292969 2933.296875 1817.332031 2928.882812 1816.808594 2924.167969 C 1816.683594 2923.019531 1816.75 2921.636719 1817.726562 2921.015625 Z M 1817.726562 2921.019531 " fill-opacity="1" fill-rule="nonzero"/><path fill="#ff0b06" d="M 313.355469 557.5625 C 309.808594 557.042969 306.433594 555.925781 303.300781 554.257812 C 298.949219 551.925781 295.785156 548.882812 293.554688 546.066406 C 293.464844 551 294.433594 559.351562 300.808594 566.402344 C 310.253906 578.796875 326.480469 575.515625 326.636719 575.480469 C 327.183594 575.371094 327.75 575.546875 328.121094 575.96875 C 328.226562 576.089844 339.046875 588.28125 348.699219 594.46875 C 355.011719 598.519531 361.847656 601.730469 369.023438 604.015625 C 372.773438 605.214844 376.953125 604.207031 379.929688 601.410156 C 386.195312 595.515625 388.582031 590.066406 389.433594 587.417969 C 365.65625 585.910156 341.707031 568.316406 340.667969 567.550781 C 340.273438 567.253906 340.042969 566.785156 340.046875 566.289062 C 340.054688 565.789062 340.300781 565.332031 340.707031 565.039062 C 343.152344 563.328125 347.519531 559.503906 349.257812 553.199219 C 350.367188 549.195312 349.976562 545.734375 349.648438 544.035156 C 348.917969 540.25 347.207031 537.34375 345.679688 535.390625 C 344.484375 538.25 342.882812 540.902344 340.890625 543.304688 C 339.082031 545.480469 336.972656 547.402344 334.613281 549.035156 C 334.355469 549.214844 334.046875 549.304688 333.738281 549.304688 C 333.570312 549.304688 333.402344 549.277344 333.238281 549.222656 C 328.257812 547.519531 323.695312 544.648438 320.042969 540.929688 C 316.429688 537.25 314.183594 533.28125 312.796875 529.792969 C 311.761719 534.101562 311.410156 538.550781 311.796875 542.894531 C 312.175781 547.207031 313.25 551.414062 314.992188 555.421875 C 315.214844 555.933594 315.144531 556.53125 314.800781 556.976562 C 314.464844 557.417969 313.914062 557.671875 313.351562 557.5625 Z M 313.355469 557.5625 " fill-opacity="1" fill-rule="nonzero"/><path fill="#ff0b06" d="M 554.953125 293.59375 C 558.5 294.113281 561.882812 295.230469 565.007812 296.898438 C 569.363281 299.234375 572.527344 302.28125 574.753906 305.097656 C 574.839844 300.164062 573.867188 291.804688 567.5 284.753906 C 558.054688 272.351562 541.824219 275.640625 541.671875 275.675781 C 541.566406 275.699219 541.457031 275.710938 541.347656 275.710938 C 540.914062 275.710938 540.484375 275.523438 540.1875 275.191406 C 540.078125 275.066406 529.253906 262.875 519.609375 256.683594 C 513.289062 252.636719 506.449219 249.421875 499.285156 247.140625 C 495.550781 245.957031 491.359375 246.949219 488.375 249.746094 C 482.113281 255.640625 479.726562 261.089844 478.875 263.738281 C 502.652344 265.246094 526.601562 282.839844 527.640625 283.605469 C 528.035156 283.902344 528.265625 284.371094 528.261719 284.867188 C 528.253906 285.367188 528.007812 285.824219 527.601562 286.117188 C 525.15625 287.828125 520.789062 291.652344 519.050781 297.960938 C 517.941406 301.960938 518.332031 305.421875 518.660156 307.121094 C 519.375 310.832031 521 313.707031 522.621094 315.773438 C 523.820312 312.902344 525.425781 310.242188 527.410156 307.851562 C 529.226562 305.675781 531.34375 303.746094 533.695312 302.121094 C 534.09375 301.839844 534.605469 301.777344 535.070312 301.9375 C 540.058594 303.644531 544.617188 306.515625 548.265625 310.230469 C 551.878906 313.910156 554.125 317.875 555.511719 321.355469 C 556.546875 317.0625 556.890625 312.605469 556.503906 308.261719 C 556.125 303.9375 555.050781 299.730469 553.316406 295.734375 C 553.089844 295.222656 553.164062 294.625 553.507812 294.179688 C 553.84375 293.742188 554.40625 293.507812 554.957031 293.59375 Z M 554.953125 293.59375 " fill-opacity="1" fill-rule="nonzero"/><g clip-path="url(#b84c34de81)"><path fill="#ff0b06" d="M 247.667969 489.207031 C 253.730469 507.007812 262.035156 523.953125 272.355469 539.574219 C 275.5625 544.4375 283.253906 554.8125 293.777344 561.359375 C 289.367188 552.324219 290.507812 543.433594 290.882812 541.386719 C 290.996094 540.75 291.496094 540.257812 292.132812 540.140625 C 292.753906 540.003906 293.402344 540.316406 293.730469 540.878906 C 295.609375 544.058594 299.054688 548.484375 304.761719 551.53125 C 306.769531 552.601562 308.894531 553.421875 311.101562 553.972656 C 309.847656 550.480469 309.050781 546.855469 308.722656 543.171875 C 308.15625 536.777344 309.054688 530.175781 311.324219 524.058594 C 311.546875 523.449219 312.125 523.050781 312.769531 523.050781 L 312.867188 523.050781 C 313.542969 523.09375 314.117188 523.574219 314.273438 524.238281 C 315.175781 528.082031 317.292969 533.71875 322.253906 538.769531 C 325.386719 541.960938 329.261719 544.460938 333.5 546.035156 C 335.371094 544.671875 337.050781 543.09375 338.519531 541.328125 C 340.820312 538.558594 342.554688 535.402344 343.65625 531.960938 C 343.824219 531.449219 344.242188 531.054688 344.765625 530.929688 C 345.289062 530.800781 345.832031 530.957031 346.21875 531.339844 C 347.265625 532.386719 348.734375 534.152344 350.058594 536.480469 C 352.421875 528.902344 353.175781 520.15625 352.230469 510.109375 C 351.253906 499.730469 349.058594 484.863281 344.121094 472.996094 C 340.234375 463.699219 334.375 454.515625 328.699219 445.644531 C 325.917969 441.289062 323.042969 436.785156 320.488281 432.398438 C 299.6875 396.621094 303.976562 350.027344 331.683594 310.796875 C 343.582031 293.949219 359.03125 279.65625 378.90625 267.09375 C 387.792969 261.472656 407.816406 245.433594 406.289062 239.878906 C 405.910156 238.492188 403.546875 237.667969 399.636719 237.5625 C 374.125 236.75 349.101562 251.554688 327.941406 266.007812 C 270.523438 305.21875 236.121094 370.414062 238.15625 436.15625 C 238.722656 454.5 241.917969 472.34375 247.667969 489.207031 Z M 324.308594 472.542969 C 324.96875 472.121094 325.828125 472.210938 326.574219 472.445312 C 329.011719 473.214844 330.800781 475.269531 332.28125 477.351562 C 337.574219 484.804688 342.460938 495.515625 343.535156 505.273438 C 343.71875 506.929688 343.789062 508.5625 343.734375 510.144531 C 343.636719 513.054688 342.777344 516.035156 340.796875 518.167969 C 339.488281 519.582031 337.261719 520.566406 335.65625 519.496094 C 334.9375 519.015625 334.5 518.21875 334.152344 517.425781 C 332.710938 514.132812 332.382812 510.480469 331.867188 506.921875 C 330.988281 500.917969 329.519531 495.003906 327.476562 489.289062 C 325.878906 484.820312 323.917969 480.40625 323.394531 475.691406 C 323.269531 474.542969 323.335938 473.160156 324.308594 472.539062 Z M 324.308594 472.542969 " fill-opacity="1" fill-rule="nonzero"/></g><g clip-path="url(#b0abd3fc64)"><path fill="#ff0b06" d="M 462.015625 611.277344 C 462.398438 612.664062 464.761719 613.488281 468.667969 613.59375 C 469.25 613.609375 469.828125 613.617188 470.40625 613.617188 C 495.269531 613.617188 519.675781 599.273438 540.363281 585.15625 C 597.78125 545.933594 632.183594 480.734375 630.152344 415 C 629.585938 396.65625 626.386719 378.8125 620.640625 361.949219 C 614.578125 344.148438 606.273438 327.199219 595.953125 311.582031 C 592.75 306.726562 585.054688 296.363281 574.539062 289.816406 C 578.941406 298.847656 577.800781 307.722656 577.425781 309.769531 C 577.3125 310.40625 576.8125 310.898438 576.179688 311.011719 C 575.542969 311.140625 574.90625 310.832031 574.578125 310.277344 C 572.699219 307.105469 569.257812 302.683594 563.546875 299.625 C 561.546875 298.554688 559.417969 297.734375 557.207031 297.183594 C 558.457031 300.667969 559.253906 304.292969 559.578125 307.984375 C 560.144531 314.382812 559.246094 320.996094 556.984375 327.097656 C 556.75 327.730469 556.195312 328.070312 555.441406 328.105469 C 554.765625 328.0625 554.191406 327.582031 554.035156 326.917969 C 553.132812 323.074219 551.015625 317.433594 546.054688 312.386719 C 542.925781 309.195312 539.046875 306.695312 534.808594 305.121094 C 532.9375 306.484375 531.25 308.0625 529.785156 309.828125 C 527.492188 312.585938 525.761719 315.738281 524.644531 319.203125 C 524.476562 319.714844 524.054688 320.101562 523.535156 320.226562 C 523.019531 320.359375 522.457031 320.191406 522.082031 319.816406 C 520.859375 318.585938 519.460938 316.871094 518.234375 314.714844 C 515.882812 322.285156 515.132812 331.015625 516.074219 341.046875 C 517.054688 351.4375 519.253906 366.3125 524.1875 378.152344 C 528.066406 387.457031 533.933594 396.636719 539.609375 405.507812 C 542.390625 409.863281 545.265625 414.367188 547.820312 418.753906 C 568.621094 454.53125 564.332031 501.128906 536.617188 540.355469 C 524.726562 557.195312 509.277344 571.496094 489.398438 584.058594 C 480.515625 589.683594 460.492188 605.71875 462.015625 611.273438 Z M 544 378.613281 C 543.339844 379.035156 542.480469 378.941406 541.738281 378.710938 C 539.300781 377.941406 537.507812 375.882812 536.03125 373.800781 C 530.734375 366.347656 525.847656 355.640625 524.777344 345.882812 C 524.59375 344.222656 524.519531 342.59375 524.574219 341.011719 C 524.675781 338.101562 525.535156 335.121094 527.511719 332.984375 C 528.824219 331.570312 531.050781 330.589844 532.652344 331.660156 C 533.371094 332.136719 533.8125 332.9375 534.15625 333.726562 C 535.601562 337.019531 535.925781 340.671875 536.445312 344.230469 C 537.320312 350.234375 538.792969 356.152344 540.835938 361.867188 C 542.433594 366.335938 544.394531 370.75 544.914062 375.464844 C 545.042969 376.613281 544.976562 377.996094 544 378.617188 Z M 544 378.613281 " fill-opacity="1" fill-rule="nonzero"/></g></svg>