<svg xmlns="http://www.w3.org/2000/svg" xmlns:xlink="http://www.w3.org/1999/xlink" width="3150" zoomAndPan="magnify" viewBox="0 0 2362.5 3299.999941" height="4400" preserveAspectRatio="xMidYMid meet" version="1.0"><defs><g/><clipPath id="2211a3d3f5"><path d="M 0 0.347656 L 2362 0.347656 L 2362 3299.648438 L 0 3299.648438 Z M 0 0.347656 " clip-rule="nonzero"/></clipPath><clipPath id="8438a6989b"><path d="M 56.117188 45.851562 L 2305.917969 45.851562 L 2305.917969 3254 L 56.117188 3254 Z M 56.117188 45.851562 " clip-rule="nonzero"/></clipPath></defs><g clip-path="url(#2211a3d3f5)"><path fill="#ffffff" d="M 0 0.347656 L 2362 0.347656 L 2362 3299.652344 L 0 3299.652344 Z M 0 0.347656 " fill-opacity="1" fill-rule="nonzero"/><path fill="#0f0f0f" d="M 0 0.347656 L 2362 0.347656 L 2362 3299.652344 L 0 3299.652344 Z M 0 0.347656 " fill-opacity="1" fill-rule="nonzero"/></g><g clip-path="url(#8438a6989b)"><path fill="#ffffff" d="M 56.117188 45.851562 L 2305.917969 45.851562 L 2305.917969 3253.574219 L 56.117188 3253.574219 Z M 56.117188 45.851562 " fill-opacity="1" fill-rule="nonzero"/></g><path fill="#000000" d="M 684.691406 2922.226562 L 719.914062 2933.152344 C 726.457031 2935.179688 730.121094 2942.136719 728.089844 2948.675781 L 694.605469 3056.53125 L 700.152344 3074.300781 C 702.195312 3080.839844 698.542969 3087.800781 692 3089.839844 L 690.492188 3090.3125 L 690.492188 3093.023438 C 690.492188 3099.40625 685.65625 3104.671875 679.449219 3105.351562 L 681.527344 3098.664062 C 683.425781 3097.5 684.691406 3095.410156 684.691406 3093.023438 L 684.691406 3092.121094 L 660.597656 3099.632812 L 678.078125 3099.632812 C 679.339844 3099.632812 680.523438 3099.277344 681.527344 3098.664062 L 677.339844 3112.152344 C 675.308594 3118.691406 668.347656 3122.355469 661.804688 3120.324219 L 627.925781 3109.820312 L 582.785156 3123.898438 C 576.242188 3125.9375 569.277344 3122.285156 567.238281 3115.75 L 558.683594 3088.347656 L 562.050781 3089.390625 L 558.683594 3088.347656 L 557.054688 3083.132812 L 558.683594 3088.347656 L 552.535156 3086.4375 L 557.054688 3087.839844 L 557.054688 3093.023438 C 557.054688 3096.148438 559.230469 3098.769531 562.148438 3099.457031 L 564.015625 3105.429688 L 563.667969 3105.429688 C 556.816406 3105.429688 551.253906 3099.871094 551.253906 3093.023438 L 551.253906 3085.960938 C 545.523438 3083.476562 542.460938 3077.011719 544.355469 3070.914062 L 548.785156 3056.644531 L 516.230469 2952.351562 C 514.1875 2945.816406 517.839844 2938.851562 524.382812 2936.8125 L 555.488281 2927.113281 L 551.253906 2928.433594 L 551.253906 2921.859375 C 551.253906 2915.011719 556.816406 2909.453125 563.667969 2909.453125 L 594.484375 2909.453125 L 592.683594 2915.25 L 563.667969 2915.25 C 560.019531 2915.25 557.054688 2918.210938 557.054688 2921.859375 L 557.054688 2926.625 L 592.59375 2915.542969 L 590.503906 2922.265625 L 526.109375 2942.347656 C 522.625 2943.433594 520.679688 2947.144531 521.765625 2950.625 L 572.773438 3114.023438 C 573.859375 3117.503906 577.570312 3119.449219 581.054688 3118.363281 L 690.273438 3084.304688 L 690.492188 3084.234375 L 690.53125 3084.21875 C 693.855469 3083.035156 695.679688 3079.421875 694.617188 3076.027344 L 643.609375 2912.632812 C 643.203125 2911.332031 642.433594 2910.246094 641.445312 2909.453125 L 641.425781 2909.4375 C 639.765625 2908.113281 637.503906 2907.613281 635.328125 2908.289062 L 590.503906 2922.265625 L 595.109375 2907.4375 C 597.140625 2900.898438 604.101562 2897.234375 610.644531 2899.265625 L 647.929688 2910.828125 L 627.769531 2904.574219 L 633.597656 2902.757812 C 639.636719 2900.875 646.039062 2903.839844 648.589844 2909.453125 L 648.742188 2909.796875 C 648.699219 2909.695312 648.652344 2909.59375 648.609375 2909.496094 C 648.609375 2909.496094 648.589844 2909.453125 648.589844 2909.453125 L 678.078125 2909.453125 C 684.929688 2909.453125 690.492188 2915.011719 690.492188 2921.859375 L 690.492188 2924.027344 L 684.691406 2922.226562 L 684.691406 2921.859375 C 684.691406 2918.210938 681.730469 2915.25 678.078125 2915.25 L 650.503906 2915.25 L 651.347656 2917.957031 L 649.207031 2917.292969 L 651.347656 2917.957031 L 684.691406 3024.769531 Z M 673.351562 3105.429688 L 642.007812 3105.429688 L 637.6875 3106.777344 L 663.523438 3114.789062 C 667.007812 3115.871094 670.71875 3113.917969 671.800781 3110.433594 Z M 678.082031 3105.429688 Z M 678.089844 3105.429688 C 678.085938 3105.429688 678.085938 3105.429688 678.085938 3105.429688 Z M 678.097656 3105.429688 Z M 678.097656 3105.429688 Z M 678.101562 3105.429688 Z M 678.101562 3105.429688 L 678.105469 3105.429688 C 678.105469 3105.429688 678.105469 3105.429688 678.101562 3105.429688 Z M 678.109375 3105.429688 Z M 678.113281 3105.429688 Z M 678.132812 3105.429688 Z M 678.136719 3105.429688 L 678.132812 3105.429688 Z M 678.148438 3105.429688 Z M 678.160156 3105.429688 Z M 678.164062 3105.429688 Z M 678.191406 3105.429688 Z M 678.25 3105.429688 L 678.246094 3105.429688 Z M 678.265625 3105.429688 L 678.261719 3105.429688 Z M 678.292969 3105.429688 Z M 678.296875 3105.429688 L 678.292969 3105.429688 Z M 678.308594 3105.425781 L 678.304688 3105.425781 Z M 678.3125 3105.425781 Z M 678.324219 3105.425781 Z M 678.328125 3105.425781 Z M 678.332031 3105.425781 Z M 678.335938 3105.425781 Z M 678.339844 3105.425781 L 678.335938 3105.425781 Z M 678.339844 3105.425781 Z M 678.34375 3105.425781 L 678.339844 3105.425781 Z M 678.347656 3105.425781 Z M 678.363281 3105.425781 Z M 678.382812 3105.425781 Z M 678.390625 3105.425781 Z M 678.394531 3105.425781 Z M 678.394531 3105.425781 Z M 678.402344 3105.425781 C 678.402344 3105.425781 678.402344 3105.425781 678.398438 3105.425781 C 678.402344 3105.425781 678.402344 3105.425781 678.402344 3105.425781 Z M 678.414062 3105.425781 L 678.410156 3105.425781 Z M 678.414062 3105.425781 Z M 678.421875 3105.425781 Z M 678.429688 3105.425781 L 678.425781 3105.425781 Z M 678.429688 3105.425781 Z M 678.429688 3105.425781 Z M 678.433594 3105.425781 L 678.429688 3105.425781 Z M 678.445312 3105.425781 L 678.441406 3105.425781 Z M 678.445312 3105.425781 Z M 678.449219 3105.425781 Z M 678.457031 3105.425781 Z M 678.480469 3105.421875 Z M 678.484375 3105.421875 Z M 678.488281 3105.421875 Z M 678.492188 3105.421875 Z M 678.496094 3105.421875 L 678.492188 3105.421875 Z M 678.496094 3105.421875 Z M 678.511719 3105.421875 Z M 678.519531 3105.421875 L 678.515625 3105.421875 Z M 678.523438 3105.421875 C 678.523438 3105.421875 678.519531 3105.421875 678.519531 3105.421875 Z M 678.53125 3105.421875 Z M 678.535156 3105.421875 L 678.53125 3105.421875 Z M 678.535156 3105.421875 Z M 678.554688 3105.421875 Z M 678.558594 3105.421875 L 678.554688 3105.421875 Z M 678.558594 3105.421875 Z M 678.566406 3105.421875 Z M 678.574219 3105.421875 C 678.574219 3105.421875 678.570312 3105.421875 678.570312 3105.421875 C 678.570312 3105.421875 678.574219 3105.421875 678.574219 3105.421875 Z M 678.578125 3105.417969 C 678.578125 3105.417969 678.574219 3105.421875 678.574219 3105.421875 C 678.574219 3105.421875 678.578125 3105.417969 678.578125 3105.417969 Z M 678.582031 3105.417969 Z M 678.589844 3105.417969 Z M 678.59375 3105.417969 L 678.589844 3105.417969 Z M 678.59375 3105.417969 Z M 678.597656 3105.417969 Z M 678.601562 3105.417969 Z M 678.605469 3105.417969 C 678.605469 3105.417969 678.601562 3105.417969 678.601562 3105.417969 C 678.601562 3105.417969 678.605469 3105.417969 678.605469 3105.417969 Z M 678.605469 3105.417969 Z M 678.609375 3105.417969 Z M 678.613281 3105.417969 Z M 678.613281 3105.417969 Z M 678.617188 3105.417969 C 678.613281 3105.417969 678.613281 3105.417969 678.613281 3105.417969 C 678.613281 3105.417969 678.613281 3105.417969 678.617188 3105.417969 Z M 678.617188 3105.417969 Z M 678.621094 3105.417969 Z M 678.628906 3105.417969 Z M 678.636719 3105.417969 Z M 678.640625 3105.417969 Z M 678.648438 3105.417969 Z M 678.664062 3105.417969 Z M 678.667969 3105.414062 Z M 678.671875 3105.414062 Z M 678.679688 3105.414062 L 678.675781 3105.414062 Z M 678.695312 3105.414062 C 678.695312 3105.414062 678.691406 3105.414062 678.691406 3105.414062 C 678.691406 3105.414062 678.695312 3105.414062 678.695312 3105.414062 Z M 678.703125 3105.414062 Z M 678.703125 3105.414062 Z M 678.726562 3105.414062 Z M 678.742188 3105.414062 Z M 678.746094 3105.410156 Z M 678.757812 3105.410156 Z M 678.761719 3105.410156 Z M 678.765625 3105.410156 Z M 678.769531 3105.410156 Z M 678.773438 3105.410156 Z M 678.773438 3105.410156 Z M 678.78125 3105.410156 C 678.777344 3105.410156 678.777344 3105.410156 678.777344 3105.410156 C 678.777344 3105.410156 678.777344 3105.410156 678.78125 3105.410156 Z M 678.785156 3105.410156 C 678.785156 3105.410156 678.785156 3105.410156 678.78125 3105.410156 C 678.785156 3105.410156 678.785156 3105.410156 678.785156 3105.410156 Z M 678.789062 3105.410156 Z M 678.789062 3105.410156 Z M 678.792969 3105.410156 Z M 678.792969 3105.410156 Z M 678.796875 3105.410156 Z M 678.800781 3105.410156 Z M 678.800781 3105.410156 Z M 678.8125 3105.410156 C 678.808594 3105.410156 678.804688 3105.410156 678.804688 3105.410156 C 678.804688 3105.410156 678.808594 3105.410156 678.8125 3105.410156 Z M 678.816406 3105.40625 C 678.816406 3105.40625 678.816406 3105.40625 678.8125 3105.410156 C 678.816406 3105.40625 678.816406 3105.40625 678.816406 3105.40625 Z M 678.820312 3105.40625 Z M 678.820312 3105.40625 Z M 678.824219 3105.40625 Z M 678.828125 3105.40625 Z M 678.832031 3105.40625 Z M 678.847656 3105.40625 Z M 678.855469 3105.40625 L 678.851562 3105.40625 Z M 678.859375 3105.40625 L 678.867188 3105.40625 Z M 678.871094 3105.40625 Z M 678.875 3105.40625 Z M 678.878906 3105.402344 L 678.875 3105.402344 Z M 678.882812 3105.402344 Z M 678.890625 3105.402344 C 678.886719 3105.402344 678.886719 3105.402344 678.886719 3105.402344 Z M 678.890625 3105.402344 Z M 678.898438 3105.402344 Z M 678.898438 3105.402344 Z M 678.90625 3105.402344 Z M 679.117188 3105.386719 Z M 679.125 3105.386719 C 679.121094 3105.386719 679.121094 3105.386719 679.121094 3105.386719 Z M 679.125 3105.386719 Z M 679.125 3105.386719 Z M 679.132812 3105.386719 C 679.128906 3105.386719 679.128906 3105.386719 679.128906 3105.386719 C 679.128906 3105.386719 679.128906 3105.386719 679.132812 3105.386719 Z M 679.140625 3105.382812 Z M 679.167969 3105.382812 C 679.167969 3105.382812 679.164062 3105.382812 679.164062 3105.382812 Z M 679.167969 3105.382812 Z M 679.179688 3105.378906 L 679.175781 3105.382812 Z M 679.179688 3105.378906 Z M 679.199219 3105.378906 Z M 679.222656 3105.375 Z M 679.226562 3105.375 Z M 679.234375 3105.375 L 679.230469 3105.375 Z M 679.234375 3105.375 Z M 679.238281 3105.375 Z M 679.242188 3105.375 C 679.242188 3105.375 679.242188 3105.375 679.238281 3105.375 C 679.242188 3105.375 679.242188 3105.375 679.242188 3105.375 Z M 679.261719 3105.371094 L 679.257812 3105.375 Z M 679.265625 3105.371094 Z M 679.269531 3105.371094 Z M 679.296875 3105.371094 C 679.292969 3105.371094 679.292969 3105.371094 679.289062 3105.371094 C 679.292969 3105.371094 679.292969 3105.371094 679.296875 3105.371094 Z M 679.300781 3105.367188 C 679.300781 3105.367188 679.300781 3105.367188 679.300781 3105.371094 C 679.300781 3105.367188 679.300781 3105.367188 679.300781 3105.367188 Z M 679.304688 3105.367188 Z M 679.308594 3105.367188 Z M 679.308594 3105.367188 Z M 679.3125 3105.367188 Z M 679.316406 3105.367188 Z M 679.320312 3105.367188 C 679.320312 3105.367188 679.320312 3105.367188 679.316406 3105.367188 C 679.320312 3105.367188 679.320312 3105.367188 679.320312 3105.367188 Z M 679.324219 3105.367188 Z M 679.328125 3105.367188 Z M 679.332031 3105.367188 Z M 679.335938 3105.367188 Z M 679.335938 3105.367188 Z M 679.351562 3105.363281 Z M 679.355469 3105.363281 Z M 679.355469 3105.363281 Z M 679.359375 3105.363281 Z M 679.363281 3105.363281 Z M 679.378906 3105.359375 C 679.378906 3105.359375 679.375 3105.359375 679.375 3105.359375 Z M 679.382812 3105.359375 Z M 679.382812 3105.359375 Z M 679.390625 3105.359375 C 679.390625 3105.359375 679.386719 3105.359375 679.382812 3105.359375 C 679.386719 3105.359375 679.390625 3105.359375 679.390625 3105.359375 Z M 679.394531 3105.359375 Z M 679.398438 3105.359375 L 679.394531 3105.359375 Z M 679.402344 3105.359375 Z M 679.40625 3105.359375 Z M 679.410156 3105.359375 L 679.40625 3105.359375 Z M 679.410156 3105.359375 Z M 679.421875 3105.355469 L 679.417969 3105.355469 Z M 679.421875 3105.355469 Z M 679.425781 3105.355469 C 679.425781 3105.355469 679.425781 3105.355469 679.421875 3105.355469 Z M 679.429688 3105.355469 Z M 679.433594 3105.355469 Z M 679.4375 3105.355469 Z M 679.449219 3105.351562 C 679.445312 3105.351562 679.445312 3105.355469 679.441406 3105.355469 Z M 552.53125 3086.4375 L 552.53125 3086.441406 Z M 552.523438 3086.4375 Z M 552.519531 3086.4375 Z M 552.511719 3086.433594 L 552.519531 3086.433594 C 552.515625 3086.433594 552.515625 3086.433594 552.511719 3086.433594 Z M 552.507812 3086.429688 C 552.507812 3086.433594 552.507812 3086.433594 552.511719 3086.433594 C 552.507812 3086.433594 552.507812 3086.433594 552.507812 3086.429688 Z M 552.503906 3086.429688 Z M 552.496094 3086.429688 C 552.5 3086.429688 552.5 3086.429688 552.5 3086.429688 C 552.5 3086.429688 552.5 3086.429688 552.496094 3086.429688 Z M 552.492188 3086.425781 C 552.492188 3086.425781 552.496094 3086.429688 552.496094 3086.429688 C 552.496094 3086.429688 552.492188 3086.425781 552.492188 3086.425781 Z M 552.480469 3086.421875 C 552.484375 3086.425781 552.488281 3086.425781 552.492188 3086.425781 C 552.488281 3086.425781 552.484375 3086.425781 552.480469 3086.421875 Z M 552.46875 3086.417969 C 552.472656 3086.421875 552.476562 3086.421875 552.480469 3086.421875 C 552.476562 3086.421875 552.472656 3086.421875 552.46875 3086.417969 Z M 552.46875 3086.417969 Z M 552.464844 3086.417969 Z M 552.460938 3086.417969 Z M 552.449219 3086.414062 C 552.453125 3086.414062 552.457031 3086.414062 552.460938 3086.417969 C 552.457031 3086.414062 552.453125 3086.414062 552.449219 3086.414062 Z M 552.441406 3086.410156 C 552.445312 3086.410156 552.445312 3086.410156 552.445312 3086.414062 C 552.445312 3086.410156 552.445312 3086.410156 552.441406 3086.410156 Z M 552.441406 3086.410156 Z M 552.421875 3086.402344 C 552.425781 3086.40625 552.433594 3086.40625 552.4375 3086.410156 C 552.433594 3086.40625 552.425781 3086.40625 552.421875 3086.402344 Z M 552.417969 3086.402344 Z M 552.386719 3086.394531 C 552.398438 3086.398438 552.40625 3086.398438 552.414062 3086.402344 C 552.40625 3086.398438 552.398438 3086.398438 552.386719 3086.394531 Z M 552.378906 3086.390625 C 552.382812 3086.390625 552.382812 3086.390625 552.386719 3086.394531 C 552.382812 3086.390625 552.382812 3086.390625 552.378906 3086.390625 Z M 552.378906 3086.390625 Z M 552.367188 3086.386719 C 552.371094 3086.386719 552.371094 3086.386719 552.375 3086.390625 C 552.371094 3086.386719 552.371094 3086.386719 552.367188 3086.386719 Z M 552.363281 3086.386719 C 552.363281 3086.386719 552.367188 3086.386719 552.367188 3086.386719 C 552.367188 3086.386719 552.363281 3086.386719 552.363281 3086.386719 Z M 552.359375 3086.382812 L 552.363281 3086.386719 Z M 552.355469 3086.382812 C 552.359375 3086.382812 552.359375 3086.382812 552.359375 3086.382812 C 552.359375 3086.382812 552.359375 3086.382812 552.355469 3086.382812 Z M 552.351562 3086.382812 Z M 552.347656 3086.382812 Z M 552.347656 3086.378906 Z M 552.34375 3086.378906 Z M 552.332031 3086.375 C 552.335938 3086.375 552.335938 3086.375 552.335938 3086.375 C 552.335938 3086.375 552.335938 3086.375 552.332031 3086.375 Z M 552.332031 3086.375 Z M 552.328125 3086.375 C 552.328125 3086.375 552.332031 3086.375 552.332031 3086.375 C 552.332031 3086.375 552.328125 3086.375 552.328125 3086.375 Z M 552.328125 3086.375 Z M 552.320312 3086.371094 C 552.320312 3086.371094 552.324219 3086.371094 552.324219 3086.375 C 552.324219 3086.371094 552.320312 3086.371094 552.320312 3086.371094 Z M 552.3125 3086.371094 C 552.316406 3086.371094 552.316406 3086.371094 552.316406 3086.371094 C 552.316406 3086.371094 552.316406 3086.371094 552.3125 3086.371094 Z M 552.3125 3086.367188 Z M 552.308594 3086.367188 C 552.308594 3086.367188 552.3125 3086.367188 552.3125 3086.367188 C 552.3125 3086.367188 552.308594 3086.367188 552.308594 3086.367188 Z M 552.292969 3086.363281 Z M 552.289062 3086.359375 C 552.289062 3086.359375 552.289062 3086.363281 552.289062 3086.363281 C 552.289062 3086.363281 552.289062 3086.359375 552.289062 3086.359375 Z M 552.273438 3086.355469 C 552.277344 3086.355469 552.28125 3086.359375 552.28125 3086.359375 C 552.28125 3086.359375 552.277344 3086.355469 552.273438 3086.355469 Z M 552.269531 3086.355469 C 552.269531 3086.355469 552.273438 3086.355469 552.273438 3086.355469 C 552.273438 3086.355469 552.269531 3086.355469 552.269531 3086.355469 Z M 552.269531 3086.355469 Z M 552.265625 3086.355469 C 552.265625 3086.355469 552.265625 3086.355469 552.269531 3086.355469 C 552.265625 3086.355469 552.265625 3086.355469 552.265625 3086.355469 Z M 552.265625 3086.351562 Z M 552.261719 3086.351562 Z M 552.261719 3086.351562 Z M 552.25 3086.347656 C 552.253906 3086.347656 552.257812 3086.351562 552.257812 3086.351562 C 552.257812 3086.351562 552.253906 3086.347656 552.25 3086.347656 Z M 552.246094 3086.347656 C 552.25 3086.347656 552.25 3086.347656 552.25 3086.347656 C 552.25 3086.347656 552.25 3086.347656 552.246094 3086.347656 Z M 552.246094 3086.347656 Z M 552.230469 3086.339844 C 552.230469 3086.34375 552.230469 3086.34375 552.234375 3086.34375 C 552.230469 3086.34375 552.230469 3086.34375 552.230469 3086.339844 Z M 552.226562 3086.339844 C 552.226562 3086.339844 552.230469 3086.339844 552.230469 3086.339844 C 552.230469 3086.339844 552.226562 3086.339844 552.226562 3086.339844 Z M 552.226562 3086.339844 Z M 552.222656 3086.339844 Z M 552.214844 3086.335938 C 552.214844 3086.335938 552.21875 3086.335938 552.21875 3086.335938 C 552.21875 3086.335938 552.214844 3086.335938 552.214844 3086.335938 Z M 552.199219 3086.332031 C 552.203125 3086.332031 552.207031 3086.335938 552.210938 3086.335938 C 552.207031 3086.335938 552.203125 3086.332031 552.199219 3086.332031 Z M 552.191406 3086.328125 C 552.191406 3086.328125 552.195312 3086.328125 552.199219 3086.332031 C 552.195312 3086.328125 552.191406 3086.328125 552.191406 3086.328125 Z M 552.1875 3086.328125 Z M 552.1875 3086.328125 Z M 552.183594 3086.324219 L 552.183594 3086.328125 C 552.183594 3086.324219 552.183594 3086.324219 552.183594 3086.324219 Z M 552.171875 3086.320312 C 552.175781 3086.324219 552.179688 3086.324219 552.179688 3086.324219 C 552.179688 3086.324219 552.175781 3086.324219 552.171875 3086.320312 Z M 552.171875 3086.320312 Z M 552.167969 3086.320312 C 552.167969 3086.320312 552.167969 3086.320312 552.171875 3086.320312 C 552.167969 3086.320312 552.167969 3086.320312 552.167969 3086.320312 Z M 552.167969 3086.320312 Z M 552.164062 3086.320312 Z M 552.164062 3086.316406 L 552.164062 3086.320312 Z M 552.160156 3086.316406 Z M 552.15625 3086.316406 Z M 552.152344 3086.316406 L 552.15625 3086.316406 Z M 552.148438 3086.3125 C 552.152344 3086.3125 552.152344 3086.316406 552.152344 3086.316406 C 552.152344 3086.316406 552.152344 3086.3125 552.148438 3086.3125 Z M 552.148438 3086.3125 Z M 552.128906 3086.304688 Z M 552.117188 3086.304688 L 552.121094 3086.304688 C 552.121094 3086.304688 552.121094 3086.304688 552.117188 3086.304688 Z M 552.113281 3086.300781 L 552.117188 3086.300781 C 552.117188 3086.300781 552.113281 3086.300781 552.113281 3086.300781 Z M 552.109375 3086.300781 C 552.109375 3086.300781 552.109375 3086.300781 552.113281 3086.300781 C 552.109375 3086.300781 552.109375 3086.300781 552.109375 3086.300781 Z M 552.105469 3086.296875 L 552.109375 3086.300781 C 552.105469 3086.300781 552.105469 3086.296875 552.105469 3086.296875 Z M 552.101562 3086.296875 L 552.105469 3086.296875 Z M 552.085938 3086.292969 C 552.09375 3086.292969 552.097656 3086.296875 552.101562 3086.296875 C 552.097656 3086.296875 552.09375 3086.292969 552.085938 3086.292969 Z M 552.082031 3086.289062 C 552.085938 3086.292969 552.085938 3086.292969 552.085938 3086.292969 C 552.085938 3086.292969 552.085938 3086.292969 552.082031 3086.289062 Z M 552.078125 3086.289062 C 552.078125 3086.289062 552.078125 3086.289062 552.082031 3086.289062 C 552.078125 3086.289062 552.078125 3086.289062 552.078125 3086.289062 Z M 552.074219 3086.289062 Z M 552.070312 3086.285156 L 552.074219 3086.289062 Z M 552.070312 3086.285156 Z M 552.066406 3086.285156 Z M 552.0625 3086.285156 C 552.0625 3086.285156 552.0625 3086.285156 552.066406 3086.285156 C 552.0625 3086.285156 552.0625 3086.285156 552.0625 3086.285156 Z M 552.054688 3086.28125 C 552.058594 3086.28125 552.058594 3086.28125 552.0625 3086.28125 C 552.058594 3086.28125 552.058594 3086.28125 552.054688 3086.28125 Z M 552.050781 3086.277344 C 552.050781 3086.28125 552.050781 3086.28125 552.054688 3086.28125 C 552.050781 3086.28125 552.050781 3086.28125 552.050781 3086.277344 Z M 552.039062 3086.277344 C 552.042969 3086.277344 552.046875 3086.277344 552.046875 3086.277344 C 552.046875 3086.277344 552.042969 3086.277344 552.039062 3086.277344 Z M 552.035156 3086.273438 C 552.039062 3086.273438 552.039062 3086.273438 552.039062 3086.273438 C 552.039062 3086.273438 552.039062 3086.273438 552.035156 3086.273438 Z M 552.027344 3086.269531 Z M 552.023438 3086.269531 Z M 552.019531 3086.269531 Z M 552.003906 3086.261719 C 552.007812 3086.265625 552.011719 3086.265625 552.015625 3086.265625 C 552.011719 3086.265625 552.007812 3086.265625 552.003906 3086.261719 Z M 552.003906 3086.261719 Z M 551.941406 3086.242188 C 551.953125 3086.242188 551.960938 3086.246094 551.972656 3086.25 C 551.980469 3086.253906 551.992188 3086.257812 552 3086.261719 C 551.980469 3086.253906 551.960938 3086.246094 551.941406 3086.242188 Z M 551.941406 3086.238281 Z M 551.867188 3086.210938 C 551.878906 3086.21875 551.890625 3086.222656 551.902344 3086.226562 C 551.914062 3086.230469 551.925781 3086.234375 551.9375 3086.238281 C 551.925781 3086.234375 551.914062 3086.230469 551.902344 3086.226562 C 551.890625 3086.222656 551.878906 3086.21875 551.867188 3086.210938 Z M 551.863281 3086.210938 C 551.863281 3086.210938 551.867188 3086.210938 551.867188 3086.210938 C 551.867188 3086.210938 551.863281 3086.210938 551.863281 3086.210938 Z M 551.832031 3086.199219 C 551.84375 3086.203125 551.851562 3086.207031 551.863281 3086.210938 C 551.851562 3086.207031 551.84375 3086.203125 551.832031 3086.199219 Z M 551.820312 3086.195312 C 551.824219 3086.195312 551.828125 3086.199219 551.832031 3086.199219 C 551.828125 3086.199219 551.824219 3086.195312 551.820312 3086.195312 Z M 551.8125 3086.191406 C 551.816406 3086.191406 551.816406 3086.195312 551.820312 3086.195312 C 551.816406 3086.195312 551.816406 3086.191406 551.8125 3086.191406 Z M 551.8125 3086.191406 Z M 551.808594 3086.191406 Z M 551.808594 3086.191406 Z M 551.804688 3086.1875 C 551.804688 3086.1875 551.804688 3086.1875 551.808594 3086.191406 C 551.804688 3086.1875 551.804688 3086.1875 551.804688 3086.1875 Z M 551.796875 3086.1875 Z M 551.792969 3086.183594 C 551.792969 3086.183594 551.792969 3086.183594 551.796875 3086.1875 C 551.792969 3086.183594 551.792969 3086.183594 551.792969 3086.183594 Z M 551.789062 3086.183594 Z M 551.777344 3086.179688 C 551.78125 3086.179688 551.78125 3086.179688 551.78125 3086.179688 C 551.78125 3086.179688 551.78125 3086.179688 551.777344 3086.179688 Z M 551.773438 3086.175781 Z M 551.773438 3086.175781 Z M 551.757812 3086.171875 C 551.761719 3086.171875 551.765625 3086.175781 551.769531 3086.175781 C 551.765625 3086.175781 551.761719 3086.171875 551.757812 3086.171875 Z M 551.757812 3086.171875 Z M 551.753906 3086.167969 C 551.753906 3086.167969 551.753906 3086.171875 551.757812 3086.171875 C 551.753906 3086.171875 551.753906 3086.167969 551.753906 3086.167969 Z M 551.742188 3086.164062 C 551.746094 3086.167969 551.75 3086.167969 551.75 3086.167969 C 551.75 3086.167969 551.746094 3086.167969 551.742188 3086.164062 Z M 551.734375 3086.160156 C 551.734375 3086.164062 551.738281 3086.164062 551.738281 3086.164062 C 551.738281 3086.164062 551.734375 3086.164062 551.734375 3086.160156 Z M 551.722656 3086.15625 C 551.726562 3086.15625 551.726562 3086.160156 551.730469 3086.160156 C 551.726562 3086.160156 551.726562 3086.15625 551.722656 3086.15625 Z M 551.71875 3086.15625 Z M 551.714844 3086.15625 Z M 551.714844 3086.152344 Z M 551.710938 3086.152344 Z M 551.707031 3086.152344 Z M 551.691406 3086.144531 C 551.699219 3086.148438 551.703125 3086.148438 551.707031 3086.152344 C 551.703125 3086.148438 551.699219 3086.148438 551.691406 3086.144531 Z M 551.6875 3086.144531 C 551.6875 3086.144531 551.6875 3086.144531 551.691406 3086.144531 C 551.6875 3086.144531 551.6875 3086.144531 551.6875 3086.144531 Z M 551.683594 3086.140625 Z M 551.679688 3086.140625 L 551.683594 3086.140625 Z M 551.679688 3086.140625 Z M 551.660156 3086.132812 C 551.664062 3086.136719 551.671875 3086.136719 551.675781 3086.140625 C 551.671875 3086.136719 551.664062 3086.136719 551.660156 3086.132812 Z M 551.65625 3086.132812 L 551.660156 3086.132812 Z M 551.652344 3086.128906 C 551.65625 3086.128906 551.65625 3086.132812 551.65625 3086.132812 C 551.65625 3086.132812 551.65625 3086.128906 551.652344 3086.128906 Z M 551.652344 3086.128906 Z M 551.644531 3086.125 C 551.648438 3086.128906 551.648438 3086.128906 551.648438 3086.128906 C 551.648438 3086.128906 551.648438 3086.128906 551.644531 3086.125 Z M 551.644531 3086.125 Z M 551.640625 3086.125 Z M 551.640625 3086.125 Z M 551.632812 3086.121094 C 551.632812 3086.121094 551.632812 3086.121094 551.636719 3086.125 C 551.632812 3086.121094 551.632812 3086.121094 551.632812 3086.121094 Z M 551.628906 3086.121094 Z M 551.625 3086.117188 L 551.625 3086.121094 Z M 551.625 3086.117188 Z M 551.609375 3086.113281 C 551.613281 3086.113281 551.617188 3086.117188 551.621094 3086.117188 C 551.617188 3086.117188 551.613281 3086.113281 551.609375 3086.113281 Z M 551.601562 3086.109375 L 551.605469 3086.109375 C 551.605469 3086.109375 551.605469 3086.109375 551.601562 3086.109375 Z M 551.597656 3086.109375 C 551.597656 3086.109375 551.601562 3086.109375 551.601562 3086.109375 C 551.601562 3086.109375 551.597656 3086.109375 551.597656 3086.109375 Z M 551.597656 3086.109375 Z M 551.542969 3086.085938 C 551.554688 3086.089844 551.5625 3086.09375 551.570312 3086.097656 C 551.578125 3086.101562 551.585938 3086.101562 551.59375 3086.105469 C 551.585938 3086.101562 551.578125 3086.101562 551.570312 3086.097656 C 551.5625 3086.09375 551.554688 3086.089844 551.542969 3086.085938 Z M 551.539062 3086.085938 C 551.542969 3086.085938 551.542969 3086.085938 551.542969 3086.085938 C 551.542969 3086.085938 551.542969 3086.085938 551.539062 3086.085938 Z M 551.535156 3086.082031 C 551.535156 3086.082031 551.539062 3086.082031 551.539062 3086.085938 C 551.539062 3086.082031 551.535156 3086.082031 551.535156 3086.082031 Z M 551.53125 3086.082031 Z M 551.527344 3086.078125 Z M 551.523438 3086.078125 L 551.527344 3086.078125 Z M 551.519531 3086.078125 Z M 551.515625 3086.074219 Z M 551.515625 3086.074219 Z M 551.507812 3086.070312 Z M 551.5 3086.066406 L 551.5 3086.070312 Z M 551.496094 3086.066406 C 551.496094 3086.066406 551.5 3086.066406 551.5 3086.066406 C 551.5 3086.066406 551.496094 3086.066406 551.496094 3086.066406 Z M 551.496094 3086.066406 C 551.496094 3086.066406 551.492188 3086.066406 551.492188 3086.066406 Z M 551.492188 3086.066406 Z M 551.480469 3086.058594 L 551.480469 3086.0625 Z M 551.476562 3086.058594 L 551.472656 3086.058594 C 551.472656 3086.058594 551.476562 3086.058594 551.476562 3086.058594 Z M 551.472656 3086.054688 C 551.472656 3086.054688 551.472656 3086.058594 551.472656 3086.058594 C 551.472656 3086.058594 551.472656 3086.054688 551.472656 3086.054688 Z M 551.46875 3086.054688 C 551.46875 3086.054688 551.46875 3086.054688 551.472656 3086.054688 C 551.46875 3086.054688 551.46875 3086.054688 551.46875 3086.054688 Z M 551.457031 3086.050781 C 551.460938 3086.050781 551.464844 3086.054688 551.46875 3086.054688 C 551.464844 3086.054688 551.460938 3086.050781 551.457031 3086.050781 Z M 551.453125 3086.046875 Z M 551.445312 3086.046875 C 551.449219 3086.046875 551.449219 3086.046875 551.449219 3086.046875 C 551.449219 3086.046875 551.449219 3086.046875 551.445312 3086.046875 Z M 551.441406 3086.042969 L 551.445312 3086.046875 C 551.445312 3086.042969 551.441406 3086.042969 551.441406 3086.042969 Z M 551.4375 3086.042969 Z M 551.433594 3086.039062 C 551.433594 3086.039062 551.433594 3086.042969 551.433594 3086.042969 C 551.433594 3086.042969 551.433594 3086.042969 551.433594 3086.039062 Z M 551.429688 3086.039062 L 551.433594 3086.039062 C 551.433594 3086.039062 551.429688 3086.039062 551.429688 3086.039062 Z M 551.425781 3086.039062 L 551.429688 3086.039062 C 551.429688 3086.039062 551.429688 3086.039062 551.425781 3086.039062 Z M 551.414062 3086.03125 Z M 551.40625 3086.03125 Z M 551.398438 3086.027344 Z M 551.394531 3086.023438 L 551.398438 3086.023438 Z M 551.386719 3086.019531 C 551.386719 3086.019531 551.390625 3086.023438 551.390625 3086.023438 C 551.390625 3086.023438 551.386719 3086.019531 551.386719 3086.019531 Z M 551.386719 3086.019531 Z M 551.382812 3086.019531 C 551.382812 3086.019531 551.382812 3086.019531 551.386719 3086.019531 C 551.382812 3086.019531 551.382812 3086.019531 551.382812 3086.019531 Z M 551.378906 3086.019531 L 551.382812 3086.019531 Z M 551.371094 3086.011719 Z M 551.363281 3086.011719 Z M 551.359375 3086.007812 Z M 551.355469 3086.007812 Z M 551.351562 3086.003906 C 551.351562 3086.003906 551.351562 3086.003906 551.351562 3086.007812 C 551.351562 3086.003906 551.351562 3086.003906 551.351562 3086.003906 Z M 551.347656 3086.003906 Z M 551.332031 3085.996094 C 551.332031 3085.996094 551.332031 3086 551.335938 3086 C 551.332031 3086 551.332031 3085.996094 551.332031 3085.996094 Z M 551.328125 3085.996094 Z M 551.324219 3085.992188 Z M 551.320312 3085.992188 C 551.320312 3085.992188 551.320312 3085.992188 551.324219 3085.992188 C 551.320312 3085.992188 551.320312 3085.992188 551.320312 3085.992188 Z M 551.316406 3085.988281 C 551.316406 3085.992188 551.316406 3085.992188 551.316406 3085.992188 C 551.316406 3085.992188 551.316406 3085.992188 551.316406 3085.988281 Z M 551.3125 3085.988281 Z M 551.308594 3085.988281 L 551.3125 3085.988281 Z M 551.304688 3085.984375 C 551.304688 3085.984375 551.304688 3085.984375 551.308594 3085.988281 C 551.304688 3085.984375 551.304688 3085.984375 551.304688 3085.984375 Z M 551.300781 3085.984375 Z M 551.296875 3085.984375 C 551.296875 3085.984375 551.300781 3085.984375 551.300781 3085.984375 C 551.300781 3085.984375 551.296875 3085.984375 551.296875 3085.984375 Z M 551.296875 3085.980469 Z M 551.292969 3085.980469 Z M 551.289062 3085.976562 L 551.289062 3085.980469 C 551.289062 3085.980469 551.289062 3085.980469 551.289062 3085.976562 Z M 551.277344 3085.972656 Z M 551.273438 3085.972656 Z M 551.253906 3085.964844 Z M 551.855469 3066.316406 L 549.894531 3072.632812 C 549.1875 3074.914062 549.78125 3077.292969 551.253906 3078.964844 C 552.03125 3079.847656 553.050781 3080.53125 554.25 3080.902344 L 556.585938 3081.625 L 557.042969 3083.09375 L 553.628906 3072.164062 Z M 690.492188 3043.347656 L 691.5625 3046.777344 L 688.535156 3056.53125 L 722.550781 2946.960938 C 723.632812 2943.476562 721.679688 2939.769531 718.195312 2938.6875 L 690.492188 2930.097656 Z M 618.007812 2907.617188 L 608.925781 2904.800781 C 605.4375 2903.71875 601.730469 2905.671875 600.648438 2909.15625 L 600.554688 2909.453125 L 612.128906 2909.453125 Z M 618.007812 2907.617188 " fill-opacity="1" fill-rule="evenodd"/><g fill="#0f0f0f" fill-opacity="1"><g transform="translate(774.274604, 3049.427732)"><g><path d="M 59.796875 -10.734375 C 57.015625 -6.578125 53.601562 -3.519531 49.5625 -1.5625 C 45.519531 0.382812 40.546875 1.359375 34.640625 1.359375 C 14.546875 1.359375 4.5 -9.90625 4.5 -32.4375 C 4.5 -43.957031 7.046875 -52.46875 12.140625 -57.96875 C 17.234375 -63.46875 24.578125 -66.21875 34.171875 -66.21875 C 40.515625 -66.21875 45.679688 -65.144531 49.671875 -63 C 53.671875 -60.863281 56.71875 -58.0625 58.8125 -54.59375 L 48.546875 -46.640625 C 47.054688 -48.878906 45.6875 -50.5 44.4375 -51.5 C 43.1875 -52.5 41.765625 -53.25 40.171875 -53.75 C 38.578125 -54.25 36.671875 -54.5 34.453125 -54.5 C 29.140625 -54.5 25.09375 -52.804688 22.3125 -49.421875 C 19.53125 -46.035156 18.140625 -40.375 18.140625 -32.4375 C 18.140625 -25.03125 19.441406 -19.5 22.046875 -15.84375 C 24.660156 -12.1875 28.828125 -10.359375 34.546875 -10.359375 C 38.390625 -10.359375 41.378906 -11.09375 43.515625 -12.5625 C 45.660156 -14.03125 47.601562 -15.984375 49.34375 -18.421875 Z M 59.796875 -10.734375 "/></g></g><g transform="translate(836.745755, 3049.427732)"><g><path d="M 35.8125 0 L 35.8125 -5.109375 C 31.03125 -0.734375 25.90625 1.453125 20.4375 1.453125 C 15 1.453125 10.890625 0.0234375 8.109375 -2.828125 C 5.328125 -5.691406 3.9375 -9.359375 3.9375 -13.828125 C 3.9375 -17.328125 4.644531 -20.21875 6.0625 -22.5 C 7.488281 -24.78125 9.597656 -26.566406 12.390625 -27.859375 C 15.191406 -29.160156 19.21875 -30.078125 24.46875 -30.609375 L 34.828125 -31.59375 L 34.828125 -33.796875 C 34.828125 -36.546875 34 -38.425781 32.34375 -39.4375 C 30.6875 -40.457031 28.265625 -40.96875 25.078125 -40.96875 C 22.453125 -40.96875 20.191406 -40.53125 18.296875 -39.65625 C 16.410156 -38.78125 15.015625 -37.53125 14.109375 -35.90625 L 4.6875 -41.953125 C 6.34375 -44.734375 8.9375 -46.863281 12.46875 -48.34375 C 16 -49.820312 20.265625 -50.5625 25.265625 -50.5625 C 32.921875 -50.5625 38.441406 -49.226562 41.828125 -46.5625 C 45.222656 -43.894531 46.921875 -39.515625 46.921875 -33.421875 L 46.921875 0 Z M 34.828125 -22.828125 L 28.6875 -22.265625 C 24.34375 -21.890625 21.207031 -21.0625 19.28125 -19.78125 C 17.363281 -18.5 16.40625 -16.578125 16.40625 -14.015625 C 16.40625 -11.765625 17.03125 -10.222656 18.28125 -9.390625 C 19.53125 -8.566406 21.1875 -8.15625 23.25 -8.15625 C 24.71875 -8.15625 26.503906 -8.613281 28.609375 -9.53125 C 30.722656 -10.457031 32.796875 -11.765625 34.828125 -13.453125 Z M 34.828125 -22.828125 "/></g></g><g transform="translate(890.125081, 3049.427732)"><g><path d="M 36.46875 -37.359375 C 35.21875 -37.984375 33.5625 -38.296875 31.5 -38.296875 C 29.25 -38.296875 27.113281 -37.753906 25.09375 -36.671875 C 23.082031 -35.597656 21.015625 -34.03125 18.890625 -31.96875 L 18.890625 0 L 6.796875 0 L 6.796875 -49.15625 L 18.890625 -49.15625 L 18.890625 -42.140625 C 20.953125 -44.390625 23.171875 -46.242188 25.546875 -47.703125 C 27.921875 -49.171875 30.578125 -49.90625 33.515625 -49.90625 C 36.015625 -49.90625 37.796875 -49.578125 38.859375 -48.921875 Z M 36.46875 -37.359375 "/></g></g><g transform="translate(929.491747, 3049.427732)"><g><path d="M 39.09375 0 L 39.09375 -4.78125 C 36.84375 -2.875 34.46875 -1.359375 31.96875 -0.234375 C 29.46875 0.890625 26.625 1.453125 23.4375 1.453125 C 17.25 1.453125 12.515625 -0.78125 9.234375 -5.25 C 5.953125 -9.71875 4.3125 -16.03125 4.3125 -24.1875 C 4.3125 -32.53125 6.113281 -39.007812 9.71875 -43.625 C 13.332031 -48.25 18.40625 -50.5625 24.9375 -50.5625 C 27.25 -50.5625 29.625 -50.085938 32.0625 -49.140625 C 34.5 -48.191406 36.515625 -46.984375 38.109375 -45.515625 L 38.109375 -69.78125 L 50.1875 -69.78125 L 50.1875 0 Z M 38.109375 -35.53125 C 36.828125 -36.6875 35.238281 -37.707031 33.34375 -38.59375 C 31.457031 -39.488281 29.53125 -39.9375 27.5625 -39.9375 C 24.3125 -39.9375 21.703125 -38.535156 19.734375 -35.734375 C 17.765625 -32.941406 16.78125 -29.15625 16.78125 -24.375 C 16.78125 -19.65625 17.582031 -15.953125 19.1875 -13.265625 C 20.800781 -10.578125 23.296875 -9.234375 26.671875 -9.234375 C 28.671875 -9.234375 30.707031 -9.691406 32.78125 -10.609375 C 34.863281 -11.535156 36.640625 -12.671875 38.109375 -14.015625 Z M 38.109375 -35.53125 "/></g></g><g transform="translate(986.526549, 3049.427732)"><g><path d="M 44.34375 -14.015625 C 44.34375 -10.765625 43.519531 -7.984375 41.875 -5.671875 C 40.238281 -3.359375 37.910156 -1.59375 34.890625 -0.375 C 31.878906 0.84375 28.4375 1.453125 24.5625 1.453125 C 14.28125 1.453125 7.28125 -1.40625 3.5625 -7.125 L 12.5625 -13.453125 C 14.03125 -11.453125 15.722656 -10.113281 17.640625 -9.4375 C 19.566406 -8.769531 21.625 -8.4375 23.8125 -8.4375 C 29.5625 -8.4375 32.4375 -10.109375 32.4375 -13.453125 C 32.4375 -14.921875 31.625 -16.050781 30 -16.84375 C 28.375 -17.644531 25.828125 -18.46875 22.359375 -19.3125 C 15.828125 -20.75 11.234375 -22.78125 8.578125 -25.40625 C 5.921875 -28.03125 4.59375 -31.4375 4.59375 -35.625 C 4.59375 -39.96875 6.253906 -43.539062 9.578125 -46.34375 C 12.910156 -49.15625 17.8125 -50.5625 24.28125 -50.5625 C 28.6875 -50.5625 32.566406 -49.859375 35.921875 -48.453125 C 39.285156 -47.054688 41.875 -44.953125 43.6875 -42.140625 L 34.640625 -35.71875 C 32.484375 -39.03125 28.96875 -40.6875 24.09375 -40.6875 C 21.59375 -40.6875 19.703125 -40.253906 18.421875 -39.390625 C 17.140625 -38.535156 16.5 -37.4375 16.5 -36.09375 C 16.5 -34.8125 17.078125 -33.785156 18.234375 -33.015625 C 19.390625 -32.253906 21.671875 -31.453125 25.078125 -30.609375 C 30.671875 -29.234375 34.660156 -27.863281 37.046875 -26.5 C 39.441406 -25.144531 41.253906 -23.457031 42.484375 -21.4375 C 43.722656 -19.425781 44.34375 -16.953125 44.34375 -14.015625 Z M 44.34375 -14.015625 "/></g></g><g transform="translate(1034.61012, 3049.427732)"><g/></g><g transform="translate(1057.66774, 3049.427732)"><g><path d="M 1.265625 0 L 22.734375 -64.859375 L 39.9375 -64.859375 L 61.4375 0 L 47.90625 0 L 43.59375 -13.171875 L 18.609375 -13.171875 L 14.390625 0 Z M 22.359375 -24.75 L 39.84375 -24.75 L 31.125 -51.546875 Z M 22.359375 -24.75 "/></g></g><g transform="translate(1120.326351, 3049.427732)"><g><path d="M 50.1875 -0.9375 C 50.1875 5.625 48.171875 10.503906 44.140625 13.703125 C 40.117188 16.910156 33.65625 18.515625 24.75 18.515625 C 17.40625 18.515625 10.984375 17.109375 5.484375 14.296875 L 9.046875 4.40625 C 14.140625 6.78125 19.375 7.96875 24.75 7.96875 C 29.75 7.96875 33.222656 7.25 35.171875 5.8125 C 37.128906 4.375 38.109375 1.953125 38.109375 -1.453125 L 38.109375 -5.484375 C 34.109375 -1.828125 29.28125 0 23.625 0 C 17.625 0 12.90625 -2.15625 9.46875 -6.46875 C 6.03125 -10.78125 4.3125 -16.984375 4.3125 -25.078125 C 4.3125 -30.140625 5.113281 -34.597656 6.71875 -38.453125 C 8.332031 -42.316406 10.691406 -45.300781 13.796875 -47.40625 C 16.910156 -49.507812 20.671875 -50.5625 25.078125 -50.5625 C 27.671875 -50.5625 30.265625 -49.992188 32.859375 -48.859375 C 35.453125 -47.722656 37.625 -46.28125 39.375 -44.53125 L 40.96875 -49.15625 L 50.1875 -49.15625 Z M 38.109375 -35.53125 C 34.796875 -38.46875 31.1875 -39.9375 27.28125 -39.9375 C 24.34375 -39.9375 21.859375 -38.59375 19.828125 -35.90625 C 17.796875 -33.21875 16.78125 -29.671875 16.78125 -25.265625 C 16.78125 -20.265625 17.675781 -16.578125 19.46875 -14.203125 C 21.269531 -11.828125 23.609375 -10.640625 26.484375 -10.640625 C 30.484375 -10.640625 34.359375 -12.25 38.109375 -15.46875 Z M 38.109375 -35.53125 "/></g></g><g transform="translate(1177.361153, 3049.427732)"><g><path d="M 35.8125 0 L 35.8125 -5.109375 C 31.03125 -0.734375 25.90625 1.453125 20.4375 1.453125 C 15 1.453125 10.890625 0.0234375 8.109375 -2.828125 C 5.328125 -5.691406 3.9375 -9.359375 3.9375 -13.828125 C 3.9375 -17.328125 4.644531 -20.21875 6.0625 -22.5 C 7.488281 -24.78125 9.597656 -26.566406 12.390625 -27.859375 C 15.191406 -29.160156 19.21875 -30.078125 24.46875 -30.609375 L 34.828125 -31.59375 L 34.828125 -33.796875 C 34.828125 -36.546875 34 -38.425781 32.34375 -39.4375 C 30.6875 -40.457031 28.265625 -40.96875 25.078125 -40.96875 C 22.453125 -40.96875 20.191406 -40.53125 18.296875 -39.65625 C 16.410156 -38.78125 15.015625 -37.53125 14.109375 -35.90625 L 4.6875 -41.953125 C 6.34375 -44.734375 8.9375 -46.863281 12.46875 -48.34375 C 16 -49.820312 20.265625 -50.5625 25.265625 -50.5625 C 32.921875 -50.5625 38.441406 -49.226562 41.828125 -46.5625 C 45.222656 -43.894531 46.921875 -39.515625 46.921875 -33.421875 L 46.921875 0 Z M 34.828125 -22.828125 L 28.6875 -22.265625 C 24.34375 -21.890625 21.207031 -21.0625 19.28125 -19.78125 C 17.363281 -18.5 16.40625 -16.578125 16.40625 -14.015625 C 16.40625 -11.765625 17.03125 -10.222656 18.28125 -9.390625 C 19.53125 -8.566406 21.1875 -8.15625 23.25 -8.15625 C 24.71875 -8.15625 26.503906 -8.613281 28.609375 -9.53125 C 30.722656 -10.457031 32.796875 -11.765625 34.828125 -13.453125 Z M 34.828125 -22.828125 "/></g></g><g transform="translate(1230.740478, 3049.427732)"><g><path d="M 19.59375 -62.5625 C 19.59375 -60.28125 19.03125 -58.6875 17.90625 -57.78125 C 16.78125 -56.875 15.0625 -56.421875 12.75 -56.421875 C 10.1875 -56.421875 8.441406 -56.953125 7.515625 -58.015625 C 6.597656 -59.078125 6.140625 -60.59375 6.140625 -62.5625 C 6.140625 -64.75 6.640625 -66.316406 7.640625 -67.265625 C 8.640625 -68.222656 10.34375 -68.703125 12.75 -68.703125 C 15.1875 -68.703125 16.9375 -68.238281 18 -67.3125 C 19.0625 -66.394531 19.59375 -64.8125 19.59375 -62.5625 Z M 6.796875 0 L 6.796875 -49.15625 L 18.890625 -49.15625 L 18.890625 0 Z M 6.796875 0 "/></g></g><g transform="translate(1256.469407, 3049.427732)"><g><path d="M 38.484375 0 L 38.484375 -27.09375 C 38.484375 -32.21875 38.019531 -35.640625 37.09375 -37.359375 C 36.175781 -39.078125 34.4375 -39.9375 31.875 -39.9375 C 28.28125 -39.9375 23.953125 -37.5625 18.890625 -32.8125 L 18.890625 0 L 6.796875 0 L 6.796875 -49.15625 L 18.890625 -49.15625 L 18.890625 -42.796875 C 21.453125 -45.359375 24.1875 -47.289062 27.09375 -48.59375 C 30 -49.90625 32.84375 -50.5625 35.625 -50.5625 C 40.65625 -50.5625 44.398438 -49.1875 46.859375 -46.4375 C 49.328125 -43.695312 50.5625 -39.15625 50.5625 -32.8125 L 50.5625 0 Z M 38.484375 0 "/></g></g><g transform="translate(1313.504209, 3049.427732)"><g><path d="M 44.34375 -14.015625 C 44.34375 -10.765625 43.519531 -7.984375 41.875 -5.671875 C 40.238281 -3.359375 37.910156 -1.59375 34.890625 -0.375 C 31.878906 0.84375 28.4375 1.453125 24.5625 1.453125 C 14.28125 1.453125 7.28125 -1.40625 3.5625 -7.125 L 12.5625 -13.453125 C 14.03125 -11.453125 15.722656 -10.113281 17.640625 -9.4375 C 19.566406 -8.769531 21.625 -8.4375 23.8125 -8.4375 C 29.5625 -8.4375 32.4375 -10.109375 32.4375 -13.453125 C 32.4375 -14.921875 31.625 -16.050781 30 -16.84375 C 28.375 -17.644531 25.828125 -18.46875 22.359375 -19.3125 C 15.828125 -20.75 11.234375 -22.78125 8.578125 -25.40625 C 5.921875 -28.03125 4.59375 -31.4375 4.59375 -35.625 C 4.59375 -39.96875 6.253906 -43.539062 9.578125 -46.34375 C 12.910156 -49.15625 17.8125 -50.5625 24.28125 -50.5625 C 28.6875 -50.5625 32.566406 -49.859375 35.921875 -48.453125 C 39.285156 -47.054688 41.875 -44.953125 43.6875 -42.140625 L 34.640625 -35.71875 C 32.484375 -39.03125 28.96875 -40.6875 24.09375 -40.6875 C 21.59375 -40.6875 19.703125 -40.253906 18.421875 -39.390625 C 17.140625 -38.535156 16.5 -37.4375 16.5 -36.09375 C 16.5 -34.8125 17.078125 -33.785156 18.234375 -33.015625 C 19.390625 -32.253906 21.671875 -31.453125 25.078125 -30.609375 C 30.671875 -29.234375 34.660156 -27.863281 37.046875 -26.5 C 39.441406 -25.144531 41.253906 -23.457031 42.484375 -21.4375 C 43.722656 -19.425781 44.34375 -16.953125 44.34375 -14.015625 Z M 44.34375 -14.015625 "/></g></g><g transform="translate(1361.58778, 3049.427732)"><g><path d="M 33.984375 0 C 30.734375 0.96875 27.3125 1.453125 23.71875 1.453125 C 18.03125 1.453125 13.9375 0.171875 11.4375 -2.390625 C 8.9375 -4.953125 7.6875 -9.109375 7.6875 -14.859375 L 7.6875 -39.5625 L 1.453125 -39.5625 L 1.453125 -49.15625 L 7.6875 -49.15625 L 7.6875 -62.84375 L 19.78125 -62.84375 L 19.78125 -49.15625 L 31.21875 -49.15625 L 31.21875 -39.5625 L 19.78125 -39.5625 L 19.78125 -16.40625 C 19.78125 -13.34375 20.253906 -11.265625 21.203125 -10.171875 C 22.160156 -9.078125 23.515625 -8.53125 25.265625 -8.53125 C 27.484375 -8.53125 29.6875 -8.984375 31.875 -9.890625 Z M 33.984375 0 "/></g></g><g transform="translate(1396.221073, 3049.427732)"><g/></g><g transform="translate(1419.278693, 3049.427732)"><g><path d="M 45.796875 0 L 45.796875 -27.5625 L 20.25 -27.5625 L 20.25 0 L 7.03125 0 L 7.03125 -64.859375 L 20.25 -64.859375 L 20.25 -39.65625 L 45.796875 -39.65625 L 45.796875 -64.859375 L 59.046875 -64.859375 L 59.046875 0 Z M 45.796875 0 "/></g></g><g transform="translate(1485.31159, 3049.427732)"><g><path d="M 38.109375 0 L 38.109375 -6.328125 C 35.984375 -4.046875 33.378906 -2.175781 30.296875 -0.71875 C 27.222656 0.726562 24.265625 1.453125 21.421875 1.453125 C 15.859375 1.453125 11.96875 -0.0820312 9.75 -3.15625 C 7.53125 -6.238281 6.421875 -10.625 6.421875 -16.3125 L 6.421875 -49.15625 L 18.515625 -49.15625 L 18.515625 -22.078125 C 18.515625 -18.609375 18.71875 -15.953125 19.125 -14.109375 C 19.53125 -12.265625 20.191406 -10.988281 21.109375 -10.28125 C 22.035156 -9.582031 23.390625 -9.234375 25.171875 -9.234375 C 28.765625 -9.234375 33.078125 -11.59375 38.109375 -16.3125 L 38.109375 -49.15625 L 50.1875 -49.15625 L 50.1875 0 Z M 38.109375 0 "/></g></g><g transform="translate(1542.346392, 3049.427732)"><g><path d="M 65.375 0 L 65.375 -28.96875 C 65.375 -31.875 65.203125 -34.140625 64.859375 -35.765625 C 64.515625 -37.390625 63.988281 -38.488281 63.28125 -39.0625 C 62.582031 -39.644531 61.421875 -39.9375 59.796875 -39.9375 C 57.953125 -39.9375 56 -39.25 53.9375 -37.875 C 51.875 -36.5 49.953125 -34.8125 48.171875 -32.8125 L 48.171875 0 L 36.09375 0 L 36.09375 -28.96875 C 36.09375 -32.15625 35.953125 -34.457031 35.671875 -35.875 C 35.390625 -37.300781 34.890625 -38.332031 34.171875 -38.96875 C 33.453125 -39.613281 32.234375 -39.9375 30.515625 -39.9375 C 29.015625 -39.9375 27.28125 -39.363281 25.3125 -38.21875 C 23.34375 -37.082031 21.203125 -35.28125 18.890625 -32.8125 L 18.890625 0 L 6.796875 0 L 6.796875 -49.15625 L 18.890625 -49.15625 L 18.890625 -42.796875 C 21.140625 -45.234375 23.5 -47.132812 25.96875 -48.5 C 28.4375 -49.875 31.171875 -50.5625 34.171875 -50.5625 C 38.265625 -50.5625 41.285156 -49.859375 43.234375 -48.453125 C 45.191406 -47.054688 46.53125 -44.984375 47.25 -42.234375 C 50.050781 -45.046875 52.675781 -47.132812 55.125 -48.5 C 57.582031 -49.875 60.453125 -50.5625 63.734375 -50.5625 C 68.515625 -50.5625 72 -49.203125 74.1875 -46.484375 C 76.375 -43.773438 77.46875 -39.21875 77.46875 -32.8125 L 77.46875 0 Z M 65.375 0 "/></g></g><g transform="translate(1626.234884, 3049.427732)"><g><path d="M 35.8125 0 L 35.8125 -5.109375 C 31.03125 -0.734375 25.90625 1.453125 20.4375 1.453125 C 15 1.453125 10.890625 0.0234375 8.109375 -2.828125 C 5.328125 -5.691406 3.9375 -9.359375 3.9375 -13.828125 C 3.9375 -17.328125 4.644531 -20.21875 6.0625 -22.5 C 7.488281 -24.78125 9.597656 -26.566406 12.390625 -27.859375 C 15.191406 -29.160156 19.21875 -30.078125 24.46875 -30.609375 L 34.828125 -31.59375 L 34.828125 -33.796875 C 34.828125 -36.546875 34 -38.425781 32.34375 -39.4375 C 30.6875 -40.457031 28.265625 -40.96875 25.078125 -40.96875 C 22.453125 -40.96875 20.191406 -40.53125 18.296875 -39.65625 C 16.410156 -38.78125 15.015625 -37.53125 14.109375 -35.90625 L 4.6875 -41.953125 C 6.34375 -44.734375 8.9375 -46.863281 12.46875 -48.34375 C 16 -49.820312 20.265625 -50.5625 25.265625 -50.5625 C 32.921875 -50.5625 38.441406 -49.226562 41.828125 -46.5625 C 45.222656 -43.894531 46.921875 -39.515625 46.921875 -33.421875 L 46.921875 0 Z M 34.828125 -22.828125 L 28.6875 -22.265625 C 24.34375 -21.890625 21.207031 -21.0625 19.28125 -19.78125 C 17.363281 -18.5 16.40625 -16.578125 16.40625 -14.015625 C 16.40625 -11.765625 17.03125 -10.222656 18.28125 -9.390625 C 19.53125 -8.566406 21.1875 -8.15625 23.25 -8.15625 C 24.71875 -8.15625 26.503906 -8.613281 28.609375 -9.53125 C 30.722656 -10.457031 32.796875 -11.765625 34.828125 -13.453125 Z M 34.828125 -22.828125 "/></g></g><g transform="translate(1679.614209, 3049.427732)"><g><path d="M 38.484375 0 L 38.484375 -27.09375 C 38.484375 -32.21875 38.019531 -35.640625 37.09375 -37.359375 C 36.175781 -39.078125 34.4375 -39.9375 31.875 -39.9375 C 28.28125 -39.9375 23.953125 -37.5625 18.890625 -32.8125 L 18.890625 0 L 6.796875 0 L 6.796875 -49.15625 L 18.890625 -49.15625 L 18.890625 -42.796875 C 21.453125 -45.359375 24.1875 -47.289062 27.09375 -48.59375 C 30 -49.90625 32.84375 -50.5625 35.625 -50.5625 C 40.65625 -50.5625 44.398438 -49.1875 46.859375 -46.4375 C 49.328125 -43.695312 50.5625 -39.15625 50.5625 -32.8125 L 50.5625 0 Z M 38.484375 0 "/></g></g><g transform="translate(1736.649011, 3049.427732)"><g><path d="M 19.59375 -62.5625 C 19.59375 -60.28125 19.03125 -58.6875 17.90625 -57.78125 C 16.78125 -56.875 15.0625 -56.421875 12.75 -56.421875 C 10.1875 -56.421875 8.441406 -56.953125 7.515625 -58.015625 C 6.597656 -59.078125 6.140625 -60.59375 6.140625 -62.5625 C 6.140625 -64.75 6.640625 -66.316406 7.640625 -67.265625 C 8.640625 -68.222656 10.34375 -68.703125 12.75 -68.703125 C 15.1875 -68.703125 16.9375 -68.238281 18 -67.3125 C 19.0625 -66.394531 19.59375 -64.8125 19.59375 -62.5625 Z M 6.796875 0 L 6.796875 -49.15625 L 18.890625 -49.15625 L 18.890625 0 Z M 6.796875 0 "/></g></g><g transform="translate(1762.37794, 3049.427732)"><g><path d="M 33.984375 0 C 30.734375 0.96875 27.3125 1.453125 23.71875 1.453125 C 18.03125 1.453125 13.9375 0.171875 11.4375 -2.390625 C 8.9375 -4.953125 7.6875 -9.109375 7.6875 -14.859375 L 7.6875 -39.5625 L 1.453125 -39.5625 L 1.453125 -49.15625 L 7.6875 -49.15625 L 7.6875 -62.84375 L 19.78125 -62.84375 L 19.78125 -49.15625 L 31.21875 -49.15625 L 31.21875 -39.5625 L 19.78125 -39.5625 L 19.78125 -16.40625 C 19.78125 -13.34375 20.253906 -11.265625 21.203125 -10.171875 C 22.160156 -9.078125 23.515625 -8.53125 25.265625 -8.53125 C 27.484375 -8.53125 29.6875 -8.984375 31.875 -9.890625 Z M 33.984375 0 "/></g></g><g transform="translate(1797.011233, 3049.427732)"><g><path d="M 1.640625 6.609375 C 4.265625 7.515625 6.625 7.96875 8.71875 7.96875 C 10.53125 7.96875 12.125 7.421875 13.5 6.328125 C 14.875 5.234375 16.296875 2.96875 17.765625 -0.46875 L 19.03125 -3.375 L 1.265625 -49.15625 L 13.828125 -49.15625 L 25.453125 -17.765625 L 37.359375 -49.15625 L 49.625 -49.15625 L 28.5 3.375 C 26.78125 7.59375 25.109375 10.71875 23.484375 12.75 C 21.859375 14.78125 19.957031 16.25 17.78125 17.15625 C 15.613281 18.0625 12.890625 18.515625 9.609375 18.515625 C 6.046875 18.515625 2.53125 18.046875 -0.9375 17.109375 Z M 1.640625 6.609375 "/></g></g></g></svg>